  0
SECTION
  2
HEADER
  9
$ACADVER
  1
AC1014
  9
$ACADMAINTVER
 70
     9
  9
$DWGCODEPAGE
  3
ANSI_1252
  9
$INSBASE
 10
0.0
 20
0.0
 30
0.0
  9
$EXTMIN
 10
0.0000000614802866
 20
-0.0000961973247953
 30
0.0
  9
$EXTMAX
 10
4090119.047592691
 20
74999.99983792768
 30
0.0
  9
$LIMMIN
 10
0.0
 20
0.0
  9
$LIMMAX
 10
12.0
 20
9.0
  9
$ORTHOMODE
 70
     0
  9
$REGENMODE
 70
     1
  9
$FILLMODE
 70
     1
  9
$QTEXTMODE
 70
     0
  9
$MIRRTEXT
 70
     1
  9
$DRAGMODE
 70
     2
  9
$LTSCALE
 40
1.0
  9
$OSMODE
 70
    37
  9
$ATTMODE
 70
     1
  9
$TEXTSIZE
 40
0.2
  9
$TRACEWID
 40
0.05
  9
$TEXTSTYLE
  7
STANDARD
  9
$CLAYER
  8
0
  9
$CELTYPE
  6
BYLAYER
  9
$CECOLOR
 62
   256
  9
$CELTSCALE
 40
1.0
  9
$DELOBJ
 70
     1
  9
$DISPSILH
 70
     0
  9
$DIMSCALE
 40
1.0
  9
$DIMASZ
 40
0.18
  9
$DIMEXO
 40
0.0625
  9
$DIMDLI
 40
0.38
  9
$DIMRND
 40
0.0
  9
$DIMDLE
 40
0.0
  9
$DIMEXE
 40
0.18
  9
$DIMTP
 40
0.0
  9
$DIMTM
 40
0.0
  9
$DIMTXT
 40
0.18
  9
$DIMCEN
 40
0.09
  9
$DIMTSZ
 40
0.0
  9
$DIMTOL
 70
     0
  9
$DIMLIM
 70
     0
  9
$DIMTIH
 70
     1
  9
$DIMTOH
 70
     1
  9
$DIMSE1
 70
     0
  9
$DIMSE2
 70
     0
  9
$DIMTAD
 70
     0
  9
$DIMZIN
 70
     0
  9
$DIMBLK
  1

  9
$DIMASO
 70
     1
  9
$DIMSHO
 70
     1
  9
$DIMPOST
  1

  9
$DIMAPOST
  1

  9
$DIMALT
 70
     0
  9
$DIMALTD
 70
     2
  9
$DIMALTF
 40
25.4
  9
$DIMLFAC
 40
1.0
  9
$DIMTOFL
 70
     0
  9
$DIMTVP
 40
0.0
  9
$DIMTIX
 70
     0
  9
$DIMSOXD
 70
     0
  9
$DIMSAH
 70
     0
  9
$DIMBLK1
  1

  9
$DIMBLK2
  1

  9
$DIMSTYLE
  2
STANDARD
  9
$DIMCLRD
 70
     0
  9
$DIMCLRE
 70
     0
  9
$DIMCLRT
 70
     0
  9
$DIMTFAC
 40
1.0
  9
$DIMGAP
 40
0.09
  9
$DIMJUST
 70
     0
  9
$DIMSD1
 70
     0
  9
$DIMSD2
 70
     0
  9
$DIMTOLJ
 70
     1
  9
$DIMTZIN
 70
     0
  9
$DIMALTZ
 70
     0
  9
$DIMALTTZ
 70
     0
  9
$DIMFIT
 70
     5
  9
$DIMUPT
 70
     0
  9
$DIMUNIT
 70
     2
  9
$DIMDEC
 70
     4
  9
$DIMTDEC
 70
     4
  9
$DIMALTU
 70
     2
  9
$DIMALTTD
 70
     2
  9
$DIMTXSTY
  7
STANDARD
  9
$DIMAUNIT
 70
     0
  9
$LUNITS
 70
     2
  9
$LUPREC
 70
     4
  9
$SKETCHINC
 40
0.1
  9
$FILLETRAD
 40
0.0
  9
$AUNITS
 70
     0
  9
$AUPREC
 70
     0
  9
$MENU
  1
.
  9
$ELEVATION
 40
0.0
  9
$PELEVATION
 40
0.0
  9
$THICKNESS
 40
0.0
  9
$LIMCHECK
 70
     0
  9
$CHAMFERA
 40
0.0
  9
$CHAMFERB
 40
0.0
  9
$CHAMFERC
 40
0.0
  9
$CHAMFERD
 40
0.0
  9
$SKPOLY
 70
     0
  9
$TDCREATE
 40
2459399.375161609
  9
$TDUPDATE
 40
2459399.37517228
  9
$TDINDWG
 40
0.0000000116
  9
$TDUSRTIMER
 40
0.0000000116
  9
$USRTIMER
 70
     1
  9
$ANGBASE
 50
0.0
  9
$ANGDIR
 70
     0
  9
$PDMODE
 70
    33
  9
$PDSIZE
 40
-3.0
  9
$PLINEWID
 40
0.0
  9
$COORDS
 70
     1
  9
$SPLFRAME
 70
     0
  9
$SPLINETYPE
 70
     6
  9
$SPLINESEGS
 70
     8
  9
$ATTDIA
 70
     0
  9
$ATTREQ
 70
     1
  9
$HANDLING
 70
     1
  9
$HANDSEED
  5
45A
  9
$SURFTAB1
 70
     6
  9
$SURFTAB2
 70
     6
  9
$SURFTYPE
 70
     6
  9
$SURFU
 70
     6
  9
$SURFV
 70
     6
  9
$UCSNAME
  2

  9
$UCSORG
 10
0.0
 20
0.0
 30
0.0
  9
$UCSXDIR
 10
1.0
 20
0.0
 30
0.0
  9
$UCSYDIR
 10
0.0
 20
1.0
 30
0.0
  9
$PUCSNAME
  2

  9
$PUCSORG
 10
0.0
 20
0.0
 30
0.0
  9
$PUCSXDIR
 10
1.0
 20
0.0
 30
0.0
  9
$PUCSYDIR
 10
0.0
 20
1.0
 30
0.0
  9
$USERI1
 70
     0
  9
$USERI2
 70
     0
  9
$USERI3
 70
     0
  9
$USERI4
 70
     0
  9
$USERI5
 70
     0
  9
$USERR1
 40
0.0
  9
$USERR2
 40
0.0
  9
$USERR3
 40
0.0
  9
$USERR4
 40
0.0
  9
$USERR5
 40
0.0
  9
$WORLDVIEW
 70
     1
  9
$SHADEDGE
 70
     3
  9
$SHADEDIF
 70
    70
  9
$TILEMODE
 70
     1
  9
$MAXACTVP
 70
    64
  9
$PINSBASE
 10
0.0
 20
0.0
 30
0.0
  9
$PLIMCHECK
 70
     0
  9
$PEXTMIN
 10
1.000000000000000E+20
 20
1.000000000000000E+20
 30
1.000000000000000E+20
  9
$PEXTMAX
 10
-1.000000000000000E+20
 20
-1.000000000000000E+20
 30
-1.000000000000000E+20
  9
$PLIMMIN
 10
0.0
 20
0.0
  9
$PLIMMAX
 10
12.0
 20
9.0
  9
$UNITMODE
 70
     0
  9
$VISRETAIN
 70
     1
  9
$PLINEGEN
 70
     0
  9
$PSLTSCALE
 70
     1
  9
$TREEDEPTH
 70
  3020
  9
$PICKSTYLE
 70
     1
  9
$CMLSTYLE
  2
STANDARD
  9
$CMLJUST
 70
     0
  9
$CMLSCALE
 40
1.0
  9
$PROXYGRAPHICS
 70
     1
  9
$MEASUREMENT
 70
     0
  0
ENDSEC
  0
SECTION
  2
CLASSES
  0
CLASS
  1
ACDBDICTIONARYWDFLT
  2
AcDbDictionaryWithDefault
  3
ObjectDBX Classes
 90
        0
280
     0
281
     0
  0
CLASS
  1
VISUALSTYLE
  2
AcDbVisualStyle
  3
ObjectDBX Classes
 90
     4095
280
     0
281
     0
  0
CLASS
  1
MATERIAL
  2
AcDbMaterial
  3
ObjectDBX Classes
 90
     1153
280
     0
281
     0
  0
CLASS
  1
SCALE
  2
AcDbScale
  3
ObjectDBX Classes
 90
     1153
280
     0
281
     0
  0
CLASS
  1
TABLESTYLE
  2
AcDbTableStyle
  3
ObjectDBX Classes
 90
     4095
280
     0
281
     0
  0
CLASS
  1
MLEADERSTYLE
  2
AcDbMLeaderStyle
  3
ACDB_MLEADERSTYLE_CLASS
 90
     4095
280
     0
281
     0
  0
CLASS
  1
SUN
  2
AcDbSun
  3
SCENEOE
 90
     1153
280
     0
281
     0
  0
CLASS
  1
DICTIONARYVAR
  2
AcDbDictionaryVar
  3
ObjectDBX Classes
 90
        0
280
     0
281
     0
  0
CLASS
  1
XRECORD
  2
AcDbXrecord
  3
ObjectDBX Classes
 90
        0
280
     0
281
     0
  0
CLASS
  1
LWPOLYLINE
  2
AcDbPolyline
  3
ObjectDBX Classes
 90
        0
280
     0
281
     1
  0
CLASS
  1
HATCH
  2
AcDbHatch
  3
ObjectDBX Classes
 90
        0
280
     0
281
     1
  0
CLASS
  1
ACDBPLACEHOLDER
  2
AcDbPlaceHolder
  3
ObjectDBX Classes
 90
        0
280
     0
281
     0
  0
CLASS
  1
LAYOUT
  2
AcDbLayout
  3
ObjectDBX Classes
 90
        0
280
     0
281
     0
  0
ENDSEC
  0
SECTION
  2
TABLES
  0
TABLE
  2
VPORT
  5
8
102
{ACAD_XDICTIONARY
360
451
102
}
330
0
100
AcDbSymbolTable
 70
     1
  0
VPORT
  5
29
330
8
100
AcDbSymbolTableRecord
100
AcDbViewportTableRecord
  2
*ACTIVE
 70
     0
 10
0.0
 20
0.0
 11
1.0
 21
1.0
 12
2044712.750812809
 22
37499.99987085143
 13
0.0
 23
0.0
 14
0.5
 24
0.5
 15
0.5
 25
0.5
 16
0.0
 26
0.0
 36
1.0
 17
0.0
 27
0.0
 37
0.0
 40
77914.83370573103
 41
53.55371560170627
 42
50.0
 43
0.0
 44
0.0
 50
0.0
 51
0.0
 71
     0
 72
   100
 73
     1
 74
     3
 75
     0
 76
     0
 77
     0
 78
     0
  0
ENDTAB
  0
TABLE
  2
LTYPE
  5
5
330
0
100
AcDbSymbolTable
 70
     1
  0
LTYPE
  5
14
330
5
100
AcDbSymbolTableRecord
100
AcDbLinetypeTableRecord
  2
BYBLOCK
 70
     0
  3

 72
    65
 73
     0
 40
0.0
  0
LTYPE
  5
15
330
5
100
AcDbSymbolTableRecord
100
AcDbLinetypeTableRecord
  2
BYLAYER
 70
     0
  3

 72
    65
 73
     0
 40
0.0
  0
LTYPE
  5
16
330
5
100
AcDbSymbolTableRecord
100
AcDbLinetypeTableRecord
  2
CONTINUOUS
 70
     0
  3
Solid line
 72
    65
 73
     0
 40
0.0
  0
ENDTAB
  0
TABLE
  2
LAYER
  5
2
330
0
100
AcDbSymbolTable
 70
     6
  0
LAYER
  5
10
330
2
100
AcDbSymbolTableRecord
100
AcDbLayerTableRecord
  2
0
 70
     0
 62
     7
  6
CONTINUOUS
  0
LAYER
  5
92
330
2
100
AcDbSymbolTableRecord
100
AcDbLayerTableRecord
  2
METRO3D_TILEGRID_POLY
 70
     0
 62
    58
  6
CONTINUOUS
  0
LAYER
  5
131
330
2
100
AcDbSymbolTableRecord
100
AcDbLayerTableRecord
  2
TILECENTERS
 70
     0
 62
   171
  6
CONTINUOUS
  0
LAYER
  5
132
330
2
100
AcDbSymbolTableRecord
100
AcDbLayerTableRecord
  2
TILECORNERS
 70
     0
 62
   198
  6
CONTINUOUS
  0
LAYER
  5
387
330
2
100
AcDbSymbolTableRecord
100
AcDbLayerTableRecord
  2
METRO3D_TILEGRID_LIMIT_LIN
 70
     0
 62
    22
  6
CONTINUOUS
  0
LAYER
  5
3C0
330
2
100
AcDbSymbolTableRecord
100
AcDbLayerTableRecord
  2
TILE_LABELS
 70
     0
 62
    52
  6
CONTINUOUS
  0
ENDTAB
  0
TABLE
  2
STYLE
  5
3
330
0
100
AcDbSymbolTable
 70
     1
  0
STYLE
  5
11
330
3
100
AcDbSymbolTableRecord
100
AcDbTextStyleTableRecord
  2
STANDARD
 70
     0
 40
0.0
 41
1.0
 50
0.0
 71
     0
 42
0.2
  3
txt
  4

  0
ENDTAB
  0
TABLE
  2
VIEW
  5
6
330
0
100
AcDbSymbolTable
 70
     0
  0
ENDTAB
  0
TABLE
  2
UCS
  5
7
330
0
100
AcDbSymbolTable
 70
     0
  0
ENDTAB
  0
TABLE
  2
APPID
  5
9
330
0
100
AcDbSymbolTable
 70
     2
  0
APPID
  5
12
330
9
100
AcDbSymbolTableRecord
100
AcDbRegAppTableRecord
  2
ACAD
 70
     0
  0
APPID
  5
128
330
9
100
AcDbSymbolTableRecord
100
AcDbRegAppTableRecord
  2
ACAD_MLEADERVER
 70
     0
  0
ENDTAB
  0
TABLE
  2
DIMSTYLE
  5
A
330
0
100
AcDbSymbolTable
 70
     1
  0
DIMSTYLE
105
27
330
A
100
AcDbSymbolTableRecord
100
AcDbDimStyleTableRecord
  2
STANDARD
 70
     0
  3

  4

  5

  6

  7

 40
1.0
 41
0.18
 42
0.0625
 43
0.38
 44
0.18
 45
0.0
 46
0.0
 47
0.0
 48
0.0
140
0.18
141
0.09
142
0.0
143
25.4
144
1.0
145
0.0
146
1.0
147
0.09
 71
     0
 72
     0
 73
     1
 74
     1
 75
     0
 76
     0
 77
     0
 78
     0
170
     0
171
     2
172
     0
173
     0
174
     0
175
     0
176
     0
177
     0
178
     0
270
     2
271
     4
272
     4
273
     2
274
     2
340
11
275
     0
280
     0
281
     0
282
     0
283
     1
284
     0
285
     0
286
     0
287
     3
288
     0
  0
ENDTAB
  0
TABLE
  2
BLOCK_RECORD
  5
1
330
0
100
AcDbSymbolTable
 70
     0
  0
BLOCK_RECORD
  5
1F
330
1
100
AcDbSymbolTableRecord
100
AcDbBlockTableRecord
  2
*MODEL_SPACE
  0
BLOCK_RECORD
  5
1B
330
1
100
AcDbSymbolTableRecord
100
AcDbBlockTableRecord
  2
*PAPER_SPACE
  0
ENDTAB
  0
ENDSEC
  0
SECTION
  2
BLOCKS
  0
BLOCK
  5
20
330
1F
100
AcDbEntity
  8
0
100
AcDbBlockBegin
  2
*MODEL_SPACE
 70
     0
 10
0.0
 20
0.0
 30
0.0
  3
*MODEL_SPACE
  1

  0
ENDBLK
  5
21
330
1F
100
AcDbEntity
  8
0
100
AcDbBlockEnd
  0
BLOCK
  5
1C
330
1B
100
AcDbEntity
 67
     1
  8
0
100
AcDbBlockBegin
  2
*PAPER_SPACE
 70
     0
 10
0.0
 20
0.0
 30
0.0
  3
*PAPER_SPACE
  1

  0
ENDBLK
  5
1D
330
1B
100
AcDbEntity
 67
     1
  8
0
100
AcDbBlockEnd
  0
ENDSEC
  0
SECTION
  2
ENTITIES
  0
LWPOLYLINE
  5
93
330
1F
100
AcDbEntity
  8
METRO3D_TILEGRID_POLY
100
AcDbPolyline
 90
        4
 70
     1
 43
0.0
 10
20000.00002622944
 20
5000.000074390119
 10
20000.0000262307
 20
9999.999916897843
 10
24999.99986872493
 20
9999.999916894787
 10
24999.99986872418
 20
5000.000074384008
  0
LWPOLYLINE
  5
94
330
1F
100
AcDbEntity
  8
METRO3D_TILEGRID_POLY
100
AcDbPolyline
 90
        4
 70
     1
 43
0.0
 10
24999.99986872418
 20
5000.000074384008
 10
24999.99986872493
 20
9999.999916894787
 10
30000.00003931397
 20
9999.999916897843
 10
30000.00003931255
 20
5000.000074387064
  0
LWPOLYLINE
  5
95
330
1F
100
AcDbEntity
  8
METRO3D_TILEGRID_POLY
100
AcDbPolyline
 90
        4
 70
     1
 43
0.0
 10
20000.0000262307
 20
9999.999916897843
 10
20000.00002622846
 20
15000.00008746084
 10
24999.99986872172
 20
15000.0000874639
 10
24999.99986872493
 20
9999.999916894787
  0
LWPOLYLINE
  5
96
330
1F
100
AcDbEntity
  8
METRO3D_TILEGRID_POLY
100
AcDbPolyline
 90
        4
 70
     1
 43
0.0
 10
24999.99986872493
 20
9999.999916894787
 10
24999.99986872172
 20
15000.0000874639
 10
30000.00003931276
 20
15000.00008746695
 10
30000.00003931397
 20
9999.999916897843
  0
LWPOLYLINE
  5
97
330
1F
100
AcDbEntity
  8
METRO3D_TILEGRID_POLY
100
AcDbPolyline
 90
        4
 70
     1
 43
0.0
 10
30000.00003931397
 20
9999.999916897843
 10
30000.00003931276
 20
15000.00008746695
 10
34999.99988181246
 20
15000.00008747001
 10
34999.99988180656
 20
9999.999916903955
  0
LWPOLYLINE
  5
98
330
1F
100
AcDbEntity
  8
METRO3D_TILEGRID_POLY
100
AcDbPolyline
 90
        4
 70
     1
 43
0.0
 10
10000.00001314575
 20
15000.00008747306
 10
10000.00001314616
 20
19999.99992997773
 10
14999.99985564055
 20
19999.99992997162
 10
14999.99985564082
 20
15000.00008747306
  0
LWPOLYLINE
  5
99
330
1F
100
AcDbEntity
  8
METRO3D_TILEGRID_POLY
100
AcDbPolyline
 90
        4
 70
     1
 43
0.0
 10
14999.99985564082
 20
15000.00008747306
 10
14999.99985564055
 20
19999.99992997162
 10
20000.00002622909
 20
19999.99992997468
 10
20000.00002622846
 20
15000.00008746084
  0
LWPOLYLINE
  5
9A
330
1F
100
AcDbEntity
  8
METRO3D_TILEGRID_POLY
100
AcDbPolyline
 90
        4
 70
     1
 43
0.0
 10
20000.00002622846
 20
15000.00008746084
 10
20000.00002622909
 20
19999.99992997468
 10
24999.999868724
 20
19999.99992997468
 10
24999.99986872172
 20
15000.0000874639
  0
LWPOLYLINE
  5
9B
330
1F
100
AcDbEntity
  8
METRO3D_TILEGRID_POLY
100
AcDbPolyline
 90
        4
 70
     1
 43
0.0
 10
24999.99986872172
 20
15000.0000874639
 10
24999.999868724
 20
19999.99992997468
 10
30000.00003931109
 20
19999.99992998079
 10
30000.00003931276
 20
15000.00008746695
  0
LWPOLYLINE
  5
9C
330
1F
100
AcDbEntity
  8
METRO3D_TILEGRID_POLY
100
AcDbPolyline
 90
        4
 70
     1
 43
0.0
 10
30000.00003931276
 20
15000.00008746695
 10
30000.00003931109
 20
19999.99992998079
 10
34999.99988180715
 20
19999.99992997468
 10
34999.99988181246
 20
15000.00008747001
  0
LWPOLYLINE
  5
9D
330
1F
100
AcDbEntity
  8
METRO3D_TILEGRID_POLY
100
AcDbPolyline
 90
        4
 70
     1
 43
0.0
 10
34999.99988181246
 20
15000.00008747001
 10
34999.99988180715
 20
19999.99992997468
 10
40000.00005239661
 20
19999.99992998079
 10
40000.00005239434
 20
15000.0000874639
  0
LWPOLYLINE
  5
9E
330
1F
100
AcDbEntity
  8
METRO3D_TILEGRID_POLY
100
AcDbPolyline
 90
        4
 70
     1
 43
0.0
 10
40000.00005239434
 20
15000.0000874639
 10
40000.00005239661
 20
19999.99992998079
 10
44999.9998948891
 20
19999.99992997162
 10
44999.99989488955
 20
15000.0000874639
  0
LWPOLYLINE
  5
9F
330
1F
100
AcDbEntity
  8
METRO3D_TILEGRID_POLY
100
AcDbPolyline
 90
        4
 70
     1
 43
0.0
 10
4999.999842559477
 20
19999.99992997162
 10
4999.999842559023
 20
25000.00010055601
 10
10000.00001314714
 20
25000.00010055296
 10
10000.00001314616
 20
19999.99992997773
  0
LWPOLYLINE
  5
A0
330
1F
100
AcDbEntity
  8
METRO3D_TILEGRID_POLY
100
AcDbPolyline
 90
        4
 70
     1
 43
0.0
 10
10000.00001314616
 20
19999.99992997773
 10
10000.00001314714
 20
25000.00010055296
 10
14999.99985564155
 20
25000.0001005499
 10
14999.99985564055
 20
19999.99992997162
  0
LWPOLYLINE
  5
A1
330
1F
100
AcDbEntity
  8
METRO3D_TILEGRID_POLY
100
AcDbPolyline
 90
        4
 70
     1
 43
0.0
 10
14999.99985564055
 20
19999.99992997162
 10
14999.99985564155
 20
25000.0001005499
 10
20000.00002622958
 20
25000.00010055601
 10
20000.00002622909
 20
19999.99992997468
  0
LWPOLYLINE
  5
A2
330
1F
100
AcDbEntity
  8
METRO3D_TILEGRID_POLY
100
AcDbPolyline
 90
        4
 70
     1
 43
0.0
 10
20000.00002622909
 20
19999.99992997468
 10
20000.00002622958
 20
25000.00010055601
 10
24999.99986872285
 20
25000.00010054379
 10
24999.999868724
 20
19999.99992997468
  0
LWPOLYLINE
  5
A3
330
1F
100
AcDbEntity
  8
METRO3D_TILEGRID_POLY
100
AcDbPolyline
 90
        4
 70
     1
 43
0.0
 10
24999.999868724
 20
19999.99992997468
 10
24999.99986872285
 20
25000.00010054379
 10
30000.00003931137
 20
25000.00010055296
 10
30000.00003931109
 20
19999.99992998079
  0
LWPOLYLINE
  5
A4
330
1F
100
AcDbEntity
  8
METRO3D_TILEGRID_POLY
100
AcDbPolyline
 90
        4
 70
     1
 43
0.0
 10
30000.00003931109
 20
19999.99992998079
 10
30000.00003931137
 20
25000.00010055296
 10
34999.9998818078
 20
25000.00010055296
 10
34999.99988180715
 20
19999.99992997468
  0
LWPOLYLINE
  5
A5
330
1F
100
AcDbEntity
  8
METRO3D_TILEGRID_POLY
100
AcDbPolyline
 90
        4
 70
     1
 43
0.0
 10
34999.99988180715
 20
19999.99992997468
 10
34999.9998818078
 20
25000.00010055296
 10
40000.00005239751
 20
25000.0001005499
 10
40000.00005239661
 20
19999.99992998079
  0
LWPOLYLINE
  5
A6
330
1F
100
AcDbEntity
  8
METRO3D_TILEGRID_POLY
100
AcDbPolyline
 90
        4
 70
     1
 43
0.0
 10
40000.00005239661
 20
19999.99992998079
 10
40000.00005239751
 20
25000.0001005499
 10
44999.99989488934
 20
25000.00010055296
 10
44999.9998948891
 20
19999.99992997162
  0
LWPOLYLINE
  5
A7
330
1F
100
AcDbEntity
  8
METRO3D_TILEGRID_POLY
100
AcDbPolyline
 90
        4
 70
     1
 43
0.0
 10
44999.9998948891
 20
19999.99992997162
 10
44999.99989488934
 20
25000.00010055296
 10
50000.0000654802
 20
25000.00010054684
 10
50000.00006548058
 20
19999.99992997773
  0
LWPOLYLINE
  5
A8
330
1F
100
AcDbEntity
  8
METRO3D_TILEGRID_POLY
100
AcDbPolyline
 90
        4
 70
     1
 43
0.0
 10
4999.999842559023
 20
25000.00010055601
 10
4999.999842557662
 20
29999.99994305762
 10
10000.00001314588
 20
29999.99994306374
 10
10000.00001314714
 20
25000.00010055296
  0
LWPOLYLINE
  5
A9
330
1F
100
AcDbEntity
  8
METRO3D_TILEGRID_POLY
100
AcDbPolyline
 90
        4
 70
     1
 43
0.0
 10
10000.00001314714
 20
25000.00010055296
 10
10000.00001314588
 20
29999.99994306374
 10
14999.99985564014
 20
29999.99994306068
 10
14999.99985564155
 20
25000.0001005499
  0
LWPOLYLINE
  5
AA
330
1F
100
AcDbEntity
  8
METRO3D_TILEGRID_POLY
100
AcDbPolyline
 90
        4
 70
     1
 43
0.0
 10
14999.99985564155
 20
25000.0001005499
 10
14999.99985564014
 20
29999.99994306068
 10
20000.0000262288
 20
29999.99994305762
 10
20000.00002622958
 20
25000.00010055601
  0
LWPOLYLINE
  5
AB
330
1F
100
AcDbEntity
  8
METRO3D_TILEGRID_POLY
100
AcDbPolyline
 90
        4
 70
     1
 43
0.0
 10
20000.00002622958
 20
25000.00010055601
 10
20000.0000262288
 20
29999.99994305762
 10
24999.99986872304
 20
29999.99994306068
 10
24999.99986872285
 20
25000.00010054379
  0
LWPOLYLINE
  5
AC
330
1F
100
AcDbEntity
  8
METRO3D_TILEGRID_POLY
100
AcDbPolyline
 90
        4
 70
     1
 43
0.0
 10
24999.99986872285
 20
25000.00010054379
 10
24999.99986872304
 20
29999.99994306068
 10
30000.00003931409
 20
29999.99994306068
 10
30000.00003931137
 20
25000.00010055296
  0
LWPOLYLINE
  5
AD
330
1F
100
AcDbEntity
  8
METRO3D_TILEGRID_POLY
100
AcDbPolyline
 90
        4
 70
     1
 43
0.0
 10
30000.00003931137
 20
25000.00010055296
 10
30000.00003931409
 20
29999.99994306068
 10
34999.99988180728
 20
29999.99994306374
 10
34999.9998818078
 20
25000.00010055296
  0
LWPOLYLINE
  5
AE
330
1F
100
AcDbEntity
  8
METRO3D_TILEGRID_POLY
100
AcDbPolyline
 90
        4
 70
     1
 43
0.0
 10
34999.9998818078
 20
25000.00010055296
 10
34999.99988180728
 20
29999.99994306374
 10
40000.00005239584
 20
29999.99994306679
 10
40000.00005239751
 20
25000.0001005499
  0
LWPOLYLINE
  5
AF
330
1F
100
AcDbEntity
  8
METRO3D_TILEGRID_POLY
100
AcDbPolyline
 90
        4
 70
     1
 43
0.0
 10
40000.00005239751
 20
25000.0001005499
 10
40000.00005239584
 20
29999.99994306679
 10
44999.99989488841
 20
29999.99994306374
 10
44999.99989488934
 20
25000.00010055296
  0
LWPOLYLINE
  5
B0
330
1F
100
AcDbEntity
  8
METRO3D_TILEGRID_POLY
100
AcDbPolyline
 90
        4
 70
     1
 43
0.0
 10
44999.99989488934
 20
25000.00010055296
 10
44999.99989488841
 20
29999.99994306374
 10
50000.00006547931
 20
29999.99994306374
 10
50000.0000654802
 20
25000.00010054684
  0
LWPOLYLINE
  5
B1
330
1F
100
AcDbEntity
  8
METRO3D_TILEGRID_POLY
100
AcDbPolyline
 90
        4
 70
     1
 43
0.0
 10
50000.0000654802
 20
25000.00010054684
 10
50000.00006547931
 20
29999.99994306374
 10
54999.99990797562
 20
29999.99994306068
 10
54999.999907974
 20
25000.00010054684
  0
LWPOLYLINE
  5
B2
330
1F
100
AcDbEntity
  8
METRO3D_TILEGRID_POLY
100
AcDbPolyline
 90
        4
 70
     1
 43
0.0
 10
10000.00001314588
 20
29999.99994306374
 10
10000.00001314687
 20
35000.00011363284
 10
14999.99985564116
 20
35000.00011362979
 10
14999.99985564014
 20
29999.99994306068
  0
LWPOLYLINE
  5
B3
330
1F
100
AcDbEntity
  8
METRO3D_TILEGRID_POLY
100
AcDbPolyline
 90
        4
 70
     1
 43
0.0
 10
14999.99985564014
 20
29999.99994306068
 10
14999.99985564116
 20
35000.00011362979
 10
20000.00002622844
 20
35000.00011363284
 10
20000.0000262288
 20
29999.99994305762
  0
LWPOLYLINE
  5
B4
330
1F
100
AcDbEntity
  8
METRO3D_TILEGRID_POLY
100
AcDbPolyline
 90
        4
 70
     1
 43
0.0
 10
20000.0000262288
 20
29999.99994305762
 10
20000.00002622844
 20
35000.00011363284
 10
24999.99986872332
 20
35000.00011363284
 10
24999.99986872304
 20
29999.99994306068
  0
LWPOLYLINE
  5
B5
330
1F
100
AcDbEntity
  8
METRO3D_TILEGRID_POLY
100
AcDbPolyline
 90
        4
 70
     1
 43
0.0
 10
24999.99986872304
 20
29999.99994306068
 10
24999.99986872332
 20
35000.00011363284
 10
30000.00003931139
 20
35000.0001136359
 10
30000.00003931409
 20
29999.99994306068
  0
LWPOLYLINE
  5
B6
330
1F
100
AcDbEntity
  8
METRO3D_TILEGRID_POLY
100
AcDbPolyline
 90
        4
 70
     1
 43
0.0
 10
30000.00003931409
 20
29999.99994306068
 10
30000.00003931139
 20
35000.0001136359
 10
34999.99988180838
 20
35000.00011363284
 10
34999.99988180728
 20
29999.99994306374
  0
LWPOLYLINE
  5
B7
330
1F
100
AcDbEntity
  8
METRO3D_TILEGRID_POLY
100
AcDbPolyline
 90
        4
 70
     1
 43
0.0
 10
34999.99988180728
 20
29999.99994306374
 10
34999.99988180838
 20
35000.00011363284
 10
40000.00005239493
 20
35000.00011362979
 10
40000.00005239584
 20
29999.99994306679
  0
LWPOLYLINE
  5
B8
330
1F
100
AcDbEntity
  8
METRO3D_TILEGRID_POLY
100
AcDbPolyline
 90
        4
 70
     1
 43
0.0
 10
40000.00005239584
 20
29999.99994306679
 10
40000.00005239493
 20
35000.00011362979
 10
44999.99989488981
 20
35000.0001136359
 10
44999.99989488841
 20
29999.99994306374
  0
LWPOLYLINE
  5
B9
330
1F
100
AcDbEntity
  8
METRO3D_TILEGRID_POLY
100
AcDbPolyline
 90
        4
 70
     1
 43
0.0
 10
44999.99989488841
 20
29999.99994306374
 10
44999.99989488981
 20
35000.0001136359
 10
50000.00006548196
 20
35000.00011363895
 10
50000.00006547931
 20
29999.99994306374
  0
LWPOLYLINE
  5
BA
330
1F
100
AcDbEntity
  8
METRO3D_TILEGRID_POLY
100
AcDbPolyline
 90
        4
 70
     1
 43
0.0
 10
20000.00002622844
 20
35000.00011363284
 10
20000.00002622994
 20
39999.99995614363
 10
24999.99986872385
 20
39999.99995614057
 10
24999.99986872332
 20
35000.00011363284
  0
LWPOLYLINE
  5
BB
330
1F
100
AcDbEntity
  8
METRO3D_TILEGRID_POLY
100
AcDbPolyline
 90
        4
 70
     1
 43
0.0
 10
24999.99986872332
 20
35000.00011363284
 10
24999.99986872385
 20
39999.99995614057
 10
30000.00003931265
 20
39999.99995614057
 10
30000.00003931139
 20
35000.0001136359
  0
LWPOLYLINE
  5
BC
330
1F
100
AcDbEntity
  8
METRO3D_TILEGRID_POLY
100
AcDbPolyline
 90
        4
 70
     1
 43
0.0
 10
30000.00003931139
 20
35000.0001136359
 10
30000.00003931265
 20
39999.99995614057
 10
34999.99988180876
 20
39999.99995614363
 10
34999.99988180838
 20
35000.00011363284
  0
LWPOLYLINE
  5
BD
330
1F
100
AcDbEntity
  8
METRO3D_TILEGRID_POLY
100
AcDbPolyline
 90
        4
 70
     1
 43
0.0
 10
34999.99988180838
 20
35000.00011363284
 10
34999.99988180876
 20
39999.99995614363
 10
40000.00005239448
 20
39999.99995614363
 10
40000.00005239493
 20
35000.00011362979
  0
LWPOLYLINE
  5
BE
330
1F
100
AcDbEntity
  8
METRO3D_TILEGRID_POLY
100
AcDbPolyline
 90
        4
 70
     1
 43
0.0
 10
40000.00005239493
 20
35000.00011362979
 10
40000.00005239448
 20
39999.99995614363
 10
44999.99989489223
 20
39999.99995614974
 10
44999.99989488981
 20
35000.0001136359
  0
LWPOLYLINE
  5
BF
330
1F
100
AcDbEntity
  8
METRO3D_TILEGRID_POLY
100
AcDbPolyline
 90
        4
 70
     1
 43
0.0
 10
44999.99989488981
 20
35000.0001136359
 10
44999.99989489223
 20
39999.99995614974
 10
50000.0000654786
 20
39999.99995614363
 10
50000.00006548196
 20
35000.00011363895
  0
LWPOLYLINE
  5
C0
330
1F
100
AcDbEntity
  8
METRO3D_TILEGRID_POLY
100
AcDbPolyline
 90
        4
 70
     1
 43
0.0
 10
50000.00006548196
 20
35000.00011363895
 10
50000.0000654786
 20
39999.99995614363
 10
54999.99990797452
 20
39999.99995614057
 10
54999.99990797479
 20
35000.0001136359
  0
LWPOLYLINE
  5
C1
330
1F
100
AcDbEntity
  8
METRO3D_TILEGRID_POLY
100
AcDbPolyline
 90
        4
 70
     1
 43
0.0
 10
54999.99990797479
 20
35000.0001136359
 10
54999.99990797452
 20
39999.99995614057
 10
60000.0000785602
 20
39999.99995614974
 10
60000.00007856094
 20
35000.00011363284
  0
LWPOLYLINE
  5
C2
330
1F
100
AcDbEntity
  8
METRO3D_TILEGRID_POLY
100
AcDbPolyline
 90
        4
 70
     1
 43
0.0
 10
60000.00007856094
 20
35000.00011363284
 10
60000.0000785602
 20
39999.99995614974
 10
64999.99992105733
 20
39999.99995614057
 10
64999.99992105483
 20
35000.00011363895
  0
LWPOLYLINE
  5
C3
330
1F
100
AcDbEntity
  8
METRO3D_TILEGRID_POLY
100
AcDbPolyline
 90
        4
 70
     1
 43
0.0
 10
64999.99992105483
 20
35000.00011363895
 10
64999.99992105733
 20
39999.99995614057
 10
70000.00009164556
 20
39999.99995614668
 10
70000.00009164523
 20
35000.00011362979
  0
LWPOLYLINE
  5
C4
330
1F
100
AcDbEntity
  8
METRO3D_TILEGRID_POLY
100
AcDbPolyline
 90
        4
 70
     1
 43
0.0
 10
70000.00009164523
 20
35000.00011362979
 10
70000.00009164556
 20
39999.99995614668
 10
74999.99993413896
 20
39999.99995614363
 10
74999.99993413877
 20
35000.00011362979
  0
LWPOLYLINE
  5
C5
330
1F
100
AcDbEntity
  8
METRO3D_TILEGRID_POLY
100
AcDbPolyline
 90
        4
 70
     1
 43
0.0
 10
74999.99993413877
 20
35000.00011362979
 10
74999.99993413896
 20
39999.99995614363
 10
80000.0001047298
 20
39999.99995614363
 10
80000.00010472999
 20
35000.00011363895
  0
LWPOLYLINE
  5
C6
330
1F
100
AcDbEntity
  8
METRO3D_TILEGRID_POLY
100
AcDbPolyline
 90
        4
 70
     1
 43
0.0
 10
80000.00010472999
 20
35000.00011363895
 10
80000.0001047298
 20
39999.99995614363
 10
84999.99994721955
 20
39999.99995614668
 10
84999.99994722365
 20
35000.00011362979
  0
LWPOLYLINE
  5
C7
330
1F
100
AcDbEntity
  8
METRO3D_TILEGRID_POLY
100
AcDbPolyline
 90
        4
 70
     1
 43
0.0
 10
10000.00001314721
 20
39999.99995614974
 10
10000.00001314723
 20
45000.00012671885
 10
14999.99985564138
 20
45000.00012671885
 10
14999.99985564039
 20
39999.99995614974
  0
LWPOLYLINE
  5
C8
330
1F
100
AcDbEntity
  8
METRO3D_TILEGRID_POLY
100
AcDbPolyline
 90
        4
 70
     1
 43
0.0
 10
14999.99985564039
 20
39999.99995614974
 10
14999.99985564138
 20
45000.00012671885
 10
20000.00002622962
 20
45000.00012671274
 10
20000.00002622994
 20
39999.99995614363
  0
LWPOLYLINE
  5
C9
330
1F
100
AcDbEntity
  8
METRO3D_TILEGRID_POLY
100
AcDbPolyline
 90
        4
 70
     1
 43
0.0
 10
20000.00002622994
 20
39999.99995614363
 10
20000.00002622962
 20
45000.00012671274
 10
24999.99986872402
 20
45000.00012671885
 10
24999.99986872385
 20
39999.99995614057
  0
LWPOLYLINE
  5
CA
330
1F
100
AcDbEntity
  8
METRO3D_TILEGRID_POLY
100
AcDbPolyline
 90
        4
 70
     1
 43
0.0
 10
24999.99986872385
 20
39999.99995614057
 10
24999.99986872402
 20
45000.00012671885
 10
30000.00003931336
 20
45000.00012671885
 10
30000.00003931265
 20
39999.99995614057
  0
LWPOLYLINE
  5
CB
330
1F
100
AcDbEntity
  8
METRO3D_TILEGRID_POLY
100
AcDbPolyline
 90
        4
 70
     1
 43
0.0
 10
30000.00003931265
 20
39999.99995614057
 10
30000.00003931336
 20
45000.00012671885
 10
34999.9998818073
 20
45000.00012671885
 10
34999.99988180876
 20
39999.99995614363
  0
LWPOLYLINE
  5
CC
330
1F
100
AcDbEntity
  8
METRO3D_TILEGRID_POLY
100
AcDbPolyline
 90
        4
 70
     1
 43
0.0
 10
34999.99988180876
 20
39999.99995614363
 10
34999.9998818073
 20
45000.00012671885
 10
40000.00005239656
 20
45000.0001267219
 10
40000.00005239448
 20
39999.99995614363
  0
LWPOLYLINE
  5
CD
330
1F
100
AcDbEntity
  8
METRO3D_TILEGRID_POLY
100
AcDbPolyline
 90
        4
 70
     1
 43
0.0
 10
40000.00005239448
 20
39999.99995614363
 10
40000.00005239656
 20
45000.0001267219
 10
44999.99989489048
 20
45000.0001267219
 10
44999.99989489223
 20
39999.99995614974
  0
LWPOLYLINE
  5
CE
330
1F
100
AcDbEntity
  8
METRO3D_TILEGRID_POLY
100
AcDbPolyline
 90
        4
 70
     1
 43
0.0
 10
44999.99989489223
 20
39999.99995614974
 10
44999.99989489048
 20
45000.0001267219
 10
50000.00006547759
 20
45000.0001267219
 10
50000.0000654786
 20
39999.99995614363
  0
LWPOLYLINE
  5
CF
330
1F
100
AcDbEntity
  8
METRO3D_TILEGRID_POLY
100
AcDbPolyline
 90
        4
 70
     1
 43
0.0
 10
50000.0000654786
 20
39999.99995614363
 10
50000.00006547759
 20
45000.0001267219
 10
54999.99990797257
 20
45000.00012671274
 10
54999.99990797452
 20
39999.99995614057
  0
LWPOLYLINE
  5
D0
330
1F
100
AcDbEntity
  8
METRO3D_TILEGRID_POLY
100
AcDbPolyline
 90
        4
 70
     1
 43
0.0
 10
54999.99990797452
 20
39999.99995614057
 10
54999.99990797257
 20
45000.00012671274
 10
60000.0000785641
 20
45000.00012671885
 10
60000.0000785602
 20
39999.99995614974
  0
LWPOLYLINE
  5
D1
330
1F
100
AcDbEntity
  8
METRO3D_TILEGRID_POLY
100
AcDbPolyline
 90
        4
 70
     1
 43
0.0
 10
60000.0000785602
 20
39999.99995614974
 10
60000.0000785641
 20
45000.00012671885
 10
64999.99992105714
 20
45000.0001267219
 10
64999.99992105733
 20
39999.99995614057
  0
LWPOLYLINE
  5
D2
330
1F
100
AcDbEntity
  8
METRO3D_TILEGRID_POLY
100
AcDbPolyline
 90
        4
 70
     1
 43
0.0
 10
64999.99992105733
 20
39999.99995614057
 10
64999.99992105714
 20
45000.0001267219
 10
70000.00009165048
 20
45000.00012671274
 10
70000.00009164556
 20
39999.99995614668
  0
LWPOLYLINE
  5
D3
330
1F
100
AcDbEntity
  8
METRO3D_TILEGRID_POLY
100
AcDbPolyline
 90
        4
 70
     1
 43
0.0
 10
70000.00009164556
 20
39999.99995614668
 10
70000.00009165048
 20
45000.00012671274
 10
74999.9999341412
 20
45000.00012671579
 10
74999.99993413896
 20
39999.99995614363
  0
LWPOLYLINE
  5
D4
330
1F
100
AcDbEntity
  8
METRO3D_TILEGRID_POLY
100
AcDbPolyline
 90
        4
 70
     1
 43
0.0
 10
74999.99993413896
 20
39999.99995614363
 10
74999.9999341412
 20
45000.00012671579
 10
80000.0001047302
 20
45000.00012671274
 10
80000.0001047298
 20
39999.99995614363
  0
LWPOLYLINE
  5
D5
330
1F
100
AcDbEntity
  8
METRO3D_TILEGRID_POLY
100
AcDbPolyline
 90
        4
 70
     1
 43
0.0
 10
80000.0001047298
 20
39999.99995614363
 10
80000.0001047302
 20
45000.00012671274
 10
84999.99994722295
 20
45000.00012671274
 10
84999.99994721955
 20
39999.99995614668
  0
LWPOLYLINE
  5
D6
330
1F
100
AcDbEntity
  8
METRO3D_TILEGRID_POLY
100
AcDbPolyline
 90
        4
 70
     1
 43
0.0
 10
10000.00001314723
 20
45000.00012671885
 10
10000.00001314747
 20
49999.99996923268
 10
14999.99985563949
 20
49999.99996922657
 10
14999.99985564138
 20
45000.00012671885
  0
LWPOLYLINE
  5
D7
330
1F
100
AcDbEntity
  8
METRO3D_TILEGRID_POLY
100
AcDbPolyline
 90
        4
 70
     1
 43
0.0
 10
14999.99985564138
 20
45000.00012671885
 10
14999.99985563949
 20
49999.99996922657
 10
20000.00002622806
 20
49999.99996922657
 10
20000.00002622962
 20
45000.00012671274
  0
LWPOLYLINE
  5
D8
330
1F
100
AcDbEntity
  8
METRO3D_TILEGRID_POLY
100
AcDbPolyline
 90
        4
 70
     1
 43
0.0
 10
20000.00002622962
 20
45000.00012671274
 10
20000.00002622806
 20
49999.99996922657
 10
24999.9998687228
 20
49999.99996922963
 10
24999.99986872402
 20
45000.00012671885
  0
LWPOLYLINE
  5
D9
330
1F
100
AcDbEntity
  8
METRO3D_TILEGRID_POLY
100
AcDbPolyline
 90
        4
 70
     1
 43
0.0
 10
24999.99986872402
 20
45000.00012671885
 10
24999.9998687228
 20
49999.99996922963
 10
30000.00003931437
 20
49999.99996922963
 10
30000.00003931336
 20
45000.00012671885
  0
LWPOLYLINE
  5
DA
330
1F
100
AcDbEntity
  8
METRO3D_TILEGRID_POLY
100
AcDbPolyline
 90
        4
 70
     1
 43
0.0
 10
30000.00003931336
 20
45000.00012671885
 10
30000.00003931437
 20
49999.99996922963
 10
34999.99988180649
 20
49999.99996922963
 10
34999.9998818073
 20
45000.00012671885
  0
LWPOLYLINE
  5
DB
330
1F
100
AcDbEntity
  8
METRO3D_TILEGRID_POLY
100
AcDbPolyline
 90
        4
 70
     1
 43
0.0
 10
34999.9998818073
 20
45000.00012671885
 10
34999.99988180649
 20
49999.99996922963
 10
40000.00005239512
 20
49999.99996922963
 10
40000.00005239656
 20
45000.0001267219
  0
LWPOLYLINE
  5
DC
330
1F
100
AcDbEntity
  8
METRO3D_TILEGRID_POLY
100
AcDbPolyline
 90
        4
 70
     1
 43
0.0
 10
40000.00005239656
 20
45000.0001267219
 10
40000.00005239512
 20
49999.99996922963
 10
44999.99989489067
 20
49999.99996922963
 10
44999.99989489048
 20
45000.0001267219
  0
LWPOLYLINE
  5
DD
330
1F
100
AcDbEntity
  8
METRO3D_TILEGRID_POLY
100
AcDbPolyline
 90
        4
 70
     1
 43
0.0
 10
44999.99989489048
 20
45000.0001267219
 10
44999.99989489067
 20
49999.99996922963
 10
50000.00006547998
 20
49999.99996922351
 10
50000.00006547759
 20
45000.0001267219
  0
LWPOLYLINE
  5
DE
330
1F
100
AcDbEntity
  8
METRO3D_TILEGRID_POLY
100
AcDbPolyline
 90
        4
 70
     1
 43
0.0
 10
50000.00006547759
 20
45000.0001267219
 10
50000.00006547998
 20
49999.99996922351
 10
54999.9999079751
 20
49999.99996922963
 10
54999.99990797257
 20
45000.00012671274
  0
LWPOLYLINE
  5
DF
330
1F
100
AcDbEntity
  8
METRO3D_TILEGRID_POLY
100
AcDbPolyline
 90
        4
 70
     1
 43
0.0
 10
54999.99990797257
 20
45000.00012671274
 10
54999.9999079751
 20
49999.99996922963
 10
60000.0000785634
 20
49999.99996922046
 10
60000.0000785641
 20
45000.00012671885
  0
LWPOLYLINE
  5
E0
330
1F
100
AcDbEntity
  8
METRO3D_TILEGRID_POLY
100
AcDbPolyline
 90
        4
 70
     1
 43
0.0
 10
70000.00009165048
 20
45000.00012671274
 10
70000.00009164732
 20
49999.99996922657
 10
74999.99993414168
 20
49999.99996922657
 10
74999.9999341412
 20
45000.00012671579
  0
LWPOLYLINE
  5
E1
330
1F
100
AcDbEntity
  8
METRO3D_TILEGRID_POLY
100
AcDbPolyline
 90
        4
 70
     1
 43
0.0
 10
10000.00001314747
 20
49999.99996923268
 10
10000.00001314743
 20
55000.00013980179
 10
14999.99985564012
 20
55000.00013979874
 10
14999.99985563949
 20
49999.99996922657
  0
LWPOLYLINE
  5
E2
330
1F
100
AcDbEntity
  8
METRO3D_TILEGRID_POLY
100
AcDbPolyline
 90
        4
 70
     1
 43
0.0
 10
14999.99985563949
 20
49999.99996922657
 10
14999.99985564012
 20
55000.00013979874
 10
20000.00002623317
 20
55000.00013979874
 10
20000.00002622806
 20
49999.99996922657
  0
LWPOLYLINE
  5
E3
330
1F
100
AcDbEntity
  8
METRO3D_TILEGRID_POLY
100
AcDbPolyline
 90
        4
 70
     1
 43
0.0
 10
20000.00002622806
 20
49999.99996922657
 10
20000.00002623317
 20
55000.00013979874
 10
24999.99986872373
 20
55000.00013980485
 10
24999.9998687228
 20
49999.99996922963
  0
LWPOLYLINE
  5
E4
330
1F
100
AcDbEntity
  8
METRO3D_TILEGRID_POLY
100
AcDbPolyline
 90
        4
 70
     1
 43
0.0
 10
24999.9998687228
 20
49999.99996922963
 10
24999.99986872373
 20
55000.00013980485
 10
30000.00003931139
 20
55000.00013979568
 10
30000.00003931437
 20
49999.99996922963
  0
LWPOLYLINE
  5
E5
330
1F
100
AcDbEntity
  8
METRO3D_TILEGRID_POLY
100
AcDbPolyline
 90
        4
 70
     1
 43
0.0
 10
30000.00003931437
 20
49999.99996922963
 10
30000.00003931139
 20
55000.00013979568
 10
34999.99988180799
 20
55000.00013979874
 10
34999.99988180649
 20
49999.99996922963
  0
LWPOLYLINE
  5
E6
330
1F
100
AcDbEntity
  8
METRO3D_TILEGRID_POLY
100
AcDbPolyline
 90
        4
 70
     1
 43
0.0
 10
34999.99988180649
 20
49999.99996922963
 10
34999.99988180799
 20
55000.00013979874
 10
40000.00005239441
 20
55000.00013980179
 10
40000.00005239512
 20
49999.99996922963
  0
LWPOLYLINE
  5
E7
330
1F
100
AcDbEntity
  8
METRO3D_TILEGRID_POLY
100
AcDbPolyline
 90
        4
 70
     1
 43
0.0
 10
40000.00005239512
 20
49999.99996922963
 10
40000.00005239441
 20
55000.00013980179
 10
44999.99989488914
 20
55000.00013980179
 10
44999.99989489067
 20
49999.99996922963
  0
LWPOLYLINE
  5
E8
330
1F
100
AcDbEntity
  8
METRO3D_TILEGRID_POLY
100
AcDbPolyline
 90
        4
 70
     1
 43
0.0
 10
44999.99989489067
 20
49999.99996922963
 10
44999.99989488914
 20
55000.00013980179
 10
50000.00006547769
 20
55000.00013980179
 10
50000.00006547998
 20
49999.99996922351
  0
LWPOLYLINE
  5
E9
330
1F
100
AcDbEntity
  8
METRO3D_TILEGRID_POLY
100
AcDbPolyline
 90
        4
 70
     1
 43
0.0
 10
50000.00006547998
 20
49999.99996922351
 10
50000.00006547769
 20
55000.00013980179
 10
54999.99990797336
 20
55000.00013980179
 10
54999.9999079751
 20
49999.99996922963
  0
LWPOLYLINE
  5
EA
330
1F
100
AcDbEntity
  8
METRO3D_TILEGRID_POLY
100
AcDbPolyline
 90
        4
 70
     1
 43
0.0
 10
54999.9999079751
 20
49999.99996922963
 10
54999.99990797336
 20
55000.00013980179
 10
60000.00007856204
 20
55000.00013979874
 10
60000.0000785634
 20
49999.99996922046
  0
LWPOLYLINE
  5
EB
330
1F
100
AcDbEntity
  8
METRO3D_TILEGRID_POLY
100
AcDbPolyline
 90
        4
 70
     1
 43
0.0
 10
60000.0000785634
 20
49999.99996922046
 10
60000.00007856204
 20
55000.00013979874
 10
64999.99992105759
 20
55000.00013979874
 10
64999.9999210574
 20
49999.99996922351
  0
LWPOLYLINE
  5
EC
330
1F
100
AcDbEntity
  8
METRO3D_TILEGRID_POLY
100
AcDbPolyline
 90
        4
 70
     1
 43
0.0
 10
64999.9999210574
 20
49999.99996922351
 10
64999.99992105759
 20
55000.00013979874
 10
70000.00009164534
 20
55000.00013979874
 10
70000.00009164732
 20
49999.99996922657
  0
LWPOLYLINE
  5
ED
330
1F
100
AcDbEntity
  8
METRO3D_TILEGRID_POLY
100
AcDbPolyline
 90
        4
 70
     1
 43
0.0
 10
70000.00009164732
 20
49999.99996922657
 10
70000.00009164534
 20
55000.00013979874
 10
74999.99993414183
 20
55000.00013980179
 10
74999.99993414168
 20
49999.99996922657
  0
LWPOLYLINE
  5
EE
330
1F
100
AcDbEntity
  8
METRO3D_TILEGRID_POLY
100
AcDbPolyline
 90
        4
 70
     1
 43
0.0
 10
20000.00002623317
 20
55000.00013979874
 10
20000.00002623104
 20
59999.99998230646
 10
24999.99986872455
 20
59999.99998230341
 10
24999.99986872373
 20
55000.00013980485
  0
LWPOLYLINE
  5
EF
330
1F
100
AcDbEntity
  8
METRO3D_TILEGRID_POLY
100
AcDbPolyline
 90
        4
 70
     1
 43
0.0
 10
24999.99986872373
 20
55000.00013980485
 10
24999.99986872455
 20
59999.99998230341
 10
30000.00003931373
 20
59999.99998230952
 10
30000.00003931139
 20
55000.00013979568
  0
LWPOLYLINE
  5
F0
330
1F
100
AcDbEntity
  8
METRO3D_TILEGRID_POLY
100
AcDbPolyline
 90
        4
 70
     1
 43
0.0
 10
34999.99988180799
 20
55000.00013979874
 10
34999.99988180873
 20
59999.99998231562
 10
40000.00005239618
 20
59999.99998230646
 10
40000.00005239441
 20
55000.00013980179
  0
LWPOLYLINE
  5
F1
330
1F
100
AcDbEntity
  8
METRO3D_TILEGRID_POLY
100
AcDbPolyline
 90
        4
 70
     1
 43
0.0
 10
40000.00005239441
 20
55000.00013980179
 10
40000.00005239618
 20
59999.99998230646
 10
44999.9998948891
 20
59999.99998231257
 10
44999.99989488914
 20
55000.00013980179
  0
LWPOLYLINE
  5
F2
330
1F
100
AcDbEntity
  8
METRO3D_TILEGRID_POLY
100
AcDbPolyline
 90
        4
 70
     1
 43
0.0
 10
44999.99989488914
 20
55000.00013980179
 10
44999.9998948891
 20
59999.99998231257
 10
50000.00006547879
 20
59999.99998230952
 10
50000.00006547769
 20
55000.00013980179
  0
LWPOLYLINE
  5
F3
330
1F
100
AcDbEntity
  8
METRO3D_TILEGRID_POLY
100
AcDbPolyline
 90
        4
 70
     1
 43
0.0
 10
50000.00006547769
 20
55000.00013980179
 10
50000.00006547879
 20
59999.99998230952
 10
54999.99990797324
 20
59999.99998231257
 10
54999.99990797336
 20
55000.00013980179
  0
LWPOLYLINE
  5
F4
330
1F
100
AcDbEntity
  8
METRO3D_TILEGRID_POLY
100
AcDbPolyline
 90
        4
 70
     1
 43
0.0
 10
54999.99990797336
 20
55000.00013980179
 10
54999.99990797324
 20
59999.99998231257
 10
60000.00007856407
 20
59999.99998230646
 10
60000.00007856204
 20
55000.00013979874
  0
LWPOLYLINE
  5
F5
330
1F
100
AcDbEntity
  8
METRO3D_TILEGRID_POLY
100
AcDbPolyline
 90
        4
 70
     1
 43
0.0
 10
34999.99988180873
 20
59999.99998231562
 10
34999.99988180988
 20
65000.00015287863
 10
40000.00005239641
 20
65000.00015287863
 10
40000.00005239618
 20
59999.99998230646
  0
LWPOLYLINE
  5
F6
330
1F
100
AcDbEntity
  8
METRO3D_TILEGRID_POLY
100
AcDbPolyline
 90
        4
 70
     1
 43
0.0
 10
40000.00005239618
 20
59999.99998230646
 10
40000.00005239641
 20
65000.00015287863
 10
44999.99989489187
 20
65000.00015288474
 10
44999.9998948891
 20
59999.99998231257
  0
LWPOLYLINE
  5
F7
330
1F
100
AcDbEntity
  8
METRO3D_TILEGRID_POLY
100
AcDbPolyline
 90
        4
 70
     1
 43
0.0
 10
44999.9998948891
 20
59999.99998231257
 10
44999.99989489187
 20
65000.00015288474
 10
50000.00006547955
 20
65000.0001528939
 10
50000.00006547879
 20
59999.99998230952
  0
LWPOLYLINE
  5
F8
330
1F
100
AcDbEntity
  8
METRO3D_TILEGRID_POLY
100
AcDbPolyline
 90
        4
 70
     1
 43
0.0
 10
50000.00006547879
 20
59999.99998230952
 10
50000.00006547955
 20
65000.0001528939
 10
54999.99990797303
 20
65000.00015288169
 10
54999.99990797324
 20
59999.99998231257
  0
LWPOLYLINE
  5
F9
330
1F
100
AcDbEntity
  8
METRO3D_TILEGRID_POLY
100
AcDbPolyline
 90
        4
 70
     1
 43
0.0
 10
54999.99990797324
 20
59999.99998231257
 10
54999.99990797303
 20
65000.00015288169
 10
60000.0000785626
 20
65000.00015288474
 10
60000.00007856407
 20
59999.99998230646
  0
LWPOLYLINE
  5
FA
330
1F
100
AcDbEntity
  8
METRO3D_TILEGRID_POLY
100
AcDbPolyline
 90
        4
 70
     1
 43
0.0
 10
60000.00007856407
 20
59999.99998230646
 10
60000.0000785626
 20
65000.00015288474
 10
64999.99992105881
 20
65000.00015288169
 10
64999.99992105284
 20
59999.99998230646
  0
LWPOLYLINE
  5
FB
330
1F
100
AcDbEntity
  8
METRO3D_TILEGRID_POLY
100
AcDbPolyline
 90
        4
 70
     1
 43
0.0
 10
54999.99990797303
 20
65000.00015288169
 10
54999.99990797479
 20
69999.99999539857
 10
60000.00007856092
 20
69999.9999953894
 10
60000.0000785626
 20
65000.00015288474
  0
LWPOLYLINE
  5
FC
330
1F
100
AcDbEntity
  8
METRO3D_TILEGRID_POLY
100
AcDbPolyline
 90
        4
 70
     1
 43
0.0
 10
60000.0000785626
 20
65000.00015288474
 10
60000.00007856092
 20
69999.9999953894
 10
64999.99992105573
 20
69999.99999539246
 10
64999.99992105881
 20
65000.00015288169
  0
POINT
  5
133
330
1F
100
AcDbEntity
  8
TILECENTERS
100
AcDbPoint
 10
2499.999921311367
 20
2500.000153142369
 30
0.0
  0
POINT
  5
134
330
1F
100
AcDbEntity
  8
TILECENTERS
100
AcDbPoint
 10
7500.000091880622
 20
2500.000153133202
 30
0.0
  0
POINT
  5
135
330
1F
100
AcDbEntity
  8
TILECENTERS
100
AcDbPoint
 10
12499.99993439322
 20
2500.000153133202
 30
0.0
  0
POINT
  5
136
330
1F
100
AcDbEntity
  8
TILECENTERS
100
AcDbPoint
 10
17500.00010496873
 20
2500.000153139313
 30
0.0
  0
POINT
  5
137
330
1F
100
AcDbEntity
  8
TILECENTERS
100
AcDbPoint
 10
22499.99994747552
 20
2500.000153136258
 30
0.0
  0
POINT
  5
138
330
1F
100
AcDbEntity
  8
TILECENTERS
100
AcDbPoint
 10
27500.00011805345
 20
2500.000153133202
 30
0.0
  0
POINT
  5
139
330
1F
100
AcDbEntity
  8
TILECENTERS
100
AcDbPoint
 10
32499.99996055846
 20
2500.000153136258
 30
0.0
  0
POINT
  5
13A
330
1F
100
AcDbEntity
  8
TILECENTERS
100
AcDbPoint
 10
37500.00013114995
 20
2500.000153142369
 30
0.0
  0
POINT
  5
13B
330
1F
100
AcDbEntity
  8
TILECENTERS
100
AcDbPoint
 10
42499.99997364273
 20
2500.000153139313
 30
0.0
  0
POINT
  5
13C
330
1F
100
AcDbEntity
  8
TILECENTERS
100
AcDbPoint
 10
47500.00014423216
 20
2500.000153139313
 30
0.0
  0
POINT
  5
13D
330
1F
100
AcDbEntity
  8
TILECENTERS
100
AcDbPoint
 10
52499.99998672484
 20
2500.000153142369
 30
0.0
  0
POINT
  5
13E
330
1F
100
AcDbEntity
  8
TILECENTERS
100
AcDbPoint
 10
57500.00015731348
 20
2500.000153142369
 30
0.0
  0
POINT
  5
13F
330
1F
100
AcDbEntity
  8
TILECENTERS
100
AcDbPoint
 10
62499.9999998092
 20
2500.000153139313
 30
0.0
  0
POINT
  5
140
330
1F
100
AcDbEntity
  8
TILECENTERS
100
AcDbPoint
 10
67500.0001703975
 20
2500.000153133202
 30
0.0
  0
POINT
  5
141
330
1F
100
AcDbEntity
  8
TILECENTERS
100
AcDbPoint
 10
72500.00001289266
 20
2500.000153139313
 30
0.0
  0
POINT
  5
142
330
1F
100
AcDbEntity
  8
TILECENTERS
100
AcDbPoint
 10
77500.00018348281
 20
2500.000153139313
 30
0.0
  0
POINT
  5
143
330
1F
100
AcDbEntity
  8
TILECENTERS
100
AcDbPoint
 10
82500.00002597719
 20
2500.000153139313
 30
0.0
  0
POINT
  5
144
330
1F
100
AcDbEntity
  8
TILECENTERS
100
AcDbPoint
 10
2499.999921310592
 20
7499.999995650092
 30
0.0
  0
POINT
  5
145
330
1F
100
AcDbEntity
  8
TILECENTERS
100
AcDbPoint
 10
7500.000091882472
 20
7499.999995643981
 30
0.0
  0
POINT
  5
146
330
1F
100
AcDbEntity
  8
TILECENTERS
100
AcDbPoint
 10
12499.99993439384
 20
7499.999995643981
 30
0.0
  0
POINT
  5
147
330
1F
100
AcDbEntity
  8
TILECENTERS
100
AcDbPoint
 10
17500.00010496791
 20
7499.999995650092
 30
0.0
  0
POINT
  5
148
330
1F
100
AcDbEntity
  8
TILECENTERS
100
AcDbPoint
 10
22499.9999474781
 20
7499.999995647036
 30
0.0
  0
POINT
  5
149
330
1F
100
AcDbEntity
  8
TILECENTERS
100
AcDbPoint
 10
27500.0001180506
 20
7499.999995647036
 30
0.0
  0
POINT
  5
14A
330
1F
100
AcDbEntity
  8
TILECENTERS
100
AcDbPoint
 10
32499.9999605603
 20
7499.999995650092
 30
0.0
  0
POINT
  5
14B
330
1F
100
AcDbEntity
  8
TILECENTERS
100
AcDbPoint
 10
37500.00013114948
 20
7499.999995653147
 30
0.0
  0
POINT
  5
14C
330
1F
100
AcDbEntity
  8
TILECENTERS
100
AcDbPoint
 10
42499.99997364486
 20
7499.999995650092
 30
0.0
  0
POINT
  5
14D
330
1F
100
AcDbEntity
  8
TILECENTERS
100
AcDbPoint
 10
47500.00014423505
 20
7499.999995643981
 30
0.0
  0
POINT
  5
14E
330
1F
100
AcDbEntity
  8
TILECENTERS
100
AcDbPoint
 10
52499.99998672487
 20
7499.999995650092
 30
0.0
  0
POINT
  5
14F
330
1F
100
AcDbEntity
  8
TILECENTERS
100
AcDbPoint
 10
57500.00015731391
 20
7499.999995647036
 30
0.0
  0
POINT
  5
150
330
1F
100
AcDbEntity
  8
TILECENTERS
100
AcDbPoint
 10
62499.99999981154
 20
7499.999995640926
 30
0.0
  0
POINT
  5
151
330
1F
100
AcDbEntity
  8
TILECENTERS
100
AcDbPoint
 10
67500.0001703998
 20
7499.999995647036
 30
0.0
  0
POINT
  5
152
330
1F
100
AcDbEntity
  8
TILECENTERS
100
AcDbPoint
 10
72500.00001289473
 20
7499.999995647036
 30
0.0
  0
POINT
  5
153
330
1F
100
AcDbEntity
  8
TILECENTERS
100
AcDbPoint
 10
77500.00018348085
 20
7499.999995656203
 30
0.0
  0
POINT
  5
154
330
1F
100
AcDbEntity
  8
TILECENTERS
100
AcDbPoint
 10
82500.00002597611
 20
7499.999995643981
 30
0.0
  0
POINT
  5
155
330
1F
100
AcDbEntity
  8
TILECENTERS
100
AcDbPoint
 10
2499.999921309327
 20
12500.00016622531
 30
0.0
  0
POINT
  5
156
330
1F
100
AcDbEntity
  8
TILECENTERS
100
AcDbPoint
 10
7500.000091884799
 20
12500.0001662192
 30
0.0
  0
POINT
  5
157
330
1F
100
AcDbEntity
  8
TILECENTERS
100
AcDbPoint
 10
12499.99993439345
 20
12500.00016621309
 30
0.0
  0
POINT
  5
158
330
1F
100
AcDbEntity
  8
TILECENTERS
100
AcDbPoint
 10
17500.00010496567
 20
12500.0001662192
 30
0.0
  0
POINT
  5
159
330
1F
100
AcDbEntity
  8
TILECENTERS
100
AcDbPoint
 10
22499.9999474768
 20
12500.00016622531
 30
0.0
  0
POINT
  5
15A
330
1F
100
AcDbEntity
  8
TILECENTERS
100
AcDbPoint
 10
27500.00011805013
 20
12500.0001662192
 30
0.0
  0
POINT
  5
15B
330
1F
100
AcDbEntity
  8
TILECENTERS
100
AcDbPoint
 10
32499.99996055886
 20
12500.00016622226
 30
0.0
  0
POINT
  5
15C
330
1F
100
AcDbEntity
  8
TILECENTERS
100
AcDbPoint
 10
37500.00013114917
 20
12500.00016621309
 30
0.0
  0
POINT
  5
15D
330
1F
100
AcDbEntity
  8
TILECENTERS
100
AcDbPoint
 10
42499.99997364273
 20
12500.00016621615
 30
0.0
  0
POINT
  5
15E
330
1F
100
AcDbEntity
  8
TILECENTERS
100
AcDbPoint
 10
47500.00014423199
 20
12500.00016621615
 30
0.0
  0
POINT
  5
15F
330
1F
100
AcDbEntity
  8
TILECENTERS
100
AcDbPoint
 10
52499.99998672713
 20
12500.0001662192
 30
0.0
  0
POINT
  5
160
330
1F
100
AcDbEntity
  8
TILECENTERS
100
AcDbPoint
 10
57500.00015731427
 20
12500.0001662192
 30
0.0
  0
POINT
  5
161
330
1F
100
AcDbEntity
  8
TILECENTERS
100
AcDbPoint
 10
62499.99999981158
 20
12500.0001662192
 30
0.0
  0
POINT
  5
162
330
1F
100
AcDbEntity
  8
TILECENTERS
100
AcDbPoint
 10
67500.00017039801
 20
12500.00016622531
 30
0.0
  0
POINT
  5
163
330
1F
100
AcDbEntity
  8
TILECENTERS
100
AcDbPoint
 10
72500.00001289145
 20
12500.0001662192
 30
0.0
  0
POINT
  5
164
330
1F
100
AcDbEntity
  8
TILECENTERS
100
AcDbPoint
 10
77500.00018348018
 20
12500.0001662192
 30
0.0
  0
POINT
  5
165
330
1F
100
AcDbEntity
  8
TILECENTERS
100
AcDbPoint
 10
82500.00002597697
 20
12500.00016622531
 30
0.0
  0
POINT
  5
166
330
1F
100
AcDbEntity
  8
TILECENTERS
100
AcDbPoint
 10
2499.999921312167
 20
17500.00000873304
 30
0.0
  0
POINT
  5
167
330
1F
100
AcDbEntity
  8
TILECENTERS
100
AcDbPoint
 10
7500.000091884966
 20
17500.00000872998
 30
0.0
  0
POINT
  5
168
330
1F
100
AcDbEntity
  8
TILECENTERS
100
AcDbPoint
 10
12499.99993439239
 20
17500.00000872693
 30
0.0
  0
POINT
  5
169
330
1F
100
AcDbEntity
  8
TILECENTERS
100
AcDbPoint
 10
17500.00010496888
 20
17500.00000873609
 30
0.0
  0
POINT
  5
16A
330
1F
100
AcDbEntity
  8
TILECENTERS
100
AcDbPoint
 10
22499.99994747486
 20
17500.00000872998
 30
0.0
  0
POINT
  5
16B
330
1F
100
AcDbEntity
  8
TILECENTERS
100
AcDbPoint
 10
27500.00011805126
 20
17500.00000873304
 30
0.0
  0
POINT
  5
16C
330
1F
100
AcDbEntity
  8
TILECENTERS
100
AcDbPoint
 10
32499.99996055993
 20
17500.00000872387
 30
0.0
  0
POINT
  5
16D
330
1F
100
AcDbEntity
  8
TILECENTERS
100
AcDbPoint
 10
37500.00013114749
 20
17500.00000872693
 30
0.0
  0
POINT
  5
16E
330
1F
100
AcDbEntity
  8
TILECENTERS
100
AcDbPoint
 10
42499.99997364488
 20
17500.00000872998
 30
0.0
  0
POINT
  5
16F
330
1F
100
AcDbEntity
  8
TILECENTERS
100
AcDbPoint
 10
47500.00014423115
 20
17500.00000873609
 30
0.0
  0
POINT
  5
170
330
1F
100
AcDbEntity
  8
TILECENTERS
100
AcDbPoint
 10
52499.99998672577
 20
17500.00000872998
 30
0.0
  0
POINT
  5
171
330
1F
100
AcDbEntity
  8
TILECENTERS
100
AcDbPoint
 10
57500.00015731534
 20
17500.00000872998
 30
0.0
  0
POINT
  5
172
330
1F
100
AcDbEntity
  8
TILECENTERS
100
AcDbPoint
 10
62499.99999981326
 20
17500.00000873304
 30
0.0
  0
POINT
  5
173
330
1F
100
AcDbEntity
  8
TILECENTERS
100
AcDbPoint
 10
67500.0001703991
 20
17500.00000873609
 30
0.0
  0
POINT
  5
174
330
1F
100
AcDbEntity
  8
TILECENTERS
100
AcDbPoint
 10
72500.00001289295
 20
17500.00000872998
 30
0.0
  0
POINT
  5
175
330
1F
100
AcDbEntity
  8
TILECENTERS
100
AcDbPoint
 10
77500.00018348018
 20
17500.00000872998
 30
0.0
  0
POINT
  5
176
330
1F
100
AcDbEntity
  8
TILECENTERS
100
AcDbPoint
 10
82500.00002597566
 20
17500.00000873304
 30
0.0
  0
POINT
  5
177
330
1F
100
AcDbEntity
  8
TILECENTERS
100
AcDbPoint
 10
2499.999921311594
 20
22500.0001793052
 30
0.0
  0
POINT
  5
178
330
1F
100
AcDbEntity
  8
TILECENTERS
100
AcDbPoint
 10
7500.000091880049
 20
22500.0001792991
 30
0.0
  0
POINT
  5
179
330
1F
100
AcDbEntity
  8
TILECENTERS
100
AcDbPoint
 10
12499.99993439238
 20
22500.00017930215
 30
0.0
  0
POINT
  5
17A
330
1F
100
AcDbEntity
  8
TILECENTERS
100
AcDbPoint
 10
17500.00010496666
 20
22500.0001792991
 30
0.0
  0
POINT
  5
17B
330
1F
100
AcDbEntity
  8
TILECENTERS
100
AcDbPoint
 10
22499.99994747272
 20
22500.0001792991
 30
0.0
  0
POINT
  5
17C
330
1F
100
AcDbEntity
  8
TILECENTERS
100
AcDbPoint
 10
27500.0001180489
 20
22500.00017930215
 30
0.0
  0
POINT
  5
17D
330
1F
100
AcDbEntity
  8
TILECENTERS
100
AcDbPoint
 10
32499.99996055953
 20
22500.00017930826
 30
0.0
  0
POINT
  5
17E
330
1F
100
AcDbEntity
  8
TILECENTERS
100
AcDbPoint
 10
37500.00013114864
 20
22500.00017930826
 30
0.0
  0
POINT
  5
17F
330
1F
100
AcDbEntity
  8
TILECENTERS
100
AcDbPoint
 10
42499.99997364285
 20
22500.00017930215
 30
0.0
  0
POINT
  5
180
330
1F
100
AcDbEntity
  8
TILECENTERS
100
AcDbPoint
 10
47500.0001442323
 20
22500.0001793052
 30
0.0
  0
POINT
  5
181
330
1F
100
AcDbEntity
  8
TILECENTERS
100
AcDbPoint
 10
52499.99998672518
 20
22500.0001792991
 30
0.0
  0
POINT
  5
182
330
1F
100
AcDbEntity
  8
TILECENTERS
100
AcDbPoint
 10
57500.00015731566
 20
22500.00017930826
 30
0.0
  0
POINT
  5
183
330
1F
100
AcDbEntity
  8
TILECENTERS
100
AcDbPoint
 10
62499.99999980956
 20
22500.00017930215
 30
0.0
  0
POINT
  5
184
330
1F
100
AcDbEntity
  8
TILECENTERS
100
AcDbPoint
 10
67500.00017039731
 20
22500.0001793052
 30
0.0
  0
POINT
  5
185
330
1F
100
AcDbEntity
  8
TILECENTERS
100
AcDbPoint
 10
72500.00001289474
 20
22500.0001793052
 30
0.0
  0
POINT
  5
186
330
1F
100
AcDbEntity
  8
TILECENTERS
100
AcDbPoint
 10
77500.00018347753
 20
22500.00017930215
 30
0.0
  0
POINT
  5
187
330
1F
100
AcDbEntity
  8
TILECENTERS
100
AcDbPoint
 10
82500.00002597696
 20
22500.0001792991
 30
0.0
  0
POINT
  5
188
330
1F
100
AcDbEntity
  8
TILECENTERS
100
AcDbPoint
 10
2499.999921309338
 20
27500.00002181293
 30
0.0
  0
POINT
  5
189
330
1F
100
AcDbEntity
  8
TILECENTERS
100
AcDbPoint
 10
7500.000091888213
 20
27500.00002180682
 30
0.0
  0
POINT
  5
18A
330
1F
100
AcDbEntity
  8
TILECENTERS
100
AcDbPoint
 10
12499.99993439357
 20
27500.0000218221
 30
0.0
  0
POINT
  5
18B
330
1F
100
AcDbEntity
  8
TILECENTERS
100
AcDbPoint
 10
17500.00010496871
 20
27500.00002180987
 30
0.0
  0
POINT
  5
18C
330
1F
100
AcDbEntity
  8
TILECENTERS
100
AcDbPoint
 10
22499.99994747598
 20
27500.00002180987
 30
0.0
  0
POINT
  5
18D
330
1F
100
AcDbEntity
  8
TILECENTERS
100
AcDbPoint
 10
27500.00011805124
 20
27500.00002181293
 30
0.0
  0
POINT
  5
18E
330
1F
100
AcDbEntity
  8
TILECENTERS
100
AcDbPoint
 10
32499.99996056173
 20
27500.00002181904
 30
0.0
  0
POINT
  5
18F
330
1F
100
AcDbEntity
  8
TILECENTERS
100
AcDbPoint
 10
37500.00013114909
 20
27500.00002180987
 30
0.0
  0
POINT
  5
190
330
1F
100
AcDbEntity
  8
TILECENTERS
100
AcDbPoint
 10
42499.99997364266
 20
27500.00002181904
 30
0.0
  0
POINT
  5
191
330
1F
100
AcDbEntity
  8
TILECENTERS
100
AcDbPoint
 10
47500.00014423025
 20
27500.00002181293
 30
0.0
  0
POINT
  5
192
330
1F
100
AcDbEntity
  8
TILECENTERS
100
AcDbPoint
 10
52499.99998672633
 20
27500.00002180987
 30
0.0
  0
POINT
  5
193
330
1F
100
AcDbEntity
  8
TILECENTERS
100
AcDbPoint
 10
57500.0001573157
 20
27500.00002180987
 30
0.0
  0
POINT
  5
194
330
1F
100
AcDbEntity
  8
TILECENTERS
100
AcDbPoint
 10
62499.99999981037
 20
27500.00002181293
 30
0.0
  0
POINT
  5
195
330
1F
100
AcDbEntity
  8
TILECENTERS
100
AcDbPoint
 10
67500.0001704019
 20
27500.00002181598
 30
0.0
  0
POINT
  5
196
330
1F
100
AcDbEntity
  8
TILECENTERS
100
AcDbPoint
 10
72500.00001289153
 20
27500.00002181598
 30
0.0
  0
POINT
  5
197
330
1F
100
AcDbEntity
  8
TILECENTERS
100
AcDbPoint
 10
77500.00018348018
 20
27500.00002180987
 30
0.0
  0
POINT
  5
198
330
1F
100
AcDbEntity
  8
TILECENTERS
100
AcDbPoint
 10
82500.00002597761
 20
27500.00002181598
 30
0.0
  0
POINT
  5
199
330
1F
100
AcDbEntity
  8
TILECENTERS
100
AcDbPoint
 10
2499.999921311917
 20
32500.00019238509
 30
0.0
  0
POINT
  5
19A
330
1F
100
AcDbEntity
  8
TILECENTERS
100
AcDbPoint
 10
7500.00009188542
 20
32500.00019238509
 30
0.0
  0
POINT
  5
19B
330
1F
100
AcDbEntity
  8
TILECENTERS
100
AcDbPoint
 10
12499.99993439323
 20
32500.00019238204
 30
0.0
  0
POINT
  5
19C
330
1F
100
AcDbEntity
  8
TILECENTERS
100
AcDbPoint
 10
17500.00010496241
 20
32500.00019239121
 30
0.0
  0
POINT
  5
19D
330
1F
100
AcDbEntity
  8
TILECENTERS
100
AcDbPoint
 10
22499.99994747595
 20
32500.00019238509
 30
0.0
  0
POINT
  5
19E
330
1F
100
AcDbEntity
  8
TILECENTERS
100
AcDbPoint
 10
27500.00011805012
 20
32500.00019238815
 30
0.0
  0
POINT
  5
19F
330
1F
100
AcDbEntity
  8
TILECENTERS
100
AcDbPoint
 10
32499.99996055895
 20
32500.00019238815
 30
0.0
  0
POINT
  5
1A0
330
1F
100
AcDbEntity
  8
TILECENTERS
100
AcDbPoint
 10
37500.0001311485
 20
32500.00019238815
 30
0.0
  0
POINT
  5
1A1
330
1F
100
AcDbEntity
  8
TILECENTERS
100
AcDbPoint
 10
42499.99997364469
 20
32500.00019238815
 30
0.0
  0
POINT
  5
1A2
330
1F
100
AcDbEntity
  8
TILECENTERS
100
AcDbPoint
 10
47500.00014423285
 20
32500.00019237898
 30
0.0
  0
POINT
  5
1A3
330
1F
100
AcDbEntity
  8
TILECENTERS
100
AcDbPoint
 10
52499.99998673071
 20
32500.00019238509
 30
0.0
  0
POINT
  5
1A4
330
1F
100
AcDbEntity
  8
TILECENTERS
100
AcDbPoint
 10
57500.00015731396
 20
32500.00019237898
 30
0.0
  0
POINT
  5
1A5
330
1F
100
AcDbEntity
  8
TILECENTERS
100
AcDbPoint
 10
62499.99999981152
 20
32500.00019238204
 30
0.0
  0
POINT
  5
1A6
330
1F
100
AcDbEntity
  8
TILECENTERS
100
AcDbPoint
 10
67500.00017039877
 20
32500.00019238815
 30
0.0
  0
POINT
  5
1A7
330
1F
100
AcDbEntity
  8
TILECENTERS
100
AcDbPoint
 10
72500.0000128941
 20
32500.00019238204
 30
0.0
  0
POINT
  5
1A8
330
1F
100
AcDbEntity
  8
TILECENTERS
100
AcDbPoint
 10
77500.00018348207
 20
32500.00019238815
 30
0.0
  0
POINT
  5
1A9
330
1F
100
AcDbEntity
  8
TILECENTERS
100
AcDbPoint
 10
82500.0000259759
 20
32500.00019238815
 30
0.0
  0
POINT
  5
1AA
330
1F
100
AcDbEntity
  8
TILECENTERS
100
AcDbPoint
 10
2499.999921311308
 20
37500.00003490198
 30
0.0
  0
POINT
  5
1AB
330
1F
100
AcDbEntity
  8
TILECENTERS
100
AcDbPoint
 10
7500.000091883247
 20
37500.00003489587
 30
0.0
  0
POINT
  5
1AC
330
1F
100
AcDbEntity
  8
TILECENTERS
100
AcDbPoint
 10
12499.99993439471
 20
37500.00003489893
 30
0.0
  0
POINT
  5
1AD
330
1F
100
AcDbEntity
  8
TILECENTERS
100
AcDbPoint
 10
17500.00010496727
 20
37500.00003489587
 30
0.0
  0
POINT
  5
1AE
330
1F
100
AcDbEntity
  8
TILECENTERS
100
AcDbPoint
 10
22499.99994747715
 20
37500.00003489893
 30
0.0
  0
POINT
  5
1AF
330
1F
100
AcDbEntity
  8
TILECENTERS
100
AcDbPoint
 10
27500.00011804894
 20
37500.00003489587
 30
0.0
  0
POINT
  5
1B0
330
1F
100
AcDbEntity
  8
TILECENTERS
100
AcDbPoint
 10
32499.99996056023
 20
37500.00003489282
 30
0.0
  0
POINT
  5
1B1
330
1F
100
AcDbEntity
  8
TILECENTERS
100
AcDbPoint
 10
37500.00013115148
 20
37500.00003489893
 30
0.0
  0
POINT
  5
1B2
330
1F
100
AcDbEntity
  8
TILECENTERS
100
AcDbPoint
 10
42499.9999736419
 20
37500.00003489587
 30
0.0
  0
POINT
  5
1B3
330
1F
100
AcDbEntity
  8
TILECENTERS
100
AcDbPoint
 10
47500.0001442319
 20
37500.00003490198
 30
0.0
  0
POINT
  5
1B4
330
1F
100
AcDbEntity
  8
TILECENTERS
100
AcDbPoint
 10
52499.99998672566
 20
37500.00003489282
 30
0.0
  0
POINT
  5
1B5
330
1F
100
AcDbEntity
  8
TILECENTERS
100
AcDbPoint
 10
57500.00015731035
 20
37500.00003489587
 30
0.0
  0
POINT
  5
1B6
330
1F
100
AcDbEntity
  8
TILECENTERS
100
AcDbPoint
 10
62499.99999980822
 20
37500.00003489587
 30
0.0
  0
POINT
  5
1B7
330
1F
100
AcDbEntity
  8
TILECENTERS
100
AcDbPoint
 10
67500.0001703994
 20
37500.00003490198
 30
0.0
  0
POINT
  5
1B8
330
1F
100
AcDbEntity
  8
TILECENTERS
100
AcDbPoint
 10
72500.00001289201
 20
37500.00003489893
 30
0.0
  0
POINT
  5
1B9
330
1F
100
AcDbEntity
  8
TILECENTERS
100
AcDbPoint
 10
77500.00018348223
 20
37500.00003489587
 30
0.0
  0
POINT
  5
1BA
330
1F
100
AcDbEntity
  8
TILECENTERS
100
AcDbPoint
 10
82500.00002597648
 20
37500.00003489587
 30
0.0
  0
POINT
  5
1BB
330
1F
100
AcDbEntity
  8
TILECENTERS
100
AcDbPoint
 10
2499.999921310878
 20
42500.00020546193
 30
0.0
  0
POINT
  5
1BC
330
1F
100
AcDbEntity
  8
TILECENTERS
100
AcDbPoint
 10
7500.000091884775
 20
42500.00020547109
 30
0.0
  0
POINT
  5
1BD
330
1F
100
AcDbEntity
  8
TILECENTERS
100
AcDbPoint
 10
12499.99993439411
 20
42500.00020546804
 30
0.0
  0
POINT
  5
1BE
330
1F
100
AcDbEntity
  8
TILECENTERS
100
AcDbPoint
 10
17500.00010496888
 20
42500.00020547109
 30
0.0
  0
POINT
  5
1BF
330
1F
100
AcDbEntity
  8
TILECENTERS
100
AcDbPoint
 10
22499.99994747548
 20
42500.00020546193
 30
0.0
  0
POINT
  5
1C0
330
1F
100
AcDbEntity
  8
TILECENTERS
100
AcDbPoint
 10
27500.00011805027
 20
42500.0002054772
 30
0.0
  0
POINT
  5
1C1
330
1F
100
AcDbEntity
  8
TILECENTERS
100
AcDbPoint
 10
32499.99996056111
 20
42500.00020547109
 30
0.0
  0
POINT
  5
1C2
330
1F
100
AcDbEntity
  8
TILECENTERS
100
AcDbPoint
 10
37500.00013115
 20
42500.00020546804
 30
0.0
  0
POINT
  5
1C3
330
1F
100
AcDbEntity
  8
TILECENTERS
100
AcDbPoint
 10
42499.99997364689
 20
42500.00020546499
 30
0.0
  0
POINT
  5
1C4
330
1F
100
AcDbEntity
  8
TILECENTERS
100
AcDbPoint
 10
47500.00014423309
 20
42500.00020547109
 30
0.0
  0
POINT
  5
1C5
330
1F
100
AcDbEntity
  8
TILECENTERS
100
AcDbPoint
 10
52499.99998672694
 20
42500.00020547109
 30
0.0
  0
POINT
  5
1C6
330
1F
100
AcDbEntity
  8
TILECENTERS
100
AcDbPoint
 10
57500.00015731726
 20
42500.00020546804
 30
0.0
  0
POINT
  5
1C7
330
1F
100
AcDbEntity
  8
TILECENTERS
100
AcDbPoint
 10
62499.99999980944
 20
42500.00020546499
 30
0.0
  0
POINT
  5
1C8
330
1F
100
AcDbEntity
  8
TILECENTERS
100
AcDbPoint
 10
67500.00017039887
 20
42500.00020546499
 30
0.0
  0
POINT
  5
1C9
330
1F
100
AcDbEntity
  8
TILECENTERS
100
AcDbPoint
 10
72500.000012894
 20
42500.00020547415
 30
0.0
  0
POINT
  5
1CA
330
1F
100
AcDbEntity
  8
TILECENTERS
100
AcDbPoint
 10
77500.00018348238
 20
42500.00020547415
 30
0.0
  0
POINT
  5
1CB
330
1F
100
AcDbEntity
  8
TILECENTERS
100
AcDbPoint
 10
82500.00002597757
 20
42500.00020547109
 30
0.0
  0
POINT
  5
1CC
330
1F
100
AcDbEntity
  8
TILECENTERS
100
AcDbPoint
 10
2499.999921313468
 20
47500.00004798188
 30
0.0
  0
POINT
  5
1CD
330
1F
100
AcDbEntity
  8
TILECENTERS
100
AcDbPoint
 10
7500.000091884525
 20
47500.00004798188
 30
0.0
  0
POINT
  5
1CE
330
1F
100
AcDbEntity
  8
TILECENTERS
100
AcDbPoint
 10
12499.99993439469
 20
47500.00004797271
 30
0.0
  0
POINT
  5
1CF
330
1F
100
AcDbEntity
  8
TILECENTERS
100
AcDbPoint
 10
17500.0001049689
 20
47500.00004797882
 30
0.0
  0
POINT
  5
1D0
330
1F
100
AcDbEntity
  8
TILECENTERS
100
AcDbPoint
 10
22499.99994747776
 20
47500.00004798188
 30
0.0
  0
POINT
  5
1D1
330
1F
100
AcDbEntity
  8
TILECENTERS
100
AcDbPoint
 10
27500.0001180492
 20
47500.00004797882
 30
0.0
  0
POINT
  5
1D2
330
1F
100
AcDbEntity
  8
TILECENTERS
100
AcDbPoint
 10
32499.99996055859
 20
47500.00004797577
 30
0.0
  0
POINT
  5
1D3
330
1F
100
AcDbEntity
  8
TILECENTERS
100
AcDbPoint
 10
37500.00013114976
 20
47500.00004797577
 30
0.0
  0
POINT
  5
1D4
330
1F
100
AcDbEntity
  8
TILECENTERS
100
AcDbPoint
 10
42499.99997364311
 20
47500.00004798188
 30
0.0
  0
POINT
  5
1D5
330
1F
100
AcDbEntity
  8
TILECENTERS
100
AcDbPoint
 10
47500.00014423209
 20
47500.00004797882
 30
0.0
  0
POINT
  5
1D6
330
1F
100
AcDbEntity
  8
TILECENTERS
100
AcDbPoint
 10
52499.99998672532
 20
47500.00004798188
 30
0.0
  0
POINT
  5
1D7
330
1F
100
AcDbEntity
  8
TILECENTERS
100
AcDbPoint
 10
57500.00015731348
 20
47500.00004798188
 30
0.0
  0
POINT
  5
1D8
330
1F
100
AcDbEntity
  8
TILECENTERS
100
AcDbPoint
 10
62499.99999980953
 20
47500.00004798188
 30
0.0
  0
POINT
  5
1D9
330
1F
100
AcDbEntity
  8
TILECENTERS
100
AcDbPoint
 10
67500.00017039693
 20
47500.00004797271
 30
0.0
  0
POINT
  5
1DA
330
1F
100
AcDbEntity
  8
TILECENTERS
100
AcDbPoint
 10
72500.00001289157
 20
47500.00004798188
 30
0.0
  0
POINT
  5
1DB
330
1F
100
AcDbEntity
  8
TILECENTERS
100
AcDbPoint
 10
77500.00018348289
 20
47500.00004797577
 30
0.0
  0
POINT
  5
1DC
330
1F
100
AcDbEntity
  8
TILECENTERS
100
AcDbPoint
 10
82500.00002597456
 20
47500.00004798188
 30
0.0
  0
POINT
  5
1DD
330
1F
100
AcDbEntity
  8
TILECENTERS
100
AcDbPoint
 10
2499.999921308909
 20
52500.00021854793
 30
0.0
  0
POINT
  5
1DE
330
1F
100
AcDbEntity
  8
TILECENTERS
100
AcDbPoint
 10
7500.000091885157
 20
52500.00021854793
 30
0.0
  0
POINT
  5
1DF
330
1F
100
AcDbEntity
  8
TILECENTERS
100
AcDbPoint
 10
12499.99993439485
 20
52500.00021855099
 30
0.0
  0
POINT
  5
1E0
330
1F
100
AcDbEntity
  8
TILECENTERS
100
AcDbPoint
 10
17500.0001049684
 20
52500.0002185571
 30
0.0
  0
POINT
  5
1E1
330
1F
100
AcDbEntity
  8
TILECENTERS
100
AcDbPoint
 10
22499.99994747755
 20
52500.00021854488
 30
0.0
  0
POINT
  5
1E2
330
1F
100
AcDbEntity
  8
TILECENTERS
100
AcDbPoint
 10
27500.0001180521
 20
52500.00021855099
 30
0.0
  0
POINT
  5
1E3
330
1F
100
AcDbEntity
  8
TILECENTERS
100
AcDbPoint
 10
32499.99996056172
 20
52500.00021855099
 30
0.0
  0
POINT
  5
1E4
330
1F
100
AcDbEntity
  8
TILECENTERS
100
AcDbPoint
 10
37500.00013114881
 20
52500.00021854488
 30
0.0
  0
POINT
  5
1E5
330
1F
100
AcDbEntity
  8
TILECENTERS
100
AcDbPoint
 10
42499.99997364164
 20
52500.00021855404
 30
0.0
  0
POINT
  5
1E6
330
1F
100
AcDbEntity
  8
TILECENTERS
100
AcDbPoint
 10
47500.00014423218
 20
52500.00021855404
 30
0.0
  0
POINT
  5
1E7
330
1F
100
AcDbEntity
  8
TILECENTERS
100
AcDbPoint
 10
52499.99998672687
 20
52500.0002185571
 30
0.0
  0
POINT
  5
1E8
330
1F
100
AcDbEntity
  8
TILECENTERS
100
AcDbPoint
 10
57500.00015731126
 20
52500.0002185571
 30
0.0
  0
POINT
  5
1E9
330
1F
100
AcDbEntity
  8
TILECENTERS
100
AcDbPoint
 10
62499.99999980979
 20
52500.00021855404
 30
0.0
  0
POINT
  5
1EA
330
1F
100
AcDbEntity
  8
TILECENTERS
100
AcDbPoint
 10
67500.00017039746
 20
52500.0002185571
 30
0.0
  0
POINT
  5
1EB
330
1F
100
AcDbEntity
  8
TILECENTERS
100
AcDbPoint
 10
72500.00001289138
 20
52500.00021855099
 30
0.0
  0
POINT
  5
1EC
330
1F
100
AcDbEntity
  8
TILECENTERS
100
AcDbPoint
 10
77500.00018348264
 20
52500.00021855404
 30
0.0
  0
POINT
  5
1ED
330
1F
100
AcDbEntity
  8
TILECENTERS
100
AcDbPoint
 10
82500.00002597626
 20
52500.00021855099
 30
0.0
  0
POINT
  5
1EE
330
1F
100
AcDbEntity
  8
TILECENTERS
100
AcDbPoint
 10
2499.999921310962
 20
57500.00006106176
 30
0.0
  0
POINT
  5
1EF
330
1F
100
AcDbEntity
  8
TILECENTERS
100
AcDbPoint
 10
7500.000091884728
 20
57500.00006106788
 30
0.0
  0
POINT
  5
1F0
330
1F
100
AcDbEntity
  8
TILECENTERS
100
AcDbPoint
 10
12499.99993439413
 20
57500.00006107093
 30
0.0
  0
POINT
  5
1F1
330
1F
100
AcDbEntity
  8
TILECENTERS
100
AcDbPoint
 10
17500.00010496843
 20
57500.00006106482
 30
0.0
  0
POINT
  5
1F2
330
1F
100
AcDbEntity
  8
TILECENTERS
100
AcDbPoint
 10
22499.99994747719
 20
57500.00006105871
 30
0.0
  0
POINT
  5
1F3
330
1F
100
AcDbEntity
  8
TILECENTERS
100
AcDbPoint
 10
27500.00011804911
 20
57500.00006106176
 30
0.0
  0
POINT
  5
1F4
330
1F
100
AcDbEntity
  8
TILECENTERS
100
AcDbPoint
 10
32499.99996055865
 20
57500.00006106176
 30
0.0
  0
POINT
  5
1F5
330
1F
100
AcDbEntity
  8
TILECENTERS
100
AcDbPoint
 10
37500.00013114699
 20
57500.00006106176
 30
0.0
  0
POINT
  5
1F6
330
1F
100
AcDbEntity
  8
TILECENTERS
100
AcDbPoint
 10
42499.99997364383
 20
57500.00006106788
 30
0.0
  0
POINT
  5
1F7
330
1F
100
AcDbEntity
  8
TILECENTERS
100
AcDbPoint
 10
47500.000144233
 20
57500.00006106176
 30
0.0
  0
POINT
  5
1F8
330
1F
100
AcDbEntity
  8
TILECENTERS
100
AcDbPoint
 10
52499.99998672914
 20
57500.00006105871
 30
0.0
  0
POINT
  5
1F9
330
1F
100
AcDbEntity
  8
TILECENTERS
100
AcDbPoint
 10
57500.00015731651
 20
57500.00006106482
 30
0.0
  0
POINT
  5
1FA
330
1F
100
AcDbEntity
  8
TILECENTERS
100
AcDbPoint
 10
62499.99999981072
 20
57500.00006106788
 30
0.0
  0
POINT
  5
1FB
330
1F
100
AcDbEntity
  8
TILECENTERS
100
AcDbPoint
 10
67500.00017039917
 20
57500.00006106482
 30
0.0
  0
POINT
  5
1FC
330
1F
100
AcDbEntity
  8
TILECENTERS
100
AcDbPoint
 10
72500.00001289348
 20
57500.00006106176
 30
0.0
  0
POINT
  5
1FD
330
1F
100
AcDbEntity
  8
TILECENTERS
100
AcDbPoint
 10
77500.00018347998
 20
57500.00006105871
 30
0.0
  0
POINT
  5
1FE
330
1F
100
AcDbEntity
  8
TILECENTERS
100
AcDbPoint
 10
82500.00002597529
 20
57500.00006106176
 30
0.0
  0
POINT
  5
1FF
330
1F
100
AcDbEntity
  8
TILECENTERS
100
AcDbPoint
 10
2499.999921309565
 20
62500.00023163393
 30
0.0
  0
POINT
  5
200
330
1F
100
AcDbEntity
  8
TILECENTERS
100
AcDbPoint
 10
7500.000091885479
 20
62500.00023164004
 30
0.0
  0
POINT
  5
201
330
1F
100
AcDbEntity
  8
TILECENTERS
100
AcDbPoint
 10
12499.99993439338
 20
62500.00023163699
 30
0.0
  0
POINT
  5
202
330
1F
100
AcDbEntity
  8
TILECENTERS
100
AcDbPoint
 10
17500.00010497165
 20
62500.00023164004
 30
0.0
  0
POINT
  5
203
330
1F
100
AcDbEntity
  8
TILECENTERS
100
AcDbPoint
 10
22499.99994747803
 20
62500.00023164004
 30
0.0
  0
POINT
  5
204
330
1F
100
AcDbEntity
  8
TILECENTERS
100
AcDbPoint
 10
27500.00011805042
 20
62500.00023164004
 30
0.0
  0
POINT
  5
205
330
1F
100
AcDbEntity
  8
TILECENTERS
100
AcDbPoint
 10
32499.99996056164
 20
62500.00023164004
 30
0.0
  0
POINT
  5
206
330
1F
100
AcDbEntity
  8
TILECENTERS
100
AcDbPoint
 10
37500.00013114833
 20
62500.00023163393
 30
0.0
  0
POINT
  5
207
330
1F
100
AcDbEntity
  8
TILECENTERS
100
AcDbPoint
 10
42499.99997364195
 20
62500.00023163087
 30
0.0
  0
POINT
  5
208
330
1F
100
AcDbEntity
  8
TILECENTERS
100
AcDbPoint
 10
47500.00014423206
 20
62500.00023164004
 30
0.0
  0
POINT
  5
209
330
1F
100
AcDbEntity
  8
TILECENTERS
100
AcDbPoint
 10
52499.99998672487
 20
62500.00023163699
 30
0.0
  0
POINT
  5
20A
330
1F
100
AcDbEntity
  8
TILECENTERS
100
AcDbPoint
 10
57500.00015731381
 20
62500.00023163699
 30
0.0
  0
POINT
  5
20B
330
1F
100
AcDbEntity
  8
TILECENTERS
100
AcDbPoint
 10
62499.99999980929
 20
62500.00023163393
 30
0.0
  0
POINT
  5
20C
330
1F
100
AcDbEntity
  8
TILECENTERS
100
AcDbPoint
 10
67500.0001703976
 20
62500.00023164004
 30
0.0
  0
POINT
  5
20D
330
1F
100
AcDbEntity
  8
TILECENTERS
100
AcDbPoint
 10
72500.00001289207
 20
62500.00023164004
 30
0.0
  0
POINT
  5
20E
330
1F
100
AcDbEntity
  8
TILECENTERS
100
AcDbPoint
 10
77500.0001834814
 20
62500.00023164004
 30
0.0
  0
POINT
  5
20F
330
1F
100
AcDbEntity
  8
TILECENTERS
100
AcDbPoint
 10
82500.00002597709
 20
62500.00023163699
 30
0.0
  0
POINT
  5
210
330
1F
100
AcDbEntity
  8
TILECENTERS
100
AcDbPoint
 10
2499.999921308825
 20
67500.00007414471
 30
0.0
  0
POINT
  5
211
330
1F
100
AcDbEntity
  8
TILECENTERS
100
AcDbPoint
 10
7500.00009188567
 20
67500.00007414777
 30
0.0
  0
POINT
  5
212
330
1F
100
AcDbEntity
  8
TILECENTERS
100
AcDbPoint
 10
12499.99993439527
 20
67500.0000741386
 30
0.0
  0
POINT
  5
213
330
1F
100
AcDbEntity
  8
TILECENTERS
100
AcDbPoint
 10
17500.00010496819
 20
67500.00007414471
 30
0.0
  0
POINT
  5
214
330
1F
100
AcDbEntity
  8
TILECENTERS
100
AcDbPoint
 10
22499.99994747805
 20
67500.00007414777
 30
0.0
  0
POINT
  5
215
330
1F
100
AcDbEntity
  8
TILECENTERS
100
AcDbPoint
 10
27500.00011805167
 20
67500.00007414166
 30
0.0
  0
POINT
  5
216
330
1F
100
AcDbEntity
  8
TILECENTERS
100
AcDbPoint
 10
32499.99996056046
 20
67500.00007414166
 30
0.0
  0
POINT
  5
217
330
1F
100
AcDbEntity
  8
TILECENTERS
100
AcDbPoint
 10
37500.00013114702
 20
67500.00007414166
 30
0.0
  0
POINT
  5
218
330
1F
100
AcDbEntity
  8
TILECENTERS
100
AcDbPoint
 10
42499.99997364156
 20
67500.00007414166
 30
0.0
  0
POINT
  5
219
330
1F
100
AcDbEntity
  8
TILECENTERS
100
AcDbPoint
 10
47500.00014423278
 20
67500.00007414166
 30
0.0
  0
POINT
  5
21A
330
1F
100
AcDbEntity
  8
TILECENTERS
100
AcDbPoint
 10
52499.99998672539
 20
67500.00007414166
 30
0.0
  0
POINT
  5
21B
330
1F
100
AcDbEntity
  8
TILECENTERS
100
AcDbPoint
 10
57500.00015731544
 20
67500.00007414471
 30
0.0
  0
POINT
  5
21C
330
1F
100
AcDbEntity
  8
TILECENTERS
100
AcDbPoint
 10
62499.99999980856
 20
67500.0000741386
 30
0.0
  0
POINT
  5
21D
330
1F
100
AcDbEntity
  8
TILECENTERS
100
AcDbPoint
 10
67500.00017039695
 20
67500.00007414166
 30
0.0
  0
POINT
  5
21E
330
1F
100
AcDbEntity
  8
TILECENTERS
100
AcDbPoint
 10
72500.00001289255
 20
67500.00007415083
 30
0.0
  0
POINT
  5
21F
330
1F
100
AcDbEntity
  8
TILECENTERS
100
AcDbPoint
 10
77500.00018348322
 20
67500.00007414471
 30
0.0
  0
POINT
  5
220
330
1F
100
AcDbEntity
  8
TILECENTERS
100
AcDbPoint
 10
82500.00002597886
 20
67500.00007414777
 30
0.0
  0
POINT
  5
221
330
1F
100
AcDbEntity
  8
TILECENTERS
100
AcDbPoint
 10
2499.99992130916
 20
72499.99991664021
 30
0.0
  0
POINT
  5
222
330
1F
100
AcDbEntity
  8
TILECENTERS
100
AcDbPoint
 10
7500.000091882687
 20
72499.99991664632
 30
0.0
  0
POINT
  5
223
330
1F
100
AcDbEntity
  8
TILECENTERS
100
AcDbPoint
 10
12499.99993439406
 20
72499.99991664021
 30
0.0
  0
POINT
  5
224
330
1F
100
AcDbEntity
  8
TILECENTERS
100
AcDbPoint
 10
17500.00010496643
 20
72499.99991664021
 30
0.0
  0
POINT
  5
225
330
1F
100
AcDbEntity
  8
TILECENTERS
100
AcDbPoint
 10
22499.99994747582
 20
72499.99991664021
 30
0.0
  0
POINT
  5
226
330
1F
100
AcDbEntity
  8
TILECENTERS
100
AcDbPoint
 10
27500.0001180518
 20
72499.99991663716
 30
0.0
  0
POINT
  5
227
330
1F
100
AcDbEntity
  8
TILECENTERS
100
AcDbPoint
 10
32499.99996056132
 20
72499.99991664021
 30
0.0
  0
POINT
  5
228
330
1F
100
AcDbEntity
  8
TILECENTERS
100
AcDbPoint
 10
37500.00013114981
 20
72499.99991664021
 30
0.0
  0
POINT
  5
229
330
1F
100
AcDbEntity
  8
TILECENTERS
100
AcDbPoint
 10
42499.999973643
 20
72499.99991664632
 30
0.0
  0
POINT
  5
22A
330
1F
100
AcDbEntity
  8
TILECENTERS
100
AcDbPoint
 10
47500.00014423233
 20
72499.99991664327
 30
0.0
  0
POINT
  5
22B
330
1F
100
AcDbEntity
  8
TILECENTERS
100
AcDbPoint
 10
52499.99998672148
 20
72499.99991664327
 30
0.0
  0
POINT
  5
22C
330
1F
100
AcDbEntity
  8
TILECENTERS
100
AcDbPoint
 10
57500.0001573162
 20
72499.99991663716
 30
0.0
  0
POINT
  5
22D
330
1F
100
AcDbEntity
  8
TILECENTERS
100
AcDbPoint
 10
62499.99999981053
 20
72499.99991664938
 30
0.0
  0
POINT
  5
22E
330
1F
100
AcDbEntity
  8
TILECENTERS
100
AcDbPoint
 10
67500.00017039977
 20
72499.99991664327
 30
0.0
  0
POINT
  5
22F
330
1F
100
AcDbEntity
  8
TILECENTERS
100
AcDbPoint
 10
72500.00001289452
 20
72499.99991664021
 30
0.0
  0
POINT
  5
230
330
1F
100
AcDbEntity
  8
TILECENTERS
100
AcDbPoint
 10
77500.00018348188
 20
72499.99991664327
 30
0.0
  0
POINT
  5
231
330
1F
100
AcDbEntity
  8
TILECENTERS
100
AcDbPoint
 10
82500.00002598122
 20
72499.99991664021
 30
0.0
  0
POINT
  5
232
330
1F
100
AcDbEntity
  8
TILECORNERS
100
AcDbPoint
 10
0.000000064798384
 20
-0.0000961851027387
 30
0.0
  0
POINT
  5
233
330
1F
100
AcDbEntity
  8
TILECORNERS
100
AcDbPoint
 10
0.000000062399328
 20
5000.000074380953
 30
0.0
  0
POINT
  5
234
330
1F
100
AcDbEntity
  8
TILECORNERS
100
AcDbPoint
 10
4999.999842556302
 20
5000.000074380953
 30
0.0
  0
POINT
  5
235
330
1F
100
AcDbEntity
  8
TILECORNERS
100
AcDbPoint
 10
4999.99984255882
 20
-0.0000961942692811
 30
0.0
  0
POINT
  5
236
330
1F
100
AcDbEntity
  8
TILECORNERS
100
AcDbPoint
 10
10000.00001314784
 20
5000.000074384008
 30
0.0
  0
POINT
  5
237
330
1F
100
AcDbEntity
  8
TILECORNERS
100
AcDbPoint
 10
10000.00001314724
 20
-0.000096191213767
 30
0.0
  0
POINT
  5
238
330
1F
100
AcDbEntity
  8
TILECORNERS
100
AcDbPoint
 10
14999.99985564042
 20
5000.000074384008
 30
0.0
  0
POINT
  5
239
330
1F
100
AcDbEntity
  8
TILECORNERS
100
AcDbPoint
 10
14999.99985564233
 20
-0.0000961881582528
 30
0.0
  0
POINT
  5
23A
330
1F
100
AcDbEntity
  8
TILECORNERS
100
AcDbPoint
 10
20000.00002622944
 20
5000.000074390119
 30
0.0
  0
POINT
  5
23B
330
1F
100
AcDbEntity
  8
TILECORNERS
100
AcDbPoint
 10
20000.00002622911
 20
-0.0000961851027387
 30
0.0
  0
POINT
  5
23C
330
1F
100
AcDbEntity
  8
TILECORNERS
100
AcDbPoint
 10
24999.99986872418
 20
5000.000074384008
 30
0.0
  0
POINT
  5
23D
330
1F
100
AcDbEntity
  8
TILECORNERS
100
AcDbPoint
 10
24999.99986872576
 20
-0.0000961942692811
 30
0.0
  0
POINT
  5
23E
330
1F
100
AcDbEntity
  8
TILECORNERS
100
AcDbPoint
 10
30000.00003931255
 20
5000.000074387064
 30
0.0
  0
POINT
  5
23F
330
1F
100
AcDbEntity
  8
TILECORNERS
100
AcDbPoint
 10
30000.0000393132
 20
-0.0000961881582528
 30
0.0
  0
POINT
  5
240
330
1F
100
AcDbEntity
  8
TILECORNERS
100
AcDbPoint
 10
34999.99988180849
 20
5000.000074384008
 30
0.0
  0
POINT
  5
241
330
1F
100
AcDbEntity
  8
TILECORNERS
100
AcDbPoint
 10
34999.99988180728
 20
-0.0000961851027387
 30
0.0
  0
POINT
  5
242
330
1F
100
AcDbEntity
  8
TILECORNERS
100
AcDbPoint
 10
40000.00005239503
 20
5000.000074387064
 30
0.0
  0
POINT
  5
243
330
1F
100
AcDbEntity
  8
TILECORNERS
100
AcDbPoint
 10
40000.00005239462
 20
-0.0000961820472245
 30
0.0
  0
POINT
  5
244
330
1F
100
AcDbEntity
  8
TILECORNERS
100
AcDbPoint
 10
44999.99989488931
 20
5000.000074387064
 30
0.0
  0
POINT
  5
245
330
1F
100
AcDbEntity
  8
TILECORNERS
100
AcDbPoint
 10
44999.99989489084
 20
-0.0000961942692811
 30
0.0
  0
POINT
  5
246
330
1F
100
AcDbEntity
  8
TILECORNERS
100
AcDbPoint
 10
50000.00006547922
 20
5000.000074387064
 30
0.0
  0
POINT
  5
247
330
1F
100
AcDbEntity
  8
TILECORNERS
100
AcDbPoint
 10
50000.00006548026
 20
-0.0000961881582528
 30
0.0
  0
POINT
  5
248
330
1F
100
AcDbEntity
  8
TILECORNERS
100
AcDbPoint
 10
54999.99990797346
 20
5000.000074377897
 30
0.0
  0
POINT
  5
249
330
1F
100
AcDbEntity
  8
TILECORNERS
100
AcDbPoint
 10
54999.9999079737
 20
-0.000096191213767
 30
0.0
  0
POINT
  5
24A
330
1F
100
AcDbEntity
  8
TILECORNERS
100
AcDbPoint
 10
60000.00007856374
 20
5000.000074380953
 30
0.0
  0
POINT
  5
24B
330
1F
100
AcDbEntity
  8
TILECORNERS
100
AcDbPoint
 10
60000.00007856283
 20
-0.0000961881582528
 30
0.0
  0
POINT
  5
24C
330
1F
100
AcDbEntity
  8
TILECORNERS
100
AcDbPoint
 10
64999.99992105606
 20
5000.000074384008
 30
0.0
  0
POINT
  5
24D
330
1F
100
AcDbEntity
  8
TILECORNERS
100
AcDbPoint
 10
64999.99992105573
 20
-0.0000961973247953
 30
0.0
  0
POINT
  5
24E
330
1F
100
AcDbEntity
  8
TILECORNERS
100
AcDbPoint
 10
70000.00009164526
 20
5000.000074387064
 30
0.0
  0
POINT
  5
24F
330
1F
100
AcDbEntity
  8
TILECORNERS
100
AcDbPoint
 10
70000.00009164716
 20
-0.0000961973247953
 30
0.0
  0
POINT
  5
250
330
1F
100
AcDbEntity
  8
TILECORNERS
100
AcDbPoint
 10
74999.99993414016
 20
5000.000074387064
 30
0.0
  0
POINT
  5
251
330
1F
100
AcDbEntity
  8
TILECORNERS
100
AcDbPoint
 10
74999.99993414106
 20
-0.000096191213767
 30
0.0
  0
POINT
  5
252
330
1F
100
AcDbEntity
  8
TILECORNERS
100
AcDbPoint
 10
80000.00010472753
 20
5000.000074380953
 30
0.0
  0
POINT
  5
253
330
1F
100
AcDbEntity
  8
TILECORNERS
100
AcDbPoint
 10
80000.00010472772
 20
-0.0000961881582528
 30
0.0
  0
POINT
  5
254
330
1F
100
AcDbEntity
  8
TILECORNERS
100
AcDbPoint
 10
84999.99994722451
 20
5000.000074380953
 30
0.0
  0
POINT
  5
255
330
1F
100
AcDbEntity
  8
TILECORNERS
100
AcDbPoint
 10
84999.99994722294
 20
-0.0000961881582528
 30
0.0
  0
POINT
  5
256
330
1F
100
AcDbEntity
  8
TILECORNERS
100
AcDbPoint
 10
0.0000000615519002
 20
9999.999916894787
 30
0.0
  0
POINT
  5
257
330
1F
100
AcDbEntity
  8
TILECORNERS
100
AcDbPoint
 10
4999.999842558999
 20
9999.999916894787
 30
0.0
  0
POINT
  5
258
330
1F
100
AcDbEntity
  8
TILECORNERS
100
AcDbPoint
 10
10000.00001314765
 20
9999.999916900899
 30
0.0
  0
POINT
  5
259
330
1F
100
AcDbEntity
  8
TILECORNERS
100
AcDbPoint
 10
14999.99985563968
 20
9999.999916900899
 30
0.0
  0
POINT
  5
25A
330
1F
100
AcDbEntity
  8
TILECORNERS
100
AcDbPoint
 10
20000.0000262307
 20
9999.999916897843
 30
0.0
  0
POINT
  5
25B
330
1F
100
AcDbEntity
  8
TILECORNERS
100
AcDbPoint
 10
24999.99986872493
 20
9999.999916894787
 30
0.0
  0
POINT
  5
25C
330
1F
100
AcDbEntity
  8
TILECORNERS
100
AcDbPoint
 10
30000.00003931397
 20
9999.999916897843
 30
0.0
  0
POINT
  5
25D
330
1F
100
AcDbEntity
  8
TILECORNERS
100
AcDbPoint
 10
34999.99988180656
 20
9999.999916903955
 30
0.0
  0
POINT
  5
25E
330
1F
100
AcDbEntity
  8
TILECORNERS
100
AcDbPoint
 10
40000.00005239307
 20
9999.999916894787
 30
0.0
  0
POINT
  5
25F
330
1F
100
AcDbEntity
  8
TILECORNERS
100
AcDbPoint
 10
44999.99989489218
 20
9999.999916897843
 30
0.0
  0
POINT
  5
260
330
1F
100
AcDbEntity
  8
TILECORNERS
100
AcDbPoint
 10
50000.00006547836
 20
9999.999916894787
 30
0.0
  0
POINT
  5
261
330
1F
100
AcDbEntity
  8
TILECORNERS
100
AcDbPoint
 10
54999.99990797236
 20
9999.999916894787
 30
0.0
  0
POINT
  5
262
330
1F
100
AcDbEntity
  8
TILECORNERS
100
AcDbPoint
 10
60000.00007856271
 20
9999.999916894787
 30
0.0
  0
POINT
  5
263
330
1F
100
AcDbEntity
  8
TILECORNERS
100
AcDbPoint
 10
64999.99992105712
 20
9999.999916891733
 30
0.0
  0
POINT
  5
264
330
1F
100
AcDbEntity
  8
TILECORNERS
100
AcDbPoint
 10
70000.00009164716
 20
9999.999916891733
 30
0.0
  0
POINT
  5
265
330
1F
100
AcDbEntity
  8
TILECORNERS
100
AcDbPoint
 10
74999.99993413992
 20
9999.999916891733
 30
0.0
  0
POINT
  5
266
330
1F
100
AcDbEntity
  8
TILECORNERS
100
AcDbPoint
 10
80000.00010472928
 20
9999.999916891733
 30
0.0
  0
POINT
  5
267
330
1F
100
AcDbEntity
  8
TILECORNERS
100
AcDbPoint
 10
84999.99994722373
 20
9999.999916900899
 30
0.0
  0
POINT
  5
268
330
1F
100
AcDbEntity
  8
TILECORNERS
100
AcDbPoint
 10
0.0000000614802866
 20
15000.00008747306
 30
0.0
  0
POINT
  5
269
330
1F
100
AcDbEntity
  8
TILECORNERS
100
AcDbPoint
 10
4999.999842557399
 20
15000.00008746695
 30
0.0
  0
POINT
  5
26A
330
1F
100
AcDbEntity
  8
TILECORNERS
100
AcDbPoint
 10
10000.00001314575
 20
15000.00008747306
 30
0.0
  0
POINT
  5
26B
330
1F
100
AcDbEntity
  8
TILECORNERS
100
AcDbPoint
 10
14999.99985564082
 20
15000.00008747306
 30
0.0
  0
POINT
  5
26C
330
1F
100
AcDbEntity
  8
TILECORNERS
100
AcDbPoint
 10
20000.00002622846
 20
15000.00008746084
 30
0.0
  0
POINT
  5
26D
330
1F
100
AcDbEntity
  8
TILECORNERS
100
AcDbPoint
 10
24999.99986872172
 20
15000.0000874639
 30
0.0
  0
POINT
  5
26E
330
1F
100
AcDbEntity
  8
TILECORNERS
100
AcDbPoint
 10
30000.00003931276
 20
15000.00008746695
 30
0.0
  0
POINT
  5
26F
330
1F
100
AcDbEntity
  8
TILECORNERS
100
AcDbPoint
 10
34999.99988181246
 20
15000.00008747001
 30
0.0
  0
POINT
  5
270
330
1F
100
AcDbEntity
  8
TILECORNERS
100
AcDbPoint
 10
40000.00005239434
 20
15000.0000874639
 30
0.0
  0
POINT
  5
271
330
1F
100
AcDbEntity
  8
TILECORNERS
100
AcDbPoint
 10
44999.99989488955
 20
15000.0000874639
 30
0.0
  0
POINT
  5
272
330
1F
100
AcDbEntity
  8
TILECORNERS
100
AcDbPoint
 10
50000.00006547984
 20
15000.00008747001
 30
0.0
  0
POINT
  5
273
330
1F
100
AcDbEntity
  8
TILECORNERS
100
AcDbPoint
 10
54999.99990797431
 20
15000.0000874639
 30
0.0
  0
POINT
  5
274
330
1F
100
AcDbEntity
  8
TILECORNERS
100
AcDbPoint
 10
60000.00007856188
 20
15000.00008746695
 30
0.0
  0
POINT
  5
275
330
1F
100
AcDbEntity
  8
TILECORNERS
100
AcDbPoint
 10
64999.99992105571
 20
15000.00008747306
 30
0.0
  0
POINT
  5
276
330
1F
100
AcDbEntity
  8
TILECORNERS
100
AcDbPoint
 10
70000.00009164447
 20
15000.00008747306
 30
0.0
  0
POINT
  5
277
330
1F
100
AcDbEntity
  8
TILECORNERS
100
AcDbPoint
 10
74999.99993414071
 20
15000.00008746695
 30
0.0
  0
POINT
  5
278
330
1F
100
AcDbEntity
  8
TILECORNERS
100
AcDbPoint
 10
80000.00010473166
 20
15000.00008747001
 30
0.0
  0
POINT
  5
279
330
1F
100
AcDbEntity
  8
TILECORNERS
100
AcDbPoint
 10
84999.99994722455
 20
15000.00008747001
 30
0.0
  0
POINT
  5
27A
330
1F
100
AcDbEntity
  8
TILECORNERS
100
AcDbPoint
 10
0.0000000637838578
 20
19999.99992997468
 30
0.0
  0
POINT
  5
27B
330
1F
100
AcDbEntity
  8
TILECORNERS
100
AcDbPoint
 10
4999.999842559477
 20
19999.99992997162
 30
0.0
  0
POINT
  5
27C
330
1F
100
AcDbEntity
  8
TILECORNERS
100
AcDbPoint
 10
10000.00001314616
 20
19999.99992997773
 30
0.0
  0
POINT
  5
27D
330
1F
100
AcDbEntity
  8
TILECORNERS
100
AcDbPoint
 10
14999.99985564055
 20
19999.99992997162
 30
0.0
  0
POINT
  5
27E
330
1F
100
AcDbEntity
  8
TILECORNERS
100
AcDbPoint
 10
20000.00002622909
 20
19999.99992997468
 30
0.0
  0
POINT
  5
27F
330
1F
100
AcDbEntity
  8
TILECORNERS
100
AcDbPoint
 10
24999.999868724
 20
19999.99992997468
 30
0.0
  0
POINT
  5
280
330
1F
100
AcDbEntity
  8
TILECORNERS
100
AcDbPoint
 10
30000.00003931109
 20
19999.99992998079
 30
0.0
  0
POINT
  5
281
330
1F
100
AcDbEntity
  8
TILECORNERS
100
AcDbPoint
 10
34999.99988180715
 20
19999.99992997468
 30
0.0
  0
POINT
  5
282
330
1F
100
AcDbEntity
  8
TILECORNERS
100
AcDbPoint
 10
40000.00005239661
 20
19999.99992998079
 30
0.0
  0
POINT
  5
283
330
1F
100
AcDbEntity
  8
TILECORNERS
100
AcDbPoint
 10
44999.9998948891
 20
19999.99992997162
 30
0.0
  0
POINT
  5
284
330
1F
100
AcDbEntity
  8
TILECORNERS
100
AcDbPoint
 10
50000.00006548058
 20
19999.99992997773
 30
0.0
  0
POINT
  5
285
330
1F
100
AcDbEntity
  8
TILECORNERS
100
AcDbPoint
 10
54999.99990797233
 20
19999.99992997162
 30
0.0
  0
POINT
  5
286
330
1F
100
AcDbEntity
  8
TILECORNERS
100
AcDbPoint
 10
60000.00007856073
 20
19999.99992997773
 30
0.0
  0
POINT
  5
287
330
1F
100
AcDbEntity
  8
TILECORNERS
100
AcDbPoint
 10
64999.99992105798
 20
19999.99992997773
 30
0.0
  0
POINT
  5
288
330
1F
100
AcDbEntity
  8
TILECORNERS
100
AcDbPoint
 10
70000.0000916464
 20
19999.99992997468
 30
0.0
  0
POINT
  5
289
330
1F
100
AcDbEntity
  8
TILECORNERS
100
AcDbPoint
 10
74999.99993414083
 20
19999.99992997468
 30
0.0
  0
POINT
  5
28A
330
1F
100
AcDbEntity
  8
TILECORNERS
100
AcDbPoint
 10
80000.0001047292
 20
19999.99992998079
 30
0.0
  0
POINT
  5
28B
330
1F
100
AcDbEntity
  8
TILECORNERS
100
AcDbPoint
 10
84999.99994722461
 20
19999.99992997468
 30
0.0
  0
POINT
  5
28C
330
1F
100
AcDbEntity
  8
TILECORNERS
100
AcDbPoint
 10
0.0000000646909636
 20
25000.0001005499
 30
0.0
  0
POINT
  5
28D
330
1F
100
AcDbEntity
  8
TILECORNERS
100
AcDbPoint
 10
4999.999842559023
 20
25000.00010055601
 30
0.0
  0
POINT
  5
28E
330
1F
100
AcDbEntity
  8
TILECORNERS
100
AcDbPoint
 10
10000.00001314714
 20
25000.00010055296
 30
0.0
  0
POINT
  5
28F
330
1F
100
AcDbEntity
  8
TILECORNERS
100
AcDbPoint
 10
14999.99985564155
 20
25000.0001005499
 30
0.0
  0
POINT
  5
290
330
1F
100
AcDbEntity
  8
TILECORNERS
100
AcDbPoint
 10
20000.00002622958
 20
25000.00010055601
 30
0.0
  0
POINT
  5
291
330
1F
100
AcDbEntity
  8
TILECORNERS
100
AcDbPoint
 10
24999.99986872285
 20
25000.00010054379
 30
0.0
  0
POINT
  5
292
330
1F
100
AcDbEntity
  8
TILECORNERS
100
AcDbPoint
 10
30000.00003931137
 20
25000.00010055296
 30
0.0
  0
POINT
  5
293
330
1F
100
AcDbEntity
  8
TILECORNERS
100
AcDbPoint
 10
34999.9998818078
 20
25000.00010055296
 30
0.0
  0
POINT
  5
294
330
1F
100
AcDbEntity
  8
TILECORNERS
100
AcDbPoint
 10
40000.00005239751
 20
25000.0001005499
 30
0.0
  0
POINT
  5
295
330
1F
100
AcDbEntity
  8
TILECORNERS
100
AcDbPoint
 10
44999.99989488934
 20
25000.00010055296
 30
0.0
  0
POINT
  5
296
330
1F
100
AcDbEntity
  8
TILECORNERS
100
AcDbPoint
 10
50000.0000654802
 20
25000.00010054684
 30
0.0
  0
POINT
  5
297
330
1F
100
AcDbEntity
  8
TILECORNERS
100
AcDbPoint
 10
54999.999907974
 20
25000.00010054684
 30
0.0
  0
POINT
  5
298
330
1F
100
AcDbEntity
  8
TILECORNERS
100
AcDbPoint
 10
60000.00007856107
 20
25000.00010055296
 30
0.0
  0
POINT
  5
299
330
1F
100
AcDbEntity
  8
TILECORNERS
100
AcDbPoint
 10
64999.99992105638
 20
25000.00010054684
 30
0.0
  0
POINT
  5
29A
330
1F
100
AcDbEntity
  8
TILECORNERS
100
AcDbPoint
 10
70000.00009164638
 20
25000.00010054684
 30
0.0
  0
POINT
  5
29B
330
1F
100
AcDbEntity
  8
TILECORNERS
100
AcDbPoint
 10
74999.9999341418
 20
25000.0001005499
 30
0.0
  0
POINT
  5
29C
330
1F
100
AcDbEntity
  8
TILECORNERS
100
AcDbPoint
 10
80000.00010472802
 20
25000.0001005499
 30
0.0
  0
POINT
  5
29D
330
1F
100
AcDbEntity
  8
TILECORNERS
100
AcDbPoint
 10
84999.99994722067
 20
25000.00010054684
 30
0.0
  0
POINT
  5
29E
330
1F
100
AcDbEntity
  8
TILECORNERS
100
AcDbPoint
 10
0.0000000631512709
 20
29999.99994306679
 30
0.0
  0
POINT
  5
29F
330
1F
100
AcDbEntity
  8
TILECORNERS
100
AcDbPoint
 10
4999.999842557662
 20
29999.99994305762
 30
0.0
  0
POINT
  5
2A0
330
1F
100
AcDbEntity
  8
TILECORNERS
100
AcDbPoint
 10
10000.00001314588
 20
29999.99994306374
 30
0.0
  0
POINT
  5
2A1
330
1F
100
AcDbEntity
  8
TILECORNERS
100
AcDbPoint
 10
14999.99985564014
 20
29999.99994306068
 30
0.0
  0
POINT
  5
2A2
330
1F
100
AcDbEntity
  8
TILECORNERS
100
AcDbPoint
 10
20000.0000262288
 20
29999.99994305762
 30
0.0
  0
POINT
  5
2A3
330
1F
100
AcDbEntity
  8
TILECORNERS
100
AcDbPoint
 10
24999.99986872304
 20
29999.99994306068
 30
0.0
  0
POINT
  5
2A4
330
1F
100
AcDbEntity
  8
TILECORNERS
100
AcDbPoint
 10
30000.00003931409
 20
29999.99994306068
 30
0.0
  0
POINT
  5
2A5
330
1F
100
AcDbEntity
  8
TILECORNERS
100
AcDbPoint
 10
34999.99988180728
 20
29999.99994306374
 30
0.0
  0
POINT
  5
2A6
330
1F
100
AcDbEntity
  8
TILECORNERS
100
AcDbPoint
 10
40000.00005239584
 20
29999.99994306679
 30
0.0
  0
POINT
  5
2A7
330
1F
100
AcDbEntity
  8
TILECORNERS
100
AcDbPoint
 10
44999.99989488841
 20
29999.99994306374
 30
0.0
  0
POINT
  5
2A8
330
1F
100
AcDbEntity
  8
TILECORNERS
100
AcDbPoint
 10
50000.00006547931
 20
29999.99994306374
 30
0.0
  0
POINT
  5
2A9
330
1F
100
AcDbEntity
  8
TILECORNERS
100
AcDbPoint
 10
54999.99990797562
 20
29999.99994306068
 30
0.0
  0
POINT
  5
2AA
330
1F
100
AcDbEntity
  8
TILECORNERS
100
AcDbPoint
 10
60000.0000785618
 20
29999.99994306679
 30
0.0
  0
POINT
  5
2AB
330
1F
100
AcDbEntity
  8
TILECORNERS
100
AcDbPoint
 10
64999.9999210558
 20
29999.99994306374
 30
0.0
  0
POINT
  5
2AC
330
1F
100
AcDbEntity
  8
TILECORNERS
100
AcDbPoint
 10
70000.00009164518
 20
29999.99994306374
 30
0.0
  0
POINT
  5
2AD
330
1F
100
AcDbEntity
  8
TILECORNERS
100
AcDbPoint
 10
74999.9999341402
 20
29999.99994306679
 30
0.0
  0
POINT
  5
2AE
330
1F
100
AcDbEntity
  8
TILECORNERS
100
AcDbPoint
 10
80000.00010472722
 20
29999.99994306374
 30
0.0
  0
POINT
  5
2AF
330
1F
100
AcDbEntity
  8
TILECORNERS
100
AcDbPoint
 10
84999.99994722482
 20
29999.99994306679
 30
0.0
  0
POINT
  5
2B0
330
1F
100
AcDbEntity
  8
TILECORNERS
100
AcDbPoint
 10
0.0000000629961081
 20
35000.0001136359
 30
0.0
  0
POINT
  5
2B1
330
1F
100
AcDbEntity
  8
TILECORNERS
100
AcDbPoint
 10
4999.999842562855
 20
35000.00011362674
 30
0.0
  0
POINT
  5
2B2
330
1F
100
AcDbEntity
  8
TILECORNERS
100
AcDbPoint
 10
10000.00001314687
 20
35000.00011363284
 30
0.0
  0
POINT
  5
2B3
330
1F
100
AcDbEntity
  8
TILECORNERS
100
AcDbPoint
 10
14999.99985564116
 20
35000.00011362979
 30
0.0
  0
POINT
  5
2B4
330
1F
100
AcDbEntity
  8
TILECORNERS
100
AcDbPoint
 10
20000.00002622844
 20
35000.00011363284
 30
0.0
  0
POINT
  5
2B5
330
1F
100
AcDbEntity
  8
TILECORNERS
100
AcDbPoint
 10
24999.99986872332
 20
35000.00011363284
 30
0.0
  0
POINT
  5
2B6
330
1F
100
AcDbEntity
  8
TILECORNERS
100
AcDbPoint
 10
30000.00003931139
 20
35000.0001136359
 30
0.0
  0
POINT
  5
2B7
330
1F
100
AcDbEntity
  8
TILECORNERS
100
AcDbPoint
 10
34999.99988180838
 20
35000.00011363284
 30
0.0
  0
POINT
  5
2B8
330
1F
100
AcDbEntity
  8
TILECORNERS
100
AcDbPoint
 10
40000.00005239493
 20
35000.00011362979
 30
0.0
  0
POINT
  5
2B9
330
1F
100
AcDbEntity
  8
TILECORNERS
100
AcDbPoint
 10
44999.99989488981
 20
35000.0001136359
 30
0.0
  0
POINT
  5
2BA
330
1F
100
AcDbEntity
  8
TILECORNERS
100
AcDbPoint
 10
50000.00006548196
 20
35000.00011363895
 30
0.0
  0
POINT
  5
2BB
330
1F
100
AcDbEntity
  8
TILECORNERS
100
AcDbPoint
 10
54999.99990797479
 20
35000.0001136359
 30
0.0
  0
POINT
  5
2BC
330
1F
100
AcDbEntity
  8
TILECORNERS
100
AcDbPoint
 10
60000.00007856094
 20
35000.00011363284
 30
0.0
  0
POINT
  5
2BD
330
1F
100
AcDbEntity
  8
TILECORNERS
100
AcDbPoint
 10
64999.99992105483
 20
35000.00011363895
 30
0.0
  0
POINT
  5
2BE
330
1F
100
AcDbEntity
  8
TILECORNERS
100
AcDbPoint
 10
70000.00009164523
 20
35000.00011362979
 30
0.0
  0
POINT
  5
2BF
330
1F
100
AcDbEntity
  8
TILECORNERS
100
AcDbPoint
 10
74999.99993413877
 20
35000.00011362979
 30
0.0
  0
POINT
  5
2C0
330
1F
100
AcDbEntity
  8
TILECORNERS
100
AcDbPoint
 10
80000.00010472999
 20
35000.00011363895
 30
0.0
  0
POINT
  5
2C1
330
1F
100
AcDbEntity
  8
TILECORNERS
100
AcDbPoint
 10
84999.99994722365
 20
35000.00011362979
 30
0.0
  0
POINT
  5
2C2
330
1F
100
AcDbEntity
  8
TILECORNERS
100
AcDbPoint
 10
0.000000063927085
 20
39999.99995614363
 30
0.0
  0
POINT
  5
2C3
330
1F
100
AcDbEntity
  8
TILECORNERS
100
AcDbPoint
 10
4999.999842559249
 20
39999.99995614668
 30
0.0
  0
POINT
  5
2C4
330
1F
100
AcDbEntity
  8
TILECORNERS
100
AcDbPoint
 10
10000.00001314721
 20
39999.99995614974
 30
0.0
  0
POINT
  5
2C5
330
1F
100
AcDbEntity
  8
TILECORNERS
100
AcDbPoint
 10
14999.99985564039
 20
39999.99995614974
 30
0.0
  0
POINT
  5
2C6
330
1F
100
AcDbEntity
  8
TILECORNERS
100
AcDbPoint
 10
20000.00002622994
 20
39999.99995614363
 30
0.0
  0
POINT
  5
2C7
330
1F
100
AcDbEntity
  8
TILECORNERS
100
AcDbPoint
 10
24999.99986872385
 20
39999.99995614057
 30
0.0
  0
POINT
  5
2C8
330
1F
100
AcDbEntity
  8
TILECORNERS
100
AcDbPoint
 10
30000.00003931265
 20
39999.99995614057
 30
0.0
  0
POINT
  5
2C9
330
1F
100
AcDbEntity
  8
TILECORNERS
100
AcDbPoint
 10
34999.99988180876
 20
39999.99995614363
 30
0.0
  0
POINT
  5
2CA
330
1F
100
AcDbEntity
  8
TILECORNERS
100
AcDbPoint
 10
40000.00005239448
 20
39999.99995614363
 30
0.0
  0
POINT
  5
2CB
330
1F
100
AcDbEntity
  8
TILECORNERS
100
AcDbPoint
 10
44999.99989489223
 20
39999.99995614974
 30
0.0
  0
POINT
  5
2CC
330
1F
100
AcDbEntity
  8
TILECORNERS
100
AcDbPoint
 10
50000.0000654786
 20
39999.99995614363
 30
0.0
  0
POINT
  5
2CD
330
1F
100
AcDbEntity
  8
TILECORNERS
100
AcDbPoint
 10
54999.99990797452
 20
39999.99995614057
 30
0.0
  0
POINT
  5
2CE
330
1F
100
AcDbEntity
  8
TILECORNERS
100
AcDbPoint
 10
60000.0000785602
 20
39999.99995614974
 30
0.0
  0
POINT
  5
2CF
330
1F
100
AcDbEntity
  8
TILECORNERS
100
AcDbPoint
 10
64999.99992105733
 20
39999.99995614057
 30
0.0
  0
POINT
  5
2D0
330
1F
100
AcDbEntity
  8
TILECORNERS
100
AcDbPoint
 10
70000.00009164556
 20
39999.99995614668
 30
0.0
  0
POINT
  5
2D1
330
1F
100
AcDbEntity
  8
TILECORNERS
100
AcDbPoint
 10
74999.99993413896
 20
39999.99995614363
 30
0.0
  0
POINT
  5
2D2
330
1F
100
AcDbEntity
  8
TILECORNERS
100
AcDbPoint
 10
80000.0001047298
 20
39999.99995614363
 30
0.0
  0
POINT
  5
2D3
330
1F
100
AcDbEntity
  8
TILECORNERS
100
AcDbPoint
 10
84999.99994721955
 20
39999.99995614668
 30
0.0
  0
POINT
  5
2D4
330
1F
100
AcDbEntity
  8
TILECORNERS
100
AcDbPoint
 10
0.0000000633899829
 20
45000.00012671274
 30
0.0
  0
POINT
  5
2D5
330
1F
100
AcDbEntity
  8
TILECORNERS
100
AcDbPoint
 10
4999.99984255783
 20
45000.00012671885
 30
0.0
  0
POINT
  5
2D6
330
1F
100
AcDbEntity
  8
TILECORNERS
100
AcDbPoint
 10
10000.00001314723
 20
45000.00012671885
 30
0.0
  0
POINT
  5
2D7
330
1F
100
AcDbEntity
  8
TILECORNERS
100
AcDbPoint
 10
14999.99985564138
 20
45000.00012671885
 30
0.0
  0
POINT
  5
2D8
330
1F
100
AcDbEntity
  8
TILECORNERS
100
AcDbPoint
 10
20000.00002622962
 20
45000.00012671274
 30
0.0
  0
POINT
  5
2D9
330
1F
100
AcDbEntity
  8
TILECORNERS
100
AcDbPoint
 10
24999.99986872402
 20
45000.00012671885
 30
0.0
  0
POINT
  5
2DA
330
1F
100
AcDbEntity
  8
TILECORNERS
100
AcDbPoint
 10
30000.00003931336
 20
45000.00012671885
 30
0.0
  0
POINT
  5
2DB
330
1F
100
AcDbEntity
  8
TILECORNERS
100
AcDbPoint
 10
34999.9998818073
 20
45000.00012671885
 30
0.0
  0
POINT
  5
2DC
330
1F
100
AcDbEntity
  8
TILECORNERS
100
AcDbPoint
 10
40000.00005239656
 20
45000.0001267219
 30
0.0
  0
POINT
  5
2DD
330
1F
100
AcDbEntity
  8
TILECORNERS
100
AcDbPoint
 10
44999.99989489048
 20
45000.0001267219
 30
0.0
  0
POINT
  5
2DE
330
1F
100
AcDbEntity
  8
TILECORNERS
100
AcDbPoint
 10
50000.00006547759
 20
45000.0001267219
 30
0.0
  0
POINT
  5
2DF
330
1F
100
AcDbEntity
  8
TILECORNERS
100
AcDbPoint
 10
54999.99990797257
 20
45000.00012671274
 30
0.0
  0
POINT
  5
2E0
330
1F
100
AcDbEntity
  8
TILECORNERS
100
AcDbPoint
 10
60000.0000785641
 20
45000.00012671885
 30
0.0
  0
POINT
  5
2E1
330
1F
100
AcDbEntity
  8
TILECORNERS
100
AcDbPoint
 10
64999.99992105714
 20
45000.0001267219
 30
0.0
  0
POINT
  5
2E2
330
1F
100
AcDbEntity
  8
TILECORNERS
100
AcDbPoint
 10
70000.00009165048
 20
45000.00012671274
 30
0.0
  0
POINT
  5
2E3
330
1F
100
AcDbEntity
  8
TILECORNERS
100
AcDbPoint
 10
74999.9999341412
 20
45000.00012671579
 30
0.0
  0
POINT
  5
2E4
330
1F
100
AcDbEntity
  8
TILECORNERS
100
AcDbPoint
 10
80000.0001047302
 20
45000.00012671274
 30
0.0
  0
POINT
  5
2E5
330
1F
100
AcDbEntity
  8
TILECORNERS
100
AcDbPoint
 10
84999.99994722295
 20
45000.00012671274
 30
0.0
  0
POINT
  5
2E6
330
1F
100
AcDbEntity
  8
TILECORNERS
100
AcDbPoint
 10
0.0000000618622259
 20
49999.99996922657
 30
0.0
  0
POINT
  5
2E7
330
1F
100
AcDbEntity
  8
TILECORNERS
100
AcDbPoint
 10
4999.999842557376
 20
49999.99996922963
 30
0.0
  0
POINT
  5
2E8
330
1F
100
AcDbEntity
  8
TILECORNERS
100
AcDbPoint
 10
10000.00001314747
 20
49999.99996923268
 30
0.0
  0
POINT
  5
2E9
330
1F
100
AcDbEntity
  8
TILECORNERS
100
AcDbPoint
 10
14999.99985563949
 20
49999.99996922657
 30
0.0
  0
POINT
  5
2EA
330
1F
100
AcDbEntity
  8
TILECORNERS
100
AcDbPoint
 10
20000.00002622806
 20
49999.99996922657
 30
0.0
  0
POINT
  5
2EB
330
1F
100
AcDbEntity
  8
TILECORNERS
100
AcDbPoint
 10
24999.9998687228
 20
49999.99996922963
 30
0.0
  0
POINT
  5
2EC
330
1F
100
AcDbEntity
  8
TILECORNERS
100
AcDbPoint
 10
30000.00003931437
 20
49999.99996922963
 30
0.0
  0
POINT
  5
2ED
330
1F
100
AcDbEntity
  8
TILECORNERS
100
AcDbPoint
 10
34999.99988180649
 20
49999.99996922963
 30
0.0
  0
POINT
  5
2EE
330
1F
100
AcDbEntity
  8
TILECORNERS
100
AcDbPoint
 10
40000.00005239512
 20
49999.99996922963
 30
0.0
  0
POINT
  5
2EF
330
1F
100
AcDbEntity
  8
TILECORNERS
100
AcDbPoint
 10
44999.99989489067
 20
49999.99996922963
 30
0.0
  0
POINT
  5
2F0
330
1F
100
AcDbEntity
  8
TILECORNERS
100
AcDbPoint
 10
50000.00006547998
 20
49999.99996922351
 30
0.0
  0
POINT
  5
2F1
330
1F
100
AcDbEntity
  8
TILECORNERS
100
AcDbPoint
 10
54999.9999079751
 20
49999.99996922963
 30
0.0
  0
POINT
  5
2F2
330
1F
100
AcDbEntity
  8
TILECORNERS
100
AcDbPoint
 10
60000.0000785634
 20
49999.99996922046
 30
0.0
  0
POINT
  5
2F3
330
1F
100
AcDbEntity
  8
TILECORNERS
100
AcDbPoint
 10
64999.9999210574
 20
49999.99996922351
 30
0.0
  0
POINT
  5
2F4
330
1F
100
AcDbEntity
  8
TILECORNERS
100
AcDbPoint
 10
70000.00009164732
 20
49999.99996922657
 30
0.0
  0
POINT
  5
2F5
330
1F
100
AcDbEntity
  8
TILECORNERS
100
AcDbPoint
 10
74999.99993414168
 20
49999.99996922657
 30
0.0
  0
POINT
  5
2F6
330
1F
100
AcDbEntity
  8
TILECORNERS
100
AcDbPoint
 10
80000.00010472928
 20
49999.99996922963
 30
0.0
  0
POINT
  5
2F7
330
1F
100
AcDbEntity
  8
TILECORNERS
100
AcDbPoint
 10
84999.99994722682
 20
49999.99996922963
 30
0.0
  0
POINT
  5
2F8
330
1F
100
AcDbEntity
  8
TILECORNERS
100
AcDbPoint
 10
0.0000000642732175
 20
55000.00013979874
 30
0.0
  0
POINT
  5
2F9
330
1F
100
AcDbEntity
  8
TILECORNERS
100
AcDbPoint
 10
4999.999842554893
 20
55000.0001398079
 30
0.0
  0
POINT
  5
2FA
330
1F
100
AcDbEntity
  8
TILECORNERS
100
AcDbPoint
 10
10000.00001314743
 20
55000.00013980179
 30
0.0
  0
POINT
  5
2FB
330
1F
100
AcDbEntity
  8
TILECORNERS
100
AcDbPoint
 10
14999.99985564012
 20
55000.00013979874
 30
0.0
  0
POINT
  5
2FC
330
1F
100
AcDbEntity
  8
TILECORNERS
100
AcDbPoint
 10
20000.00002623317
 20
55000.00013979874
 30
0.0
  0
POINT
  5
2FD
330
1F
100
AcDbEntity
  8
TILECORNERS
100
AcDbPoint
 10
24999.99986872373
 20
55000.00013980485
 30
0.0
  0
POINT
  5
2FE
330
1F
100
AcDbEntity
  8
TILECORNERS
100
AcDbPoint
 10
30000.00003931139
 20
55000.00013979568
 30
0.0
  0
POINT
  5
2FF
330
1F
100
AcDbEntity
  8
TILECORNERS
100
AcDbPoint
 10
34999.99988180799
 20
55000.00013979874
 30
0.0
  0
POINT
  5
300
330
1F
100
AcDbEntity
  8
TILECORNERS
100
AcDbPoint
 10
40000.00005239441
 20
55000.00013980179
 30
0.0
  0
POINT
  5
301
330
1F
100
AcDbEntity
  8
TILECORNERS
100
AcDbPoint
 10
44999.99989488914
 20
55000.00013980179
 30
0.0
  0
POINT
  5
302
330
1F
100
AcDbEntity
  8
TILECORNERS
100
AcDbPoint
 10
50000.00006547769
 20
55000.00013980179
 30
0.0
  0
POINT
  5
303
330
1F
100
AcDbEntity
  8
TILECORNERS
100
AcDbPoint
 10
54999.99990797336
 20
55000.00013980179
 30
0.0
  0
POINT
  5
304
330
1F
100
AcDbEntity
  8
TILECORNERS
100
AcDbPoint
 10
60000.00007856204
 20
55000.00013979874
 30
0.0
  0
POINT
  5
305
330
1F
100
AcDbEntity
  8
TILECORNERS
100
AcDbPoint
 10
64999.99992105759
 20
55000.00013979874
 30
0.0
  0
POINT
  5
306
330
1F
100
AcDbEntity
  8
TILECORNERS
100
AcDbPoint
 10
70000.00009164534
 20
55000.00013979874
 30
0.0
  0
POINT
  5
307
330
1F
100
AcDbEntity
  8
TILECORNERS
100
AcDbPoint
 10
74999.99993414183
 20
55000.00013980179
 30
0.0
  0
POINT
  5
308
330
1F
100
AcDbEntity
  8
TILECORNERS
100
AcDbPoint
 10
80000.0001047276
 20
55000.00013980485
 30
0.0
  0
POINT
  5
309
330
1F
100
AcDbEntity
  8
TILECORNERS
100
AcDbPoint
 10
84999.99994722409
 20
55000.00013979874
 30
0.0
  0
POINT
  5
30A
330
1F
100
AcDbEntity
  8
TILECORNERS
100
AcDbPoint
 10
0.0000000615519002
 20
59999.99998230952
 30
0.0
  0
POINT
  5
30B
330
1F
100
AcDbEntity
  8
TILECORNERS
100
AcDbPoint
 10
4999.999842556505
 20
59999.99998231257
 30
0.0
  0
POINT
  5
30C
330
1F
100
AcDbEntity
  8
TILECORNERS
100
AcDbPoint
 10
10000.00001314764
 20
59999.99998231257
 30
0.0
  0
POINT
  5
30D
330
1F
100
AcDbEntity
  8
TILECORNERS
100
AcDbPoint
 10
14999.99985564177
 20
59999.99998230952
 30
0.0
  0
POINT
  5
30E
330
1F
100
AcDbEntity
  8
TILECORNERS
100
AcDbPoint
 10
20000.00002623104
 20
59999.99998230646
 30
0.0
  0
POINT
  5
30F
330
1F
100
AcDbEntity
  8
TILECORNERS
100
AcDbPoint
 10
24999.99986872455
 20
59999.99998230341
 30
0.0
  0
POINT
  5
310
330
1F
100
AcDbEntity
  8
TILECORNERS
100
AcDbPoint
 10
30000.00003931373
 20
59999.99998230952
 30
0.0
  0
POINT
  5
311
330
1F
100
AcDbEntity
  8
TILECORNERS
100
AcDbPoint
 10
34999.99988180873
 20
59999.99998231562
 30
0.0
  0
POINT
  5
312
330
1F
100
AcDbEntity
  8
TILECORNERS
100
AcDbPoint
 10
40000.00005239618
 20
59999.99998230646
 30
0.0
  0
POINT
  5
313
330
1F
100
AcDbEntity
  8
TILECORNERS
100
AcDbPoint
 10
44999.9998948891
 20
59999.99998231257
 30
0.0
  0
POINT
  5
314
330
1F
100
AcDbEntity
  8
TILECORNERS
100
AcDbPoint
 10
50000.00006547879
 20
59999.99998230952
 30
0.0
  0
POINT
  5
315
330
1F
100
AcDbEntity
  8
TILECORNERS
100
AcDbPoint
 10
54999.99990797324
 20
59999.99998231257
 30
0.0
  0
POINT
  5
316
330
1F
100
AcDbEntity
  8
TILECORNERS
100
AcDbPoint
 10
60000.00007856407
 20
59999.99998230646
 30
0.0
  0
POINT
  5
317
330
1F
100
AcDbEntity
  8
TILECORNERS
100
AcDbPoint
 10
64999.99992105284
 20
59999.99998230646
 30
0.0
  0
POINT
  5
318
330
1F
100
AcDbEntity
  8
TILECORNERS
100
AcDbPoint
 10
70000.00009164434
 20
59999.99998230952
 30
0.0
  0
POINT
  5
319
330
1F
100
AcDbEntity
  8
TILECORNERS
100
AcDbPoint
 10
74999.99993413949
 20
59999.99998230952
 30
0.0
  0
POINT
  5
31A
330
1F
100
AcDbEntity
  8
TILECORNERS
100
AcDbPoint
 10
80000.00010472791
 20
59999.99998230646
 30
0.0
  0
POINT
  5
31B
330
1F
100
AcDbEntity
  8
TILECORNERS
100
AcDbPoint
 10
84999.99994722212
 20
59999.99998231257
 30
0.0
  0
POINT
  5
31C
330
1F
100
AcDbEntity
  8
TILECORNERS
100
AcDbPoint
 10
0.0000000625306196
 20
65000.00015287863
 30
0.0
  0
POINT
  5
31D
330
1F
100
AcDbEntity
  8
TILECORNERS
100
AcDbPoint
 10
4999.999842559035
 20
65000.00015287863
 30
0.0
  0
POINT
  5
31E
330
1F
100
AcDbEntity
  8
TILECORNERS
100
AcDbPoint
 10
10000.00001314681
 20
65000.00015288169
 30
0.0
  0
POINT
  5
31F
330
1F
100
AcDbEntity
  8
TILECORNERS
100
AcDbPoint
 10
14999.99985564147
 20
65000.00015288474
 30
0.0
  0
POINT
  5
320
330
1F
100
AcDbEntity
  8
TILECORNERS
100
AcDbPoint
 10
20000.0000262308
 20
65000.00015288779
 30
0.0
  0
POINT
  5
321
330
1F
100
AcDbEntity
  8
TILECORNERS
100
AcDbPoint
 10
24999.99986872589
 20
65000.00015288169
 30
0.0
  0
POINT
  5
322
330
1F
100
AcDbEntity
  8
TILECORNERS
100
AcDbPoint
 10
30000.00003931373
 20
65000.00015288779
 30
0.0
  0
POINT
  5
323
330
1F
100
AcDbEntity
  8
TILECORNERS
100
AcDbPoint
 10
34999.99988180988
 20
65000.00015287863
 30
0.0
  0
POINT
  5
324
330
1F
100
AcDbEntity
  8
TILECORNERS
100
AcDbPoint
 10
40000.00005239641
 20
65000.00015287863
 30
0.0
  0
POINT
  5
325
330
1F
100
AcDbEntity
  8
TILECORNERS
100
AcDbPoint
 10
44999.99989489187
 20
65000.00015288474
 30
0.0
  0
POINT
  5
326
330
1F
100
AcDbEntity
  8
TILECORNERS
100
AcDbPoint
 10
50000.00006547955
 20
65000.0001528939
 30
0.0
  0
POINT
  5
327
330
1F
100
AcDbEntity
  8
TILECORNERS
100
AcDbPoint
 10
54999.99990797303
 20
65000.00015288169
 30
0.0
  0
POINT
  5
328
330
1F
100
AcDbEntity
  8
TILECORNERS
100
AcDbPoint
 10
60000.0000785626
 20
65000.00015288474
 30
0.0
  0
POINT
  5
329
330
1F
100
AcDbEntity
  8
TILECORNERS
100
AcDbPoint
 10
64999.99992105881
 20
65000.00015288169
 30
0.0
  0
POINT
  5
32A
330
1F
100
AcDbEntity
  8
TILECORNERS
100
AcDbPoint
 10
70000.00009164478
 20
65000.00015288474
 30
0.0
  0
POINT
  5
32B
330
1F
100
AcDbEntity
  8
TILECORNERS
100
AcDbPoint
 10
74999.99993414045
 20
65000.00015288474
 30
0.0
  0
POINT
  5
32C
330
1F
100
AcDbEntity
  8
TILECORNERS
100
AcDbPoint
 10
80000.00010472756
 20
65000.00015287863
 30
0.0
  0
POINT
  5
32D
330
1F
100
AcDbEntity
  8
TILECORNERS
100
AcDbPoint
 10
84999.99994722391
 20
65000.00015288169
 30
0.0
  0
POINT
  5
32E
330
1F
100
AcDbEntity
  8
TILECORNERS
100
AcDbPoint
 10
0.00000006233965
 20
69999.99999539551
 30
0.0
  0
POINT
  5
32F
330
1F
100
AcDbEntity
  8
TILECORNERS
100
AcDbPoint
 10
4999.999842558594
 20
69999.9999953894
 30
0.0
  0
POINT
  5
330
330
1F
100
AcDbEntity
  8
TILECORNERS
100
AcDbPoint
 10
10000.00001314541
 20
69999.9999953894
 30
0.0
  0
POINT
  5
331
330
1F
100
AcDbEntity
  8
TILECORNERS
100
AcDbPoint
 10
14999.99985564068
 20
69999.99999539246
 30
0.0
  0
POINT
  5
332
330
1F
100
AcDbEntity
  8
TILECORNERS
100
AcDbPoint
 10
20000.00002622808
 20
69999.99999539246
 30
0.0
  0
POINT
  5
333
330
1F
100
AcDbEntity
  8
TILECORNERS
100
AcDbPoint
 10
24999.99986872426
 20
69999.99999539857
 30
0.0
  0
POINT
  5
334
330
1F
100
AcDbEntity
  8
TILECORNERS
100
AcDbPoint
 10
30000.00003931226
 20
69999.99999538634
 30
0.0
  0
POINT
  5
335
330
1F
100
AcDbEntity
  8
TILECORNERS
100
AcDbPoint
 10
34999.99988180622
 20
69999.99999539246
 30
0.0
  0
POINT
  5
336
330
1F
100
AcDbEntity
  8
TILECORNERS
100
AcDbPoint
 10
40000.00005239441
 20
69999.99999539551
 30
0.0
  0
POINT
  5
337
330
1F
100
AcDbEntity
  8
TILECORNERS
100
AcDbPoint
 10
44999.99989489082
 20
69999.99999539246
 30
0.0
  0
POINT
  5
338
330
1F
100
AcDbEntity
  8
TILECORNERS
100
AcDbPoint
 10
50000.00006547795
 20
69999.99999539246
 30
0.0
  0
POINT
  5
339
330
1F
100
AcDbEntity
  8
TILECORNERS
100
AcDbPoint
 10
54999.99990797479
 20
69999.99999539857
 30
0.0
  0
POINT
  5
33A
330
1F
100
AcDbEntity
  8
TILECORNERS
100
AcDbPoint
 10
60000.00007856092
 20
69999.9999953894
 30
0.0
  0
POINT
  5
33B
330
1F
100
AcDbEntity
  8
TILECORNERS
100
AcDbPoint
 10
64999.99992105573
 20
69999.99999539246
 30
0.0
  0
POINT
  5
33C
330
1F
100
AcDbEntity
  8
TILECORNERS
100
AcDbPoint
 10
70000.00009164501
 20
69999.99999539246
 30
0.0
  0
POINT
  5
33D
330
1F
100
AcDbEntity
  8
TILECORNERS
100
AcDbPoint
 10
74999.99993414061
 20
69999.99999539551
 30
0.0
  0
POINT
  5
33E
330
1F
100
AcDbEntity
  8
TILECORNERS
100
AcDbPoint
 10
80000.00010473037
 20
69999.99999539246
 30
0.0
  0
POINT
  5
33F
330
1F
100
AcDbEntity
  8
TILECORNERS
100
AcDbPoint
 10
84999.99994722389
 20
69999.99999539246
 30
0.0
  0
POINT
  5
340
330
1F
100
AcDbEntity
  8
TILECORNERS
100
AcDbPoint
 10
0.000000062459006
 20
74999.99983789408
 30
0.0
  0
POINT
  5
341
330
1F
100
AcDbEntity
  8
TILECORNERS
100
AcDbPoint
 10
4999.999842556838
 20
74999.99983788797
 30
0.0
  0
POINT
  5
342
330
1F
100
AcDbEntity
  8
TILECORNERS
100
AcDbPoint
 10
10000.00001314533
 20
74999.99983788797
 30
0.0
  0
POINT
  5
343
330
1F
100
AcDbEntity
  8
TILECORNERS
100
AcDbPoint
 10
14999.99985564156
 20
74999.99983789102
 30
0.0
  0
POINT
  5
344
330
1F
100
AcDbEntity
  8
TILECORNERS
100
AcDbPoint
 10
20000.00002622865
 20
74999.99983789102
 30
0.0
  0
POINT
  5
345
330
1F
100
AcDbEntity
  8
TILECORNERS
100
AcDbPoint
 10
24999.99986872589
 20
74999.99983788491
 30
0.0
  0
POINT
  5
346
330
1F
100
AcDbEntity
  8
TILECORNERS
100
AcDbPoint
 10
30000.00003931217
 20
74999.99983790019
 30
0.0
  0
POINT
  5
347
330
1F
100
AcDbEntity
  8
TILECORNERS
100
AcDbPoint
 10
34999.99988180792
 20
74999.99983788491
 30
0.0
  0
POINT
  5
348
330
1F
100
AcDbEntity
  8
TILECORNERS
100
AcDbPoint
 10
40000.0000523972
 20
74999.99983789408
 30
0.0
  0
POINT
  5
349
330
1F
100
AcDbEntity
  8
TILECORNERS
100
AcDbPoint
 10
44999.99989488636
 20
74999.99983789102
 30
0.0
  0
POINT
  5
34A
330
1F
100
AcDbEntity
  8
TILECORNERS
100
AcDbPoint
 10
50000.00006547786
 20
74999.99983789102
 30
0.0
  0
POINT
  5
34B
330
1F
100
AcDbEntity
  8
TILECORNERS
100
AcDbPoint
 10
54999.99990797283
 20
74999.99983788491
 30
0.0
  0
POINT
  5
34C
330
1F
100
AcDbEntity
  8
TILECORNERS
100
AcDbPoint
 10
60000.00007856713
 20
74999.99983789102
 30
0.0
  0
POINT
  5
34D
330
1F
100
AcDbEntity
  8
TILECORNERS
100
AcDbPoint
 10
64999.99992105547
 20
74999.99983789102
 30
0.0
  0
POINT
  5
34E
330
1F
100
AcDbEntity
  8
TILECORNERS
100
AcDbPoint
 10
70000.00009164705
 20
74999.99983788491
 30
0.0
  0
POINT
  5
34F
330
1F
100
AcDbEntity
  8
TILECORNERS
100
AcDbPoint
 10
74999.99993413893
 20
74999.99983788186
 30
0.0
  0
POINT
  5
350
330
1F
100
AcDbEntity
  8
TILECORNERS
100
AcDbPoint
 10
80000.00010473208
 20
74999.99983789102
 30
0.0
  0
POINT
  5
351
330
1F
100
AcDbEntity
  8
TILECORNERS
100
AcDbPoint
 10
84999.99994722508
 20
74999.99983789102
 30
0.0
  0
LWPOLYLINE
  5
388
330
1F
100
AcDbEntity
  8
METRO3D_TILEGRID_LIMIT_LIN
100
AcDbPolyline
 90
       64
 70
     1
 43
0.0
 10
4999.999842586296
 20
-0.0000961637141396
 10
0.0000000922622045
 20
-0.0000961545475972
 10
0.0000000932886663
 20
5000.000074417619
 10
0.0000000924651097
 20
9999.999916922287
 10
0.0000000923934961
 20
15000.00008750056
 10
0.0000000912238071
 20
19999.99993000523
 10
0.0000000955922375
 20
25000.0001005774
 10
0.0000000940644804
 20
29999.99994308818
 10
0.0000000938496396
 20
35000.00011367257
 10
0.0000000913550988
 20
39999.99995617418
 10
0.0000000907941255
 20
45000.00012674329
 10
0.0000000927157574
 20
49999.99996925407
 10
0.0000000916534888
 20
55000.00013983541
 10
0.0000000924054317
 20
59999.99998233702
 10
0.0000000933364087
 20
65000.00015291529
 10
0.0000000931573747
 20
69999.99999542607
 10
0.0000000932886663
 20
74999.99983792157
 10
4999.999842587645
 20
74999.99983791851
 10
10000.00001317612
 20
74999.99983792462
 10
14999.99985567236
 20
74999.99983792157
 10
20000.00002625947
 20
74999.99983791242
 10
24999.99986875326
 20
74999.99983791242
 10
30000.00003934296
 20
74999.99983792768
 10
34999.99988183872
 20
74999.99983791242
 10
40000.00005242451
 20
74999.99983792768
 10
44999.99989492397
 20
74999.99983792157
 10
50000.00006550863
 20
74999.99983792157
 10
54999.99990800356
 20
74999.99983791851
 10
60000.000078591
 20
74999.99983792157
 10
64999.99992108622
 20
74999.99983791851
 10
70000.00009167429
 20
74999.99983792157
 10
74999.99993416961
 20
74999.99983791851
 10
80000.00010475943
 20
74999.99983791546
 10
89999.98994726449
 20
74999.99983792462
 10
89999.9899472634
 20
69999.99999542913
 10
89999.98994726149
 20
65000.00015291529
 10
89999.98994726222
 20
59999.99998234618
 10
89999.98994726322
 20
55000.00013983846
 10
89999.98994726669
 20
49999.99996925102
 10
89999.9899472634
 20
45000.0001267494
 10
89999.98994726158
 20
39999.99995616501
 10
89999.98994726269
 20
35000.00011366035
 10
89999.98994726369
 20
29999.99994308512
 10
89999.9899472631
 20
25000.0001005774
 10
89999.98994726023
 20
19999.99993000523
 10
89999.98994726442
 20
15000.00008749445
 10
89999.98994726395
 20
9999.999916925342
 10
89999.98994726161
 20
5000.000074408453
 10
89999.98994726199
 20
-0.0000961576031114
 10
80000.00010475851
 20
-0.0000961576031114
 10
74999.99993417191
 20
-0.0000961637141396
 10
70000.00009167452
 20
-0.0000961606586255
 10
64999.99992108653
 20
-0.0000961606586255
 10
60000.00007859369
 20
-0.0000961637141396
 10
54999.99990800453
 20
-0.0000961576031114
 10
50000.00006550767
 20
-0.0000961576031114
 10
44999.9998949217
 20
-0.0000961606586255
 10
40000.00005242549
 20
-0.0000961576031114
 10
34999.99988183819
 20
-0.0000961606586255
 10
30000.00003934408
 20
-0.0000961576031114
 10
24999.9998687566
 20
-0.0000961576031114
 10
20000.00002626
 20
-0.0000961576031114
 10
14999.99985566978
 20
-0.0000961576031114
 10
10000.00001317126
 20
-0.0000961576031114
  0
TEXT
  5
3C1
330
1F
100
AcDbEntity
  8
TILE_LABELS
100
AcDbText
 10
22499.9999474781
 20
7499.999995647036
 30
0.0
 40
1000.0
  1
D-13
 41
1000.0
100
AcDbText
  0
TEXT
  5
3C2
330
1F
100
AcDbEntity
  8
TILE_LABELS
100
AcDbText
 10
27500.0001180506
 20
7499.999995647036
 30
0.0
 40
1000.0
  1
E-13
 41
1000.0
100
AcDbText
  0
TEXT
  5
3C3
330
1F
100
AcDbEntity
  8
TILE_LABELS
100
AcDbText
 10
22499.9999474768
 20
12500.00016622531
 30
0.0
 40
1000.0
  1
D-12
 41
1000.0
100
AcDbText
  0
TEXT
  5
3C4
330
1F
100
AcDbEntity
  8
TILE_LABELS
100
AcDbText
 10
27500.00011805013
 20
12500.0001662192
 30
0.0
 40
1000.0
  1
E-12
 41
1000.0
100
AcDbText
  0
TEXT
  5
3C5
330
1F
100
AcDbEntity
  8
TILE_LABELS
100
AcDbText
 10
32499.99996055886
 20
12500.00016622226
 30
0.0
 40
1000.0
  1
F-12
 41
1000.0
100
AcDbText
  0
TEXT
  5
3C6
330
1F
100
AcDbEntity
  8
TILE_LABELS
100
AcDbText
 10
12499.99993439239
 20
17500.00000872693
 30
0.0
 40
1000.0
  1
B-11
 41
1000.0
100
AcDbText
  0
TEXT
  5
3C7
330
1F
100
AcDbEntity
  8
TILE_LABELS
100
AcDbText
 10
17500.00010496888
 20
17500.00000873609
 30
0.0
 40
1000.0
  1
C-11
 41
1000.0
100
AcDbText
  0
TEXT
  5
3C8
330
1F
100
AcDbEntity
  8
TILE_LABELS
100
AcDbText
 10
22499.99994747486
 20
17500.00000872998
 30
0.0
 40
1000.0
  1
D-11
 41
1000.0
100
AcDbText
  0
TEXT
  5
3C9
330
1F
100
AcDbEntity
  8
TILE_LABELS
100
AcDbText
 10
27500.00011805126
 20
17500.00000873304
 30
0.0
 40
1000.0
  1
E-11
 41
1000.0
100
AcDbText
  0
TEXT
  5
3CA
330
1F
100
AcDbEntity
  8
TILE_LABELS
100
AcDbText
 10
32499.99996055993
 20
17500.00000872387
 30
0.0
 40
1000.0
  1
F-11
 41
1000.0
100
AcDbText
  0
TEXT
  5
3CB
330
1F
100
AcDbEntity
  8
TILE_LABELS
100
AcDbText
 10
37500.00013114749
 20
17500.00000872693
 30
0.0
 40
1000.0
  1
G-11
 41
1000.0
100
AcDbText
  0
TEXT
  5
3CC
330
1F
100
AcDbEntity
  8
TILE_LABELS
100
AcDbText
 10
42499.99997364488
 20
17500.00000872998
 30
0.0
 40
1000.0
  1
H-11
 41
1000.0
100
AcDbText
  0
TEXT
  5
3CD
330
1F
100
AcDbEntity
  8
TILE_LABELS
100
AcDbText
 10
7500.000091880049
 20
22500.0001792991
 30
0.0
 40
1000.0
  1
A-10
 41
1000.0
100
AcDbText
  0
TEXT
  5
3CE
330
1F
100
AcDbEntity
  8
TILE_LABELS
100
AcDbText
 10
12499.99993439238
 20
22500.00017930215
 30
0.0
 40
1000.0
  1
B-10
 41
1000.0
100
AcDbText
  0
TEXT
  5
3CF
330
1F
100
AcDbEntity
  8
TILE_LABELS
100
AcDbText
 10
17500.00010496666
 20
22500.0001792991
 30
0.0
 40
1000.0
  1
C-10
 41
1000.0
100
AcDbText
  0
TEXT
  5
3D0
330
1F
100
AcDbEntity
  8
TILE_LABELS
100
AcDbText
 10
22499.99994747272
 20
22500.0001792991
 30
0.0
 40
1000.0
  1
D-10
 41
1000.0
100
AcDbText
  0
TEXT
  5
3D1
330
1F
100
AcDbEntity
  8
TILE_LABELS
100
AcDbText
 10
27500.0001180489
 20
22500.00017930215
 30
0.0
 40
1000.0
  1
E-10
 41
1000.0
100
AcDbText
  0
TEXT
  5
3D2
330
1F
100
AcDbEntity
  8
TILE_LABELS
100
AcDbText
 10
32499.99996055953
 20
22500.00017930826
 30
0.0
 40
1000.0
  1
F-10
 41
1000.0
100
AcDbText
  0
TEXT
  5
3D3
330
1F
100
AcDbEntity
  8
TILE_LABELS
100
AcDbText
 10
37500.00013114864
 20
22500.00017930826
 30
0.0
 40
1000.0
  1
G-10
 41
1000.0
100
AcDbText
  0
TEXT
  5
3D4
330
1F
100
AcDbEntity
  8
TILE_LABELS
100
AcDbText
 10
42499.99997364285
 20
22500.00017930215
 30
0.0
 40
1000.0
  1
H-10
 41
1000.0
100
AcDbText
  0
TEXT
  5
3D5
330
1F
100
AcDbEntity
  8
TILE_LABELS
100
AcDbText
 10
47500.0001442323
 20
22500.0001793052
 30
0.0
 40
1000.0
  1
I-10
 41
1000.0
100
AcDbText
  0
TEXT
  5
3D6
330
1F
100
AcDbEntity
  8
TILE_LABELS
100
AcDbText
 10
7500.000091888213
 20
27500.00002180682
 30
0.0
 40
1000.0
  1
A-9
 41
1000.0
100
AcDbText
  0
TEXT
  5
3D7
330
1F
100
AcDbEntity
  8
TILE_LABELS
100
AcDbText
 10
12499.99993439357
 20
27500.0000218221
 30
0.0
 40
1000.0
  1
B-9
 41
1000.0
100
AcDbText
  0
TEXT
  5
3D8
330
1F
100
AcDbEntity
  8
TILE_LABELS
100
AcDbText
 10
17500.00010496871
 20
27500.00002180987
 30
0.0
 40
1000.0
  1
C-9
 41
1000.0
100
AcDbText
  0
TEXT
  5
3D9
330
1F
100
AcDbEntity
  8
TILE_LABELS
100
AcDbText
 10
22499.99994747598
 20
27500.00002180987
 30
0.0
 40
1000.0
  1
D-9
 41
1000.0
100
AcDbText
  0
TEXT
  5
3DA
330
1F
100
AcDbEntity
  8
TILE_LABELS
100
AcDbText
 10
27500.00011805124
 20
27500.00002181293
 30
0.0
 40
1000.0
  1
E-9
 41
1000.0
100
AcDbText
  0
TEXT
  5
3DB
330
1F
100
AcDbEntity
  8
TILE_LABELS
100
AcDbText
 10
32499.99996056173
 20
27500.00002181904
 30
0.0
 40
1000.0
  1
F-9
 41
1000.0
100
AcDbText
  0
TEXT
  5
3DC
330
1F
100
AcDbEntity
  8
TILE_LABELS
100
AcDbText
 10
37500.00013114909
 20
27500.00002180987
 30
0.0
 40
1000.0
  1
G-9
 41
1000.0
100
AcDbText
  0
TEXT
  5
3DD
330
1F
100
AcDbEntity
  8
TILE_LABELS
100
AcDbText
 10
42499.99997364266
 20
27500.00002181904
 30
0.0
 40
1000.0
  1
H-9
 41
1000.0
100
AcDbText
  0
TEXT
  5
3DE
330
1F
100
AcDbEntity
  8
TILE_LABELS
100
AcDbText
 10
47500.00014423025
 20
27500.00002181293
 30
0.0
 40
1000.0
  1
I-9
 41
1000.0
100
AcDbText
  0
TEXT
  5
3DF
330
1F
100
AcDbEntity
  8
TILE_LABELS
100
AcDbText
 10
52499.99998672633
 20
27500.00002180987
 30
0.0
 40
1000.0
  1
J-9
 41
1000.0
100
AcDbText
  0
TEXT
  5
3E0
330
1F
100
AcDbEntity
  8
TILE_LABELS
100
AcDbText
 10
12499.99993439323
 20
32500.00019238204
 30
0.0
 40
1000.0
  1
B-8
 41
1000.0
100
AcDbText
  0
TEXT
  5
3E1
330
1F
100
AcDbEntity
  8
TILE_LABELS
100
AcDbText
 10
17500.00010496241
 20
32500.00019239121
 30
0.0
 40
1000.0
  1
C-8
 41
1000.0
100
AcDbText
  0
TEXT
  5
3E2
330
1F
100
AcDbEntity
  8
TILE_LABELS
100
AcDbText
 10
22499.99994747595
 20
32500.00019238509
 30
0.0
 40
1000.0
  1
D-8
 41
1000.0
100
AcDbText
  0
TEXT
  5
3E3
330
1F
100
AcDbEntity
  8
TILE_LABELS
100
AcDbText
 10
27500.00011805012
 20
32500.00019238815
 30
0.0
 40
1000.0
  1
E-8
 41
1000.0
100
AcDbText
  0
TEXT
  5
3E4
330
1F
100
AcDbEntity
  8
TILE_LABELS
100
AcDbText
 10
32499.99996055895
 20
32500.00019238815
 30
0.0
 40
1000.0
  1
F-8
 41
1000.0
100
AcDbText
  0
TEXT
  5
3E5
330
1F
100
AcDbEntity
  8
TILE_LABELS
100
AcDbText
 10
37500.0001311485
 20
32500.00019238815
 30
0.0
 40
1000.0
  1
G-8
 41
1000.0
100
AcDbText
  0
TEXT
  5
3E6
330
1F
100
AcDbEntity
  8
TILE_LABELS
100
AcDbText
 10
42499.99997364469
 20
32500.00019238815
 30
0.0
 40
1000.0
  1
H-8
 41
1000.0
100
AcDbText
  0
TEXT
  5
3E7
330
1F
100
AcDbEntity
  8
TILE_LABELS
100
AcDbText
 10
47500.00014423285
 20
32500.00019237898
 30
0.0
 40
1000.0
  1
I-8
 41
1000.0
100
AcDbText
  0
TEXT
  5
3E8
330
1F
100
AcDbEntity
  8
TILE_LABELS
100
AcDbText
 10
22499.99994747715
 20
37500.00003489893
 30
0.0
 40
1000.0
  1
D-7
 41
1000.0
100
AcDbText
  0
TEXT
  5
3E9
330
1F
100
AcDbEntity
  8
TILE_LABELS
100
AcDbText
 10
27500.00011804894
 20
37500.00003489587
 30
0.0
 40
1000.0
  1
E-7
 41
1000.0
100
AcDbText
  0
TEXT
  5
3EA
330
1F
100
AcDbEntity
  8
TILE_LABELS
100
AcDbText
 10
32499.99996056023
 20
37500.00003489282
 30
0.0
 40
1000.0
  1
F-7
 41
1000.0
100
AcDbText
  0
TEXT
  5
3EB
330
1F
100
AcDbEntity
  8
TILE_LABELS
100
AcDbText
 10
37500.00013115148
 20
37500.00003489893
 30
0.0
 40
1000.0
  1
G-7
 41
1000.0
100
AcDbText
  0
TEXT
  5
3EC
330
1F
100
AcDbEntity
  8
TILE_LABELS
100
AcDbText
 10
42499.9999736419
 20
37500.00003489587
 30
0.0
 40
1000.0
  1
H-7
 41
1000.0
100
AcDbText
  0
TEXT
  5
3ED
330
1F
100
AcDbEntity
  8
TILE_LABELS
100
AcDbText
 10
47500.0001442319
 20
37500.00003490198
 30
0.0
 40
1000.0
  1
I-7
 41
1000.0
100
AcDbText
  0
TEXT
  5
3EE
330
1F
100
AcDbEntity
  8
TILE_LABELS
100
AcDbText
 10
52499.99998672566
 20
37500.00003489282
 30
0.0
 40
1000.0
  1
J-7
 41
1000.0
100
AcDbText
  0
TEXT
  5
3EF
330
1F
100
AcDbEntity
  8
TILE_LABELS
100
AcDbText
 10
57500.00015731035
 20
37500.00003489587
 30
0.0
 40
1000.0
  1
K-7
 41
1000.0
100
AcDbText
  0
TEXT
  5
3F0
330
1F
100
AcDbEntity
  8
TILE_LABELS
100
AcDbText
 10
62499.99999980822
 20
37500.00003489587
 30
0.0
 40
1000.0
  1
L-7
 41
1000.0
100
AcDbText
  0
TEXT
  5
3F1
330
1F
100
AcDbEntity
  8
TILE_LABELS
100
AcDbText
 10
67500.0001703994
 20
37500.00003490198
 30
0.0
 40
1000.0
  1
M-7
 41
1000.0
100
AcDbText
  0
TEXT
  5
3F2
330
1F
100
AcDbEntity
  8
TILE_LABELS
100
AcDbText
 10
72500.00001289201
 20
37500.00003489893
 30
0.0
 40
1000.0
  1
N-7
 41
1000.0
100
AcDbText
  0
TEXT
  5
3F3
330
1F
100
AcDbEntity
  8
TILE_LABELS
100
AcDbText
 10
77500.00018348223
 20
37500.00003489587
 30
0.0
 40
1000.0
  1
O-7
 41
1000.0
100
AcDbText
  0
TEXT
  5
3F4
330
1F
100
AcDbEntity
  8
TILE_LABELS
100
AcDbText
 10
82500.00002597648
 20
37500.00003489587
 30
0.0
 40
1000.0
  1
P-7
 41
1000.0
100
AcDbText
  0
TEXT
  5
3F5
330
1F
100
AcDbEntity
  8
TILE_LABELS
100
AcDbText
 10
12499.99993439411
 20
42500.00020546804
 30
0.0
 40
1000.0
  1
B-6
 41
1000.0
100
AcDbText
  0
TEXT
  5
3F6
330
1F
100
AcDbEntity
  8
TILE_LABELS
100
AcDbText
 10
17500.00010496888
 20
42500.00020547109
 30
0.0
 40
1000.0
  1
C-6
 41
1000.0
100
AcDbText
  0
TEXT
  5
3F7
330
1F
100
AcDbEntity
  8
TILE_LABELS
100
AcDbText
 10
22499.99994747548
 20
42500.00020546193
 30
0.0
 40
1000.0
  1
D-6
 41
1000.0
100
AcDbText
  0
TEXT
  5
3F8
330
1F
100
AcDbEntity
  8
TILE_LABELS
100
AcDbText
 10
27500.00011805027
 20
42500.0002054772
 30
0.0
 40
1000.0
  1
E-6
 41
1000.0
100
AcDbText
  0
TEXT
  5
3F9
330
1F
100
AcDbEntity
  8
TILE_LABELS
100
AcDbText
 10
32499.99996056111
 20
42500.00020547109
 30
0.0
 40
1000.0
  1
F-6
 41
1000.0
100
AcDbText
  0
TEXT
  5
3FA
330
1F
100
AcDbEntity
  8
TILE_LABELS
100
AcDbText
 10
37500.00013115
 20
42500.00020546804
 30
0.0
 40
1000.0
  1
G-6
 41
1000.0
100
AcDbText
  0
TEXT
  5
3FB
330
1F
100
AcDbEntity
  8
TILE_LABELS
100
AcDbText
 10
42499.99997364689
 20
42500.00020546499
 30
0.0
 40
1000.0
  1
H-6
 41
1000.0
100
AcDbText
  0
TEXT
  5
3FC
330
1F
100
AcDbEntity
  8
TILE_LABELS
100
AcDbText
 10
47500.00014423309
 20
42500.00020547109
 30
0.0
 40
1000.0
  1
I-6
 41
1000.0
100
AcDbText
  0
TEXT
  5
3FD
330
1F
100
AcDbEntity
  8
TILE_LABELS
100
AcDbText
 10
52499.99998672694
 20
42500.00020547109
 30
0.0
 40
1000.0
  1
J-6
 41
1000.0
100
AcDbText
  0
TEXT
  5
3FE
330
1F
100
AcDbEntity
  8
TILE_LABELS
100
AcDbText
 10
57500.00015731726
 20
42500.00020546804
 30
0.0
 40
1000.0
  1
K-6
 41
1000.0
100
AcDbText
  0
TEXT
  5
3FF
330
1F
100
AcDbEntity
  8
TILE_LABELS
100
AcDbText
 10
62499.99999980944
 20
42500.00020546499
 30
0.0
 40
1000.0
  1
L-6
 41
1000.0
100
AcDbText
  0
TEXT
  5
400
330
1F
100
AcDbEntity
  8
TILE_LABELS
100
AcDbText
 10
67500.00017039887
 20
42500.00020546499
 30
0.0
 40
1000.0
  1
M-6
 41
1000.0
100
AcDbText
  0
TEXT
  5
401
330
1F
100
AcDbEntity
  8
TILE_LABELS
100
AcDbText
 10
72500.000012894
 20
42500.00020547415
 30
0.0
 40
1000.0
  1
N-6
 41
1000.0
100
AcDbText
  0
TEXT
  5
402
330
1F
100
AcDbEntity
  8
TILE_LABELS
100
AcDbText
 10
77500.00018348238
 20
42500.00020547415
 30
0.0
 40
1000.0
  1
O-6
 41
1000.0
100
AcDbText
  0
TEXT
  5
403
330
1F
100
AcDbEntity
  8
TILE_LABELS
100
AcDbText
 10
82500.00002597757
 20
42500.00020547109
 30
0.0
 40
1000.0
  1
P-6
 41
1000.0
100
AcDbText
  0
TEXT
  5
404
330
1F
100
AcDbEntity
  8
TILE_LABELS
100
AcDbText
 10
12499.99993439469
 20
47500.00004797271
 30
0.0
 40
1000.0
  1
B-5
 41
1000.0
100
AcDbText
  0
TEXT
  5
405
330
1F
100
AcDbEntity
  8
TILE_LABELS
100
AcDbText
 10
17500.0001049689
 20
47500.00004797882
 30
0.0
 40
1000.0
  1
C-5
 41
1000.0
100
AcDbText
  0
TEXT
  5
406
330
1F
100
AcDbEntity
  8
TILE_LABELS
100
AcDbText
 10
22499.99994747776
 20
47500.00004798188
 30
0.0
 40
1000.0
  1
D-5
 41
1000.0
100
AcDbText
  0
TEXT
  5
407
330
1F
100
AcDbEntity
  8
TILE_LABELS
100
AcDbText
 10
27500.0001180492
 20
47500.00004797882
 30
0.0
 40
1000.0
  1
E-5
 41
1000.0
100
AcDbText
  0
TEXT
  5
408
330
1F
100
AcDbEntity
  8
TILE_LABELS
100
AcDbText
 10
32499.99996055859
 20
47500.00004797577
 30
0.0
 40
1000.0
  1
F-5
 41
1000.0
100
AcDbText
  0
TEXT
  5
409
330
1F
100
AcDbEntity
  8
TILE_LABELS
100
AcDbText
 10
37500.00013114976
 20
47500.00004797577
 30
0.0
 40
1000.0
  1
G-5
 41
1000.0
100
AcDbText
  0
TEXT
  5
40A
330
1F
100
AcDbEntity
  8
TILE_LABELS
100
AcDbText
 10
42499.99997364311
 20
47500.00004798188
 30
0.0
 40
1000.0
  1
H-5
 41
1000.0
100
AcDbText
  0
TEXT
  5
40B
330
1F
100
AcDbEntity
  8
TILE_LABELS
100
AcDbText
 10
47500.00014423209
 20
47500.00004797882
 30
0.0
 40
1000.0
  1
I-5
 41
1000.0
100
AcDbText
  0
TEXT
  5
40C
330
1F
100
AcDbEntity
  8
TILE_LABELS
100
AcDbText
 10
52499.99998672532
 20
47500.00004798188
 30
0.0
 40
1000.0
  1
J-5
 41
1000.0
100
AcDbText
  0
TEXT
  5
40D
330
1F
100
AcDbEntity
  8
TILE_LABELS
100
AcDbText
 10
57500.00015731348
 20
47500.00004798188
 30
0.0
 40
1000.0
  1
K-5
 41
1000.0
100
AcDbText
  0
TEXT
  5
40E
330
1F
100
AcDbEntity
  8
TILE_LABELS
100
AcDbText
 10
72500.00001289157
 20
47500.00004798188
 30
0.0
 40
1000.0
  1
N-5
 41
1000.0
100
AcDbText
  0
TEXT
  5
40F
330
1F
100
AcDbEntity
  8
TILE_LABELS
100
AcDbText
 10
12499.99993439485
 20
52500.00021855099
 30
0.0
 40
1000.0
  1
B-4
 41
1000.0
100
AcDbText
  0
TEXT
  5
410
330
1F
100
AcDbEntity
  8
TILE_LABELS
100
AcDbText
 10
17500.0001049684
 20
52500.0002185571
 30
0.0
 40
1000.0
  1
C-4
 41
1000.0
100
AcDbText
  0
TEXT
  5
411
330
1F
100
AcDbEntity
  8
TILE_LABELS
100
AcDbText
 10
22499.99994747755
 20
52500.00021854488
 30
0.0
 40
1000.0
  1
D-4
 41
1000.0
100
AcDbText
  0
TEXT
  5
412
330
1F
100
AcDbEntity
  8
TILE_LABELS
100
AcDbText
 10
27500.0001180521
 20
52500.00021855099
 30
0.0
 40
1000.0
  1
E-4
 41
1000.0
100
AcDbText
  0
TEXT
  5
413
330
1F
100
AcDbEntity
  8
TILE_LABELS
100
AcDbText
 10
32499.99996056172
 20
52500.00021855099
 30
0.0
 40
1000.0
  1
F-4
 41
1000.0
100
AcDbText
  0
TEXT
  5
414
330
1F
100
AcDbEntity
  8
TILE_LABELS
100
AcDbText
 10
37500.00013114881
 20
52500.00021854488
 30
0.0
 40
1000.0
  1
G-4
 41
1000.0
100
AcDbText
  0
TEXT
  5
415
330
1F
100
AcDbEntity
  8
TILE_LABELS
100
AcDbText
 10
42499.99997364164
 20
52500.00021855404
 30
0.0
 40
1000.0
  1
H-4
 41
1000.0
100
AcDbText
  0
TEXT
  5
416
330
1F
100
AcDbEntity
  8
TILE_LABELS
100
AcDbText
 10
47500.00014423218
 20
52500.00021855404
 30
0.0
 40
1000.0
  1
I-4
 41
1000.0
100
AcDbText
  0
TEXT
  5
417
330
1F
100
AcDbEntity
  8
TILE_LABELS
100
AcDbText
 10
52499.99998672687
 20
52500.0002185571
 30
0.0
 40
1000.0
  1
J-4
 41
1000.0
100
AcDbText
  0
TEXT
  5
418
330
1F
100
AcDbEntity
  8
TILE_LABELS
100
AcDbText
 10
57500.00015731126
 20
52500.0002185571
 30
0.0
 40
1000.0
  1
K-4
 41
1000.0
100
AcDbText
  0
TEXT
  5
419
330
1F
100
AcDbEntity
  8
TILE_LABELS
100
AcDbText
 10
62499.99999980979
 20
52500.00021855404
 30
0.0
 40
1000.0
  1
L-4
 41
1000.0
100
AcDbText
  0
TEXT
  5
41A
330
1F
100
AcDbEntity
  8
TILE_LABELS
100
AcDbText
 10
67500.00017039746
 20
52500.0002185571
 30
0.0
 40
1000.0
  1
M-4
 41
1000.0
100
AcDbText
  0
TEXT
  5
41B
330
1F
100
AcDbEntity
  8
TILE_LABELS
100
AcDbText
 10
72500.00001289138
 20
52500.00021855099
 30
0.0
 40
1000.0
  1
N-4
 41
1000.0
100
AcDbText
  0
TEXT
  5
41C
330
1F
100
AcDbEntity
  8
TILE_LABELS
100
AcDbText
 10
22499.99994747719
 20
57500.00006105871
 30
0.0
 40
1000.0
  1
D-3
 41
1000.0
100
AcDbText
  0
TEXT
  5
41D
330
1F
100
AcDbEntity
  8
TILE_LABELS
100
AcDbText
 10
27500.00011804911
 20
57500.00006106176
 30
0.0
 40
1000.0
  1
E-3
 41
1000.0
100
AcDbText
  0
TEXT
  5
41E
330
1F
100
AcDbEntity
  8
TILE_LABELS
100
AcDbText
 10
37500.00013114699
 20
57500.00006106176
 30
0.0
 40
1000.0
  1
G-3
 41
1000.0
100
AcDbText
  0
TEXT
  5
41F
330
1F
100
AcDbEntity
  8
TILE_LABELS
100
AcDbText
 10
42499.99997364383
 20
57500.00006106788
 30
0.0
 40
1000.0
  1
H-3
 41
1000.0
100
AcDbText
  0
TEXT
  5
420
330
1F
100
AcDbEntity
  8
TILE_LABELS
100
AcDbText
 10
47500.000144233
 20
57500.00006106176
 30
0.0
 40
1000.0
  1
I-3
 41
1000.0
100
AcDbText
  0
TEXT
  5
421
330
1F
100
AcDbEntity
  8
TILE_LABELS
100
AcDbText
 10
52499.99998672914
 20
57500.00006105871
 30
0.0
 40
1000.0
  1
J-3
 41
1000.0
100
AcDbText
  0
TEXT
  5
422
330
1F
100
AcDbEntity
  8
TILE_LABELS
100
AcDbText
 10
57500.00015731651
 20
57500.00006106482
 30
0.0
 40
1000.0
  1
K-3
 41
1000.0
100
AcDbText
  0
TEXT
  5
423
330
1F
100
AcDbEntity
  8
TILE_LABELS
100
AcDbText
 10
37500.00013114833
 20
62500.00023163393
 30
0.0
 40
1000.0
  1
G-2
 41
1000.0
100
AcDbText
  0
TEXT
  5
424
330
1F
100
AcDbEntity
  8
TILE_LABELS
100
AcDbText
 10
42499.99997364195
 20
62500.00023163087
 30
0.0
 40
1000.0
  1
H-2
 41
1000.0
100
AcDbText
  0
TEXT
  5
425
330
1F
100
AcDbEntity
  8
TILE_LABELS
100
AcDbText
 10
47500.00014423206
 20
62500.00023164004
 30
0.0
 40
1000.0
  1
I-2
 41
1000.0
100
AcDbText
  0
TEXT
  5
426
330
1F
100
AcDbEntity
  8
TILE_LABELS
100
AcDbText
 10
52499.99998672487
 20
62500.00023163699
 30
0.0
 40
1000.0
  1
J-2
 41
1000.0
100
AcDbText
  0
TEXT
  5
427
330
1F
100
AcDbEntity
  8
TILE_LABELS
100
AcDbText
 10
57500.00015731381
 20
62500.00023163699
 30
0.0
 40
1000.0
  1
K-2
 41
1000.0
100
AcDbText
  0
TEXT
  5
428
330
1F
100
AcDbEntity
  8
TILE_LABELS
100
AcDbText
 10
62499.99999980929
 20
62500.00023163393
 30
0.0
 40
1000.0
  1
L-2
 41
1000.0
100
AcDbText
  0
TEXT
  5
429
330
1F
100
AcDbEntity
  8
TILE_LABELS
100
AcDbText
 10
57500.00015731544
 20
67500.00007414471
 30
0.0
 40
1000.0
  1
K-1
 41
1000.0
100
AcDbText
  0
TEXT
  5
42A
330
1F
100
AcDbEntity
  8
TILE_LABELS
100
AcDbText
 10
62499.99999980856
 20
67500.0000741386
 30
0.0
 40
1000.0
  1
L-1
 41
1000.0
100
AcDbText
  0
ENDSEC
  0
SECTION
  2
OBJECTS
  0
DICTIONARY
  5
C
330
0
100
AcDbDictionary
  3
ACAD_GROUP
350
D
  3
ACAD_LAYOUT
350
1A
  3
ACAD_MATERIAL
350
43
  3
ACAD_MLEADERSTYLE
350
5B
  3
ACAD_MLINESTYLE
350
17
  3
ACAD_PLOTSETTINGS
350
19
  3
ACAD_SCALELIST
350
47
  3
ACAD_VISUALSTYLE
350
2A
  3
ACDBHEADERROUNDTRIPXREC
350
42C
  3
ACDBVARIABLEDICTIONARY
350
7F
  3
DWGPROPS
350
450
  3
ESRI_PRJ
350
FD
  0
DICTIONARY
  5
451
330
8
100
AcDbDictionary
280
     1
  3
ACAD_XREC_ROUNDTRIP
360
452
  0
DICTIONARY
  5
D
102
{ACAD_REACTORS
330
C
102
}
330
C
100
AcDbDictionary
  0
DICTIONARY
  5
1A
102
{ACAD_REACTORS
330
C
102
}
330
C
100
AcDbDictionary
  0
DICTIONARY
  5
43
102
{ACAD_REACTORS
330
C
102
}
330
C
100
AcDbDictionary
  3
BYBLOCK
350
45
  3
BYLAYER
350
44
  3
GLOBAL
350
46
  0
DICTIONARY
  5
5B
102
{ACAD_REACTORS
330
C
102
}
330
C
100
AcDbDictionary
  3
STANDARD
350
5C
  0
DICTIONARY
  5
17
102
{ACAD_REACTORS
330
C
102
}
330
C
100
AcDbDictionary
  3
STANDARD
350
18
  0
DICTIONARY
  5
19
102
{ACAD_REACTORS
330
C
102
}
330
C
100
AcDbDictionary
  0
DICTIONARY
  5
47
102
{ACAD_REACTORS
330
C
102
}
330
C
100
AcDbDictionary
  3
A0
350
48
  3
A1
350
49
  3
A2
350
4A
  3
A3
350
4B
  3
A4
350
4C
  3
A5
350
4D
  3
A6
350
4E
  3
A7
350
4F
  3
A8
350
50
  3
A9
350
51
  3
B1
350
52
  3
B2
350
53
  3
B3
350
54
  3
B4
350
55
  3
B5
350
56
  3
B6
350
57
  3
B7
350
58
  0
DICTIONARY
  5
2A
102
{ACAD_REACTORS
330
C
102
}
330
C
100
AcDbDictionary
  3
2DWIREFRAME
350
2F
  3
BASIC
350
32
  3
BRIGHTEN
350
36
  3
COLORCHANGE
350
3A
  3
CONCEPTUAL
350
34
  3
DIM
350
35
  3
EDGECOLOROFF
350
3D
  3
FACEPATTERN
350
39
  3
FLAT
350
2B
  3
FLATWITHEDGES
350
2C
  3
GOURAUD
350
2D
  3
GOURAUDWITHEDGES
350
2E
  3
HIDDEN
350
31
  3
JITTEROFF
350
3B
  3
LINEPATTERN
350
38
  3
OVERHANGOFF
350
3C
  3
REALISTIC
350
33
  3
SHADED
350
42
  3
Shaded with edges
350
3BE
  3
SHADED_WITH_EDGE0
350
41
  3
SHADED_WITH_EDGES
350
12F
  3
Shades of Gray
350
3BD
  3
SHADES_OF_GRA0
350
3E
  3
SHADES_OF_GRAY
350
12E
  3
SKETCHY
350
3F
  3
THICKEN
350
37
  3
WIREFRAME
350
30
  3
X-RAY
350
40
  0
DICTIONARY
  5
42C
102
{ACAD_REACTORS
330
C
102
}
330
C
100
AcDbDictionary
  3
CEPSNID
350
436
  3
CEPSNTYPE
350
435
  3
DIMSTYLEDATA
350
44C
  3
FINGERPRINTGUID
350
437
  3
HYPERLINKBASE
350
42F
  3
INSUNITS
350
434
  3
LAYOUTDICT
350
431
  3
LWETCUNION
350
433
  3
PLOTSETDICT
350
432
  3
PSVPSCALE
350
439
  3
PUCSBASE
350
43C
  3
PUCSORGBACK
350
442
  3
PUCSORGBOTTOM
350
43E
  3
PUCSORGFRONT
350
441
  3
PUCSORGLEFT
350
43F
  3
PUCSORGRIGHT
350
440
  3
PUCSORGTOP
350
43D
  3
PUCSORTHOREF
350
43A
  3
PUCSORTHOVIEW
350
43B
  3
STYLESHEET
350
430
  3
TSTACKALIGN
350
42D
  3
TSTACKSIZE
350
42E
  3
UCSBASE
350
445
  3
UCSORGBACK
350
44B
  3
UCSORGBOTTOM
350
447
  3
UCSORGFRONT
350
44A
  3
UCSORGLEFT
350
448
  3
UCSORGRIGHT
350
449
  3
UCSORGTOP
350
446
  3
UCSORTHOREF
350
443
  3
UCSORTHOVIEW
350
444
  3
VERSIONGUID
350
438
  0
DICTIONARY
  5
7F
102
{ACAD_REACTORS
330
C
102
}
330
C
100
AcDbDictionary
  3
CANNOSCALE
350
453
  3
CMLEADERSTYLE
350
81
  3
CTABLESTYLE
350
44D
  3
DIMASSOC
350
84
  3
HIDETEXT
350
85
  3
MSLTSCALE
350
8A
  0
XRECORD
  5
450
102
{ACAD_REACTORS
330
C
102
}
330
C
100
AcDbXrecord
  1
DWGPROPS COOKIE
  2

  3

  4

  6

  7

  8
pbcote
  9

300
=
301
=
302
=
303
=
304
=
305
=
306
=
307
=
308
=
309
=
 40
0.0
 41
2459399.541828276
 42
2459399.541838947
  1

 90
        0
  0
XRECORD
  5
FD
102
{ACAD_REACTORS
330
C
102
}
330
C
100
AcDbXrecord
  1
PROJCS["Bos_MaSP_USFt_Shift",GEOGCS["GCS_North_American_1983",DATUM["D_North_American_1983",SPHEROID["GRS_1980",6378137.0,298.257222101]],PRIMEM["Greenwich",0.0],UNIT["Degree",0.0174532925199433]],PROJECTION["Lambert_Conformal_Conic"],PARAMETER["False_Easting",-74933.33333333],PARAMETER["False_Northing",-442275.0],PARAMETER["Central_Meridian",-71.5],PARAMETER["Standard_Parallel_1",41.71666666666667],PARAMETER["Standard_Parallel_2",42.68333333333333],PARAMETER["Scale_Factor",1.0],PARAMETER["Latitude_Of_Origin",41.0],UNIT["Foot_US",0.3048006096012192]],VERTCS["NAVD88_height_(ftUS)",VDATUM["North_American_Vertical_Datum_1988"],PARAMETER["Vertical_Shift",0.0],PARAMETER["Direction",1.0],UNIT["Foot_US",0.3048006096012192]]
  0
XRECORD
  5
452
102
{ACAD_REACTORS
330
451
102
}
330
451
100
AcDbXrecord
102
VTR_0.000_0.000_1.000_1.000_VISUALSTYLE
340
2F
102
VTR_0.000_0.000_1.000_1.000_GRIDDISPLAY
 70
     3
102
VTR_0.000_0.000_1.000_1.000_GRIDMAJOR
 70
     5
102
VTR_0.000_0.000_1.000_1.000_DEFAULTLIGHTING
280
     1
102
VTR_0.000_0.000_1.000_1.000_DEFAULTLIGHTINGTYPE
 70
     1
102
VTR_0.000_0.000_1.000_1.000_BRIGHTNESS
141
0.0
102
VTR_0.000_0.000_1.000_1.000_CONTRAST
142
0.0
  0
MATERIAL
  5
45
102
{ACAD_REACTORS
330
43
102
}
102
{ACAD_XDICTIONARY
360
454
102
}
330
43
100
AcDbMaterial
  1
BYBLOCK
  0
MATERIAL
  5
44
102
{ACAD_REACTORS
330
43
102
}
102
{ACAD_XDICTIONARY
360
456
102
}
330
43
100
AcDbMaterial
  1
BYLAYER
  0
MATERIAL
  5
46
102
{ACAD_REACTORS
330
43
102
}
102
{ACAD_XDICTIONARY
360
458
102
}
330
43
100
AcDbMaterial
  1
GLOBAL
  0
ACAD_PROXY_OBJECT
  5
5C
102
{ACAD_REACTORS
330
5B
102
}
330
5B
100
AcDbProxyObject
 90
      499
 91
      505
 93
      610
310
40901902A4063FBFFFFFE056BD1B81E855B9FC0AD7A3703D0AD73F4214DD185B99185C9900AD7A3703D0AC73F90141901A02B5E8DC0F42B1CFC02B5E8DC0F42B1CFE5764000000000000300FC0
340
14
340
0
340
11
340
0
 94
        0
1001
ACAD_MLEADERVER
1070
     2
  0
MLINESTYLE
  5
18
102
{ACAD_REACTORS
330
17
102
}
330
17
100
AcDbMlineStyle
  2
Standard
 70
     0
  3

 62
   256
 51
90.0
 52
90.0
 71
     2
 49
0.5
 62
   256
  6
BYLAYER
 49
-0.5
 62
   256
  6
BYLAYER
  0
ACAD_PROXY_OBJECT
  5
48
102
{ACAD_REACTORS
330
47
102
}
330
47
100
AcDbProxyObject
 90
      499
 91
      503
 93
       41
310
903313A31580
  0
ACAD_PROXY_OBJECT
  5
49
102
{ACAD_REACTORS
330
47
102
}
330
47
100
AcDbProxyObject
 90
      499
 91
      503
 93
      257
310
90E312F31323822203D2031272D3022000000000000200FC000000000000284000
  0
ACAD_PROXY_OBJECT
  5
4A
102
{ACAD_REACTORS
330
47
102
}
330
47
100
AcDbProxyObject
 90
      499
 91
      503
 93
      249
310
90D312F363422203D2031272D3022000000000000240FC000000000000284000
  0
ACAD_PROXY_OBJECT
  5
4B
102
{ACAD_REACTORS
330
47
102
}
330
47
100
AcDbProxyObject
 90
      499
 91
      503
 93
      249
310
90D312F333222203D2031272D3022000000000000280FC000000000000284000
  0
ACAD_PROXY_OBJECT
  5
4C
102
{ACAD_REACTORS
330
47
102
}
330
47
100
AcDbProxyObject
 90
      499
 91
      503
 93
      249
310
90D312F313622203D2031272D30220000000000002C0FC000000000000284000
  0
ACAD_PROXY_OBJECT
  5
4D
102
{ACAD_REACTORS
330
47
102
}
330
47
100
AcDbProxyObject
 90
      499
 91
      503
 93
      249
310
90D332F333222203D2031272D30220000000000002E0FC000000000000284000
  0
ACAD_PROXY_OBJECT
  5
4E
102
{ACAD_REACTORS
330
47
102
}
330
47
100
AcDbProxyObject
 90
      499
 91
      503
 93
      241
310
90C312F3822203D2031272D3022000000000000300FC000000000000284000
  0
ACAD_PROXY_OBJECT
  5
4F
102
{ACAD_REACTORS
330
47
102
}
330
47
100
AcDbProxyObject
 90
      499
 91
      503
 93
      249
310
90D332F313622203D2031272D3022000000000000320FC000000000000284000
  0
ACAD_PROXY_OBJECT
  5
50
102
{ACAD_REACTORS
330
47
102
}
330
47
100
AcDbProxyObject
 90
      499
 91
      503
 93
      241
310
90C312F3422203D2031272D3022000000000000340FC000000000000284000
  0
ACAD_PROXY_OBJECT
  5
51
102
{ACAD_REACTORS
330
47
102
}
330
47
100
AcDbProxyObject
 90
      499
 91
      503
 93
      241
310
90C332F3822203D2031272D3022000000000000360FC000000000000284000
  0
ACAD_PROXY_OBJECT
  5
52
102
{ACAD_REACTORS
330
47
102
}
330
47
100
AcDbProxyObject
 90
      499
 91
      503
 93
      241
310
90C312F3222203D2031272D3022000000000000380FC000000000000284000
  0
ACAD_PROXY_OBJECT
  5
53
102
{ACAD_REACTORS
330
47
102
}
330
47
100
AcDbProxyObject
 90
      499
 91
      503
 93
      241
310
90C332F3422203D2031272D30220000000000003A0FC000000000000284000
  0
ACAD_PROXY_OBJECT
  5
54
102
{ACAD_REACTORS
330
47
102
}
330
47
100
AcDbProxyObject
 90
      499
 91
      503
 93
      161
310
90A3122203D2031272D30224000000000000284000
  0
ACAD_PROXY_OBJECT
  5
55
102
{ACAD_REACTORS
330
47
102
}
330
47
100
AcDbProxyObject
 90
      499
 91
      503
 93
      257
310
90E312D312F3222203D2031272D30220000000000003E0FC000000000000284000
  0
ACAD_PROXY_OBJECT
  5
56
102
{ACAD_REACTORS
330
47
102
}
330
47
100
AcDbProxyObject
 90
      499
 91
      503
 93
      225
310
90A3322203D2031272D302200000000000002100000000000000284000
  0
ACAD_PROXY_OBJECT
  5
57
102
{ACAD_REACTORS
330
47
102
}
330
47
100
AcDbProxyObject
 90
      499
 91
      503
 93
      225
310
90A3622203D2031272D302200000000000006100000000000000284000
  0
ACAD_PROXY_OBJECT
  5
58
102
{ACAD_REACTORS
330
47
102
}
330
47
100
AcDbProxyObject
 90
      499
 91
      503
 93
      249
310
90D31272D3022203D2031272D30220000000000000A100000000000000284000
  0
ACAD_PROXY_OBJECT
  5
2F
102
{ACAD_REACTORS
330
2A
102
}
330
2A
100
AcDbProxyObject
 90
      499
 91
      501
 93
      436
310
42CC9915DA5C99599C985B595049028333333333333E33F0000000000000F90107901411070040501600405405064090741402480A0340
1001
ACAD
1000
AcDbSavedByObjectVersion
1070
     0
  0
ACAD_PROXY_OBJECT
  5
32
102
{ACAD_REACTORS
330
2A
102
}
330
2A
100
AcDbProxyObject
 90
      499
 91
      501
 93
      388
310
4150985CDA58D07406404333333333333E33F0000000000000F90107A41107004050150841D405064090741402480A0350
1001
ACAD
1000
AcDbSavedByObjectVersion
1070
     0
  0
ACAD_PROXY_OBJECT
  5
36
102
{ACAD_REACTORS
330
2A
102
}
330
2A
100
AcDbProxyObject
 90
      499
 91
      501
 93
      428
310
42109C9A59DA1D195B90C409028333333333333E33F0000000000000F9010790141107004050150841D405064090741402480A029950
1001
ACAD
1000
AcDbSavedByObjectVersion
1070
     0
  0
ACAD_PROXY_OBJECT
  5
3A
102
{ACAD_REACTORS
330
2A
102
}
330
2A
100
AcDbProxyObject
 90
      499
 91
      501
 93
      452
310
42D0DBDB1BDC90DA185B99D95104090240C333333333333E33F0000000000000F90108901411070040501508421405064090741402480A0350
1001
ACAD
1000
AcDbSavedByObjectVersion
1070
     0
  0
ACAD_PROXY_OBJECT
  5
34
102
{ACAD_REACTORS
330
2A
102
}
330
2A
100
AcDbProxyObject
 90
      499
 91
      501
 93
      500
310
4290DBDB98D95C1D1D585B10940D028333333333333E33F0000000000000F90107902409070040501000000000018199010841D405064090740C02480A0340
1001
ACAD
1000
AcDbSavedByObjectVersion
1070
     0
  0
ACAD_PROXY_OBJECT
  5
35
102
{ACAD_REACTORS
330
2A
102
}
330
2A
100
AcDbProxyObject
 90
      499
 91
      501
 93
      412
310
40D11A5B50B409028333333333333E33F0000000000000F9010790141107004050150841D405064090741402480A02677FFFFFD0
1001
ACAD
1000
AcDbSavedByObjectVersion
1070
     0
  0
ACAD_PROXY_OBJECT
  5
3D
102
{ACAD_REACTORS
330
2A
102
}
330
2A
100
AcDbProxyObject
 90
      499
 91
      501
 93
      452
310
43115919D950DBDB1BDC93D999916409028333333333333E33F0000000000000F9010790141107004050150841D405064090741402480A0350
1001
ACAD
1000
AcDbSavedByObjectVersion
1070
     0
  0
ACAD_PROXY_OBJECT
  5
39
102
{ACAD_REACTORS
330
2A
102
}
330
2A
100
AcDbProxyObject
 90
      499
 91
      501
 93
      444
310
42D19858D95C185D1D195C9B90F409028333333333333E33F0000000000000F9010790141107004050150841D405064090741402480A0350
1001
ACAD
1000
AcDbSavedByObjectVersion
1070
     0
  0
ACAD_PROXY_OBJECT
  5
2B
102
{ACAD_REACTORS
330
2A
102
}
330
2A
100
AcDbProxyObject
 90
      499
 91
      501
 93
      380
310
41119B185D240901404333333333333E33F0000000000000F9010740A907004050150841D405064090741402480A1B50
1001
ACAD
1000
AcDbSavedByObjectVersion
1070
     0
  0
ACAD_PROXY_OBJECT
  5
2C
102
{ACAD_REACTORS
330
2A
102
}
330
2A
100
AcDbProxyObject
 90
      499
 91
      501
 93
      468
310
43519B185D15DA5D1A115919D95CD0140901404333333333333E33F0000000000000F90107409019070040501600405405064090741402480A1B50
1001
ACAD
1000
AcDbSavedByObjectVersion
1070
     0
  0
ACAD_PROXY_OBJECT
  5
2D
102
{ACAD_REACTORS
330
2A
102
}
330
2A
100
AcDbProxyObject
 90
      499
 91
      501
 93
      404
310
41D1DBDD5C985D5910240902404333333333333E33F0000000000000F9010740A9070040501641D405064090741402480A1B50
1001
ACAD
1000
AcDbSavedByObjectVersion
1070
     0
  0
ACAD_PROXY_OBJECT
  5
2E
102
{ACAD_REACTORS
330
2A
102
}
330
2A
100
AcDbProxyObject
 90
      499
 91
      501
 93
      492
310
4411DBDD5C985D5915DA5D1A115919D95CD0340902404333333333333E33F0000000000000F90107409019070040501600405405064090741402480A1B50
1001
ACAD
1000
AcDbSavedByObjectVersion
1070
     0
  0
ACAD_PROXY_OBJECT
  5
31
102
{ACAD_REACTORS
330
2A
102
}
330
2A
100
AcDbProxyObject
 90
      499
 91
      501
 93
      476
310
41921A5919195B90640502408333333333333E33F0000000000000F901079024090700405020000000000001110200405405064090740C02480A0340
1001
ACAD
1000
AcDbSavedByObjectVersion
1070
     0
  0
ACAD_PROXY_OBJECT
  5
3B
102
{ACAD_REACTORS
330
2A
102
}
330
2A
100
AcDbProxyObject
 90
      499
 91
      501
 93
      428
310
42529A5D1D195C93D999914409028333333333333E33F0000000000000F9010790141107004050150A41D405064090741402480A0350
1001
ACAD
1000
AcDbSavedByObjectVersion
1070
     0
  0
ACAD_PROXY_OBJECT
  5
38
102
{ACAD_REACTORS
330
2A
102
}
330
2A
100
AcDbProxyObject
 90
      499
 91
      501
 93
      444
310
42D31A5B995C185D1D195C9B90E409028333333333333E33F0000000000000F9010790141107004050750841D405064090741402483A0350
1001
ACAD
1000
AcDbSavedByObjectVersion
1070
     0
  0
ACAD_PROXY_OBJECT
  5
3C
102
{ACAD_REACTORS
330
2A
102
}
330
2A
100
AcDbProxyObject
 90
      499
 91
      501
 93
      444
310
42D3DD995C9A185B99D3D999915409028333333333333E33F0000000000000F9010790141107004050150941D405064090741402480A0350
1001
ACAD
1000
AcDbSavedByObjectVersion
1070
     0
  0
ACAD_PROXY_OBJECT
  5
33
102
{ACAD_REACTORS
330
2A
102
}
330
2A
100
AcDbProxyObject
 90
      499
 91
      501
 93
      428
310
425499585B1A5CDD1A58D08409038333333333333E33F0000000000000F9010740A907004050150800405405064090740C02480A1B40
1001
ACAD
1000
AcDbSavedByObjectVersion
1070
     0
  0
ACAD_PROXY_OBJECT
  5
42
102
{ACAD_REACTORS
330
2A
102
}
330
2A
100
AcDbProxyObject
 90
      499
 91
      501
 93
      420
310
4194DA1859195911B40902404333333333333E33F0000000000000F9010740A41107004050150800405405064090840C02480A0B40
1001
ACAD
1000
AcDbSavedByObjectVersion
1070
     0
  0
ACAD_PROXY_OBJECT
  5
3BE
102
{ACAD_REACTORS
330
2A
102
}
330
2A
100
AcDbProxyObject
 90
      499
 91
      501
 93
      516
310
4454DA18591959081DDA5D1A08195919D95CD1A40902404333333333333E33F0000000000000F901074090142907004050250800405405064090740C02480A0B40
1001
ACAD
1000
AcDbSavedByObjectVersion
1070
     0
  0
ACAD_PROXY_OBJECT
  5
41
102
{ACAD_REACTORS
330
2A
102
}
330
2A
100
AcDbProxyObject
 90
      499
 91
      501
 93
      516
310
4454DA18591959081DDA5D1A08195919D95CD1A40902404333333333333E33F0000000000000F901074090142907004050250800405405064090740C02480A0B40
1001
ACAD
1000
AcDbSavedByObjectVersion
1070
     0
  0
ACAD_PROXY_OBJECT
  5
12F
102
{ACAD_REACTORS
330
2A
102
}
330
2A
100
AcDbProxyObject
 90
      499
 91
      501
 93
      516
310
4454DA18591959081DDA5D1A08195919D95CD1A40902404333333333333E33F0000000000000F901074090142907004050250800405405064090740C02480A0B40
1001
ACAD
1000
AcDbSavedByObjectVersion
1070
     0
  0
ACAD_PROXY_OBJECT
  5
3BD
102
{ACAD_REACTORS
330
2A
102
}
330
2A
100
AcDbProxyObject
 90
      499
 91
      501
 93
      532
310
4394DA1859195CC81BD98811DC985E5174090240C333333333333E33F0000000000000F901079024090741D01000000000000111010841D405064090740C02480A0340
1001
ACAD
1000
AcDbSavedByObjectVersion
1070
     0
  0
ACAD_PROXY_OBJECT
  5
3E
102
{ACAD_REACTORS
330
2A
102
}
330
2A
100
AcDbProxyObject
 90
      499
 91
      501
 93
      532
310
4394DA1859195CC81BD98811DC985E5174090240C333333333333E33F0000000000000F901079024090741D01000000000000111010841D405064090740C02480A0340
1001
ACAD
1000
AcDbSavedByObjectVersion
1070
     0
  0
ACAD_PROXY_OBJECT
  5
12E
102
{ACAD_REACTORS
330
2A
102
}
330
2A
100
AcDbProxyObject
 90
      499
 91
      501
 93
      532
310
4394DA1859195CC81BD98811DC985E5174090240C333333333333E33F0000000000000F901079024090741D01000000000000111010841D405064090740C02480A0340
1001
ACAD
1000
AcDbSavedByObjectVersion
1070
     0
  0
ACAD_PROXY_OBJECT
  5
3F
102
{ACAD_REACTORS
330
2A
102
}
330
2A
100
AcDbProxyObject
 90
      499
 91
      501
 93
      476
310
41D4DAD95D18DA1E51840502408333333333333E33F0000000000000F901079024090741D01000000000000111010B41D405064090741802480A0340
1001
ACAD
1000
AcDbSavedByObjectVersion
1070
     0
  0
ACAD_PROXY_OBJECT
  5
37
102
{ACAD_REACTORS
330
2A
102
}
330
2A
100
AcDbProxyObject
 90
      499
 91
      501
 93
      412
310
41D51A1A58DAD95B90D409028333333333333E33F0000000000000F9010790141107004050150C41D405064090741402480A0350
1001
ACAD
1000
AcDbSavedByObjectVersion
1070
     0
  0
ACAD_PROXY_OBJECT
  5
30
102
{ACAD_REACTORS
330
2A
102
}
330
2A
100
AcDbProxyObject
 90
      499
 91
      501
 93
      420
310
4255DA5C99599C985B595059028333333333333E33F0000000000000F90107901411070040501600405405064090740C02480A0340
1001
ACAD
1000
AcDbSavedByObjectVersion
1070
     0
  0
ACAD_PROXY_OBJECT
  5
40
102
{ACAD_REACTORS
330
2A
102
}
330
2A
100
AcDbProxyObject
 90
      499
 91
      501
 93
      404
310
41560B54985E51940902404000000000000E03F0000000000000F9010740501907004050150841D405064090740C02480A1B40
1001
ACAD
1000
AcDbSavedByObjectVersion
1070
     0
  0
XRECORD
  5
436
102
{ACAD_REACTORS
330
42C
102
}
330
42C
100
AcDbXrecord
340
0
  0
XRECORD
  5
435
102
{ACAD_REACTORS
330
42C
102
}
330
42C
100
AcDbXrecord
 90
        0
  0
XRECORD
  5
44C
102
{ACAD_REACTORS
330
42C
102
}
330
42C
100
AcDbXrecord
1000
DSTYLE
1002
{
1070
   279
 70
     2
1070
   340
340
11
1002
}
  0
XRECORD
  5
437
102
{ACAD_REACTORS
330
42C
102
}
330
42C
100
AcDbXrecord
  1
{a3c491f6-21ce-4ba0-828b-700554288c55}
  0
XRECORD
  5
42F
102
{ACAD_REACTORS
330
42C
102
}
330
42C
100
AcDbXrecord
  1

  0
XRECORD
  5
434
102
{ACAD_REACTORS
330
42C
102
}
330
42C
100
AcDbXrecord
 90
        1
  0
XRECORD
  5
431
102
{ACAD_REACTORS
330
42C
102
}
330
42C
100
AcDbXrecord
340
1A
  0
XRECORD
  5
433
102
{ACAD_REACTORS
330
42C
102
}
330
42C
100
AcDbXrecord
 90
    10781
  0
XRECORD
  5
432
102
{ACAD_REACTORS
330
42C
102
}
330
42C
100
AcDbXrecord
340
19
  0
XRECORD
  5
439
102
{ACAD_REACTORS
330
42C
102
}
330
42C
100
AcDbXrecord
 40
0.0
  0
XRECORD
  5
43C
102
{ACAD_REACTORS
330
42C
102
}
330
42C
100
AcDbXrecord
340
0
  0
XRECORD
  5
442
102
{ACAD_REACTORS
330
42C
102
}
330
42C
100
AcDbXrecord
 10
0.0
 20
0.0
 30
0.0
  0
XRECORD
  5
43E
102
{ACAD_REACTORS
330
42C
102
}
330
42C
100
AcDbXrecord
 10
0.0
 20
0.0
 30
0.0
  0
XRECORD
  5
441
102
{ACAD_REACTORS
330
42C
102
}
330
42C
100
AcDbXrecord
 10
0.0
 20
0.0
 30
0.0
  0
XRECORD
  5
43F
102
{ACAD_REACTORS
330
42C
102
}
330
42C
100
AcDbXrecord
 10
0.0
 20
0.0
 30
0.0
  0
XRECORD
  5
440
102
{ACAD_REACTORS
330
42C
102
}
330
42C
100
AcDbXrecord
 10
0.0
 20
0.0
 30
0.0
  0
XRECORD
  5
43D
102
{ACAD_REACTORS
330
42C
102
}
330
42C
100
AcDbXrecord
 10
0.0
 20
0.0
 30
0.0
  0
XRECORD
  5
43A
102
{ACAD_REACTORS
330
42C
102
}
330
42C
100
AcDbXrecord
340
0
  0
XRECORD
  5
43B
102
{ACAD_REACTORS
330
42C
102
}
330
42C
100
AcDbXrecord
 70
     0
  0
XRECORD
  5
430
102
{ACAD_REACTORS
330
42C
102
}
330
42C
100
AcDbXrecord
  1

  0
XRECORD
  5
42D
102
{ACAD_REACTORS
330
42C
102
}
330
42C
100
AcDbXrecord
 90
        1
  0
XRECORD
  5
42E
102
{ACAD_REACTORS
330
42C
102
}
330
42C
100
AcDbXrecord
 90
       70
  0
XRECORD
  5
445
102
{ACAD_REACTORS
330
42C
102
}
330
42C
100
AcDbXrecord
340
0
  0
XRECORD
  5
44B
102
{ACAD_REACTORS
330
42C
102
}
330
42C
100
AcDbXrecord
 10
0.0
 20
0.0
 30
0.0
  0
XRECORD
  5
447
102
{ACAD_REACTORS
330
42C
102
}
330
42C
100
AcDbXrecord
 10
0.0
 20
0.0
 30
0.0
  0
XRECORD
  5
44A
102
{ACAD_REACTORS
330
42C
102
}
330
42C
100
AcDbXrecord
 10
0.0
 20
0.0
 30
0.0
  0
XRECORD
  5
448
102
{ACAD_REACTORS
330
42C
102
}
330
42C
100
AcDbXrecord
 10
0.0
 20
0.0
 30
0.0
  0
XRECORD
  5
449
102
{ACAD_REACTORS
330
42C
102
}
330
42C
100
AcDbXrecord
 10
0.0
 20
0.0
 30
0.0
  0
XRECORD
  5
446
102
{ACAD_REACTORS
330
42C
102
}
330
42C
100
AcDbXrecord
 10
0.0
 20
0.0
 30
0.0
  0
XRECORD
  5
443
102
{ACAD_REACTORS
330
42C
102
}
330
42C
100
AcDbXrecord
340
0
  0
XRECORD
  5
444
102
{ACAD_REACTORS
330
42C
102
}
330
42C
100
AcDbXrecord
 70
     0
  0
XRECORD
  5
438
102
{ACAD_REACTORS
330
42C
102
}
330
42C
100
AcDbXrecord
  1
{FAEB1C32-E019-11D5-929B-00C0DF256EC4}
  0
DICTIONARYVAR
  5
453
102
{ACAD_REACTORS
330
7F
102
}
330
7F
100
DictionaryVariables
280
     0
  1
1:1
  0
DICTIONARYVAR
  5
81
102
{ACAD_REACTORS
330
7F
102
}
330
7F
100
DictionaryVariables
280
     0
  1
STANDARD
  0
DICTIONARYVAR
  5
44D
102
{ACAD_REACTORS
330
7F
102
}
330
7F
100
DictionaryVariables
280
     0
  1
Standard
  0
DICTIONARYVAR
  5
84
102
{ACAD_REACTORS
330
7F
102
}
330
7F
100
DictionaryVariables
280
     0
  1
2
  0
DICTIONARYVAR
  5
85
102
{ACAD_REACTORS
330
7F
102
}
330
7F
100
DictionaryVariables
280
     0
  1
1
  0
DICTIONARYVAR
  5
8A
102
{ACAD_REACTORS
330
7F
102
}
330
7F
100
DictionaryVariables
280
     0
  1
1
  0
DICTIONARY
  5
454
330
45
100
AcDbDictionary
280
     1
  3
ACAD_XREC_ROUNDTRIP
360
455
  0
DICTIONARY
  5
456
330
44
100
AcDbDictionary
280
     1
  3
ACAD_XREC_ROUNDTRIP
360
457
  0
DICTIONARY
  5
458
330
46
100
AcDbDictionary
280
     1
  3
ACAD_XREC_ROUNDTRIP
360
459
  0
XRECORD
  5
455
102
{ACAD_REACTORS
330
454
102
}
330
454
100
AcDbXrecord
102
MATERIAL
148
0.0
149
0.0
149
0.0
 93
        0
 94
      127
282
     0
 72
     1
 77
     1
171
     1
175
     1
179
     1
273
     0
  0
XRECORD
  5
457
102
{ACAD_REACTORS
330
456
102
}
330
456
100
AcDbXrecord
102
MATERIAL
148
0.0
149
0.0
149
0.0
 93
        0
 94
      127
282
     0
 72
     1
 77
     1
171
     1
175
     1
179
     1
273
     0
  0
XRECORD
  5
459
102
{ACAD_REACTORS
330
458
102
}
330
458
100
AcDbXrecord
102
MATERIAL
148
0.0
149
0.0
149
0.0
 93
        0
 94
      127
282
     0
 72
     1
 77
     1
171
     1
175
     1
179
     1
273
     0
  0
ENDSEC
  0
EOF
