  0
SECTION
  2
HEADER
  9
$ACADVER
  1
AC1014
  9
$ACADMAINTVER
 70
     9
  9
$DWGCODEPAGE
  3
ANSI_1252
  9
$INSBASE
 10
0.0
 20
0.0
 30
0.0
  9
$EXTMIN
 10
731100.0000000894
 20
2902899.999903843
 30
0.0
  9
$EXTMAX
 10
4821219.047592687
 20
2977899.99983792
 30
0.0
  9
$LIMMIN
 10
0.0
 20
0.0
  9
$LIMMAX
 10
12.0
 20
9.0
  9
$ORTHOMODE
 70
     0
  9
$REGENMODE
 70
     1
  9
$FILLMODE
 70
     1
  9
$QTEXTMODE
 70
     0
  9
$MIRRTEXT
 70
     1
  9
$DRAGMODE
 70
     2
  9
$LTSCALE
 40
1.0
  9
$OSMODE
 70
    37
  9
$ATTMODE
 70
     1
  9
$TEXTSIZE
 40
0.2
  9
$TRACEWID
 40
0.05
  9
$TEXTSTYLE
  7
STANDARD
  9
$CLAYER
  8
0
  9
$CELTYPE
  6
BYLAYER
  9
$CECOLOR
 62
   256
  9
$CELTSCALE
 40
1.0
  9
$DELOBJ
 70
     1
  9
$DISPSILH
 70
     0
  9
$DIMSCALE
 40
1.0
  9
$DIMASZ
 40
0.18
  9
$DIMEXO
 40
0.0625
  9
$DIMDLI
 40
0.38
  9
$DIMRND
 40
0.0
  9
$DIMDLE
 40
0.0
  9
$DIMEXE
 40
0.18
  9
$DIMTP
 40
0.0
  9
$DIMTM
 40
0.0
  9
$DIMTXT
 40
0.18
  9
$DIMCEN
 40
0.09
  9
$DIMTSZ
 40
0.0
  9
$DIMTOL
 70
     0
  9
$DIMLIM
 70
     0
  9
$DIMTIH
 70
     1
  9
$DIMTOH
 70
     1
  9
$DIMSE1
 70
     0
  9
$DIMSE2
 70
     0
  9
$DIMTAD
 70
     0
  9
$DIMZIN
 70
     0
  9
$DIMBLK
  1

  9
$DIMASO
 70
     1
  9
$DIMSHO
 70
     1
  9
$DIMPOST
  1

  9
$DIMAPOST
  1

  9
$DIMALT
 70
     0
  9
$DIMALTD
 70
     2
  9
$DIMALTF
 40
25.4
  9
$DIMLFAC
 40
1.0
  9
$DIMTOFL
 70
     0
  9
$DIMTVP
 40
0.0
  9
$DIMTIX
 70
     0
  9
$DIMSOXD
 70
     0
  9
$DIMSAH
 70
     0
  9
$DIMBLK1
  1

  9
$DIMBLK2
  1

  9
$DIMSTYLE
  2
STANDARD
  9
$DIMCLRD
 70
     0
  9
$DIMCLRE
 70
     0
  9
$DIMCLRT
 70
     0
  9
$DIMTFAC
 40
1.0
  9
$DIMGAP
 40
0.09
  9
$DIMJUST
 70
     0
  9
$DIMSD1
 70
     0
  9
$DIMSD2
 70
     0
  9
$DIMTOLJ
 70
     1
  9
$DIMTZIN
 70
     0
  9
$DIMALTZ
 70
     0
  9
$DIMALTTZ
 70
     0
  9
$DIMFIT
 70
     5
  9
$DIMUPT
 70
     0
  9
$DIMUNIT
 70
     2
  9
$DIMDEC
 70
     4
  9
$DIMTDEC
 70
     4
  9
$DIMALTU
 70
     2
  9
$DIMALTTD
 70
     2
  9
$DIMTXSTY
  7
STANDARD
  9
$DIMAUNIT
 70
     0
  9
$LUNITS
 70
     2
  9
$LUPREC
 70
     4
  9
$SKETCHINC
 40
0.1
  9
$FILLETRAD
 40
0.0
  9
$AUNITS
 70
     0
  9
$AUPREC
 70
     0
  9
$MENU
  1
.
  9
$ELEVATION
 40
0.0
  9
$PELEVATION
 40
0.0
  9
$THICKNESS
 40
0.0
  9
$LIMCHECK
 70
     0
  9
$CHAMFERA
 40
0.0
  9
$CHAMFERB
 40
0.0
  9
$CHAMFERC
 40
0.0
  9
$CHAMFERD
 40
0.0
  9
$SKPOLY
 70
     0
  9
$TDCREATE
 40
2459399.375116586
  9
$TDUPDATE
 40
2459399.37512015
  9
$TDINDWG
 40
0.0000000116
  9
$TDUSRTIMER
 40
0.0000000116
  9
$USRTIMER
 70
     1
  9
$ANGBASE
 50
0.0
  9
$ANGDIR
 70
     0
  9
$PDMODE
 70
    33
  9
$PDSIZE
 40
-3.0
  9
$PLINEWID
 40
0.0
  9
$COORDS
 70
     1
  9
$SPLFRAME
 70
     0
  9
$SPLINETYPE
 70
     6
  9
$SPLINESEGS
 70
     8
  9
$ATTDIA
 70
     0
  9
$ATTREQ
 70
     1
  9
$HANDLING
 70
     1
  9
$HANDSEED
  5
202
  9
$SURFTAB1
 70
     6
  9
$SURFTAB2
 70
     6
  9
$SURFTYPE
 70
     6
  9
$SURFU
 70
     6
  9
$SURFV
 70
     6
  9
$UCSNAME
  2

  9
$UCSORG
 10
0.0
 20
0.0
 30
0.0
  9
$UCSXDIR
 10
1.0
 20
0.0
 30
0.0
  9
$UCSYDIR
 10
0.0
 20
1.0
 30
0.0
  9
$PUCSNAME
  2

  9
$PUCSORG
 10
0.0
 20
0.0
 30
0.0
  9
$PUCSXDIR
 10
1.0
 20
0.0
 30
0.0
  9
$PUCSYDIR
 10
0.0
 20
1.0
 30
0.0
  9
$USERI1
 70
     0
  9
$USERI2
 70
     0
  9
$USERI3
 70
     0
  9
$USERI4
 70
     0
  9
$USERI5
 70
     0
  9
$USERR1
 40
0.0
  9
$USERR2
 40
0.0
  9
$USERR3
 40
0.0
  9
$USERR4
 40
0.0
  9
$USERR5
 40
0.0
  9
$WORLDVIEW
 70
     1
  9
$SHADEDGE
 70
     3
  9
$SHADEDIF
 70
    70
  9
$TILEMODE
 70
     1
  9
$MAXACTVP
 70
    64
  9
$PINSBASE
 10
0.0
 20
0.0
 30
0.0
  9
$PLIMCHECK
 70
     0
  9
$PEXTMIN
 10
1.000000000000000E+20
 20
1.000000000000000E+20
 30
1.000000000000000E+20
  9
$PEXTMAX
 10
-1.000000000000000E+20
 20
-1.000000000000000E+20
 30
-1.000000000000000E+20
  9
$PLIMMIN
 10
0.0
 20
0.0
  9
$PLIMMAX
 10
12.0
 20
9.0
  9
$UNITMODE
 70
     0
  9
$VISRETAIN
 70
     1
  9
$PLINEGEN
 70
     0
  9
$PSLTSCALE
 70
     1
  9
$TREEDEPTH
 70
  3020
  9
$PICKSTYLE
 70
     1
  9
$CMLSTYLE
  2
STANDARD
  9
$CMLJUST
 70
     0
  9
$CMLSCALE
 40
1.0
  9
$PROXYGRAPHICS
 70
     1
  9
$MEASUREMENT
 70
     0
  0
ENDSEC
  0
SECTION
  2
CLASSES
  0
CLASS
  1
ACDBDICTIONARYWDFLT
  2
AcDbDictionaryWithDefault
  3
ObjectDBX Classes
 90
        0
280
     0
281
     0
  0
CLASS
  1
VISUALSTYLE
  2
AcDbVisualStyle
  3
ObjectDBX Classes
 90
     4095
280
     0
281
     0
  0
CLASS
  1
MATERIAL
  2
AcDbMaterial
  3
ObjectDBX Classes
 90
     1153
280
     0
281
     0
  0
CLASS
  1
SCALE
  2
AcDbScale
  3
ObjectDBX Classes
 90
     1153
280
     0
281
     0
  0
CLASS
  1
TABLESTYLE
  2
AcDbTableStyle
  3
ObjectDBX Classes
 90
     4095
280
     0
281
     0
  0
CLASS
  1
MLEADERSTYLE
  2
AcDbMLeaderStyle
  3
ACDB_MLEADERSTYLE_CLASS
 90
     4095
280
     0
281
     0
  0
CLASS
  1
SUN
  2
AcDbSun
  3
SCENEOE
 90
     1153
280
     0
281
     0
  0
CLASS
  1
DICTIONARYVAR
  2
AcDbDictionaryVar
  3
ObjectDBX Classes
 90
        0
280
     0
281
     0
  0
CLASS
  1
XRECORD
  2
AcDbXrecord
  3
ObjectDBX Classes
 90
        0
280
     0
281
     0
  0
CLASS
  1
LWPOLYLINE
  2
AcDbPolyline
  3
ObjectDBX Classes
 90
        0
280
     0
281
     1
  0
CLASS
  1
HATCH
  2
AcDbHatch
  3
ObjectDBX Classes
 90
        0
280
     0
281
     1
  0
CLASS
  1
ACDBPLACEHOLDER
  2
AcDbPlaceHolder
  3
ObjectDBX Classes
 90
        0
280
     0
281
     0
  0
CLASS
  1
LAYOUT
  2
AcDbLayout
  3
ObjectDBX Classes
 90
        0
280
     0
281
     0
  0
ENDSEC
  0
SECTION
  2
TABLES
  0
TABLE
  2
VPORT
  5
8
102
{ACAD_XDICTIONARY
360
1F9
102
}
330
0
100
AcDbSymbolTable
 70
     1
  0
VPORT
  5
29
330
8
100
AcDbSymbolTableRecord
100
AcDbViewportTableRecord
  2
*ACTIVE
 70
     0
 10
0.0
 20
0.0
 11
1.0
 21
1.0
 12
2776159.523796388
 22
2940399.999870881
 13
0.0
 23
0.0
 14
0.5
 24
0.5
 15
0.5
 25
0.5
 16
0.0
 26
0.0
 36
1.0
 17
0.0
 27
0.0
 37
0.0
 40
76499.99993275882
 41
54.53492068250252
 42
50.0
 43
0.0
 44
0.0
 50
0.0
 51
0.0
 71
     0
 72
   100
 73
     1
 74
     3
 75
     0
 76
     0
 77
     0
 78
     0
  0
ENDTAB
  0
TABLE
  2
LTYPE
  5
5
330
0
100
AcDbSymbolTable
 70
     1
  0
LTYPE
  5
14
330
5
100
AcDbSymbolTableRecord
100
AcDbLinetypeTableRecord
  2
BYBLOCK
 70
     0
  3

 72
    65
 73
     0
 40
0.0
  0
LTYPE
  5
15
330
5
100
AcDbSymbolTableRecord
100
AcDbLinetypeTableRecord
  2
BYLAYER
 70
     0
  3

 72
    65
 73
     0
 40
0.0
  0
LTYPE
  5
16
330
5
100
AcDbSymbolTableRecord
100
AcDbLinetypeTableRecord
  2
CONTINUOUS
 70
     0
  3
Solid line
 72
    65
 73
     0
 40
0.0
  0
ENDTAB
  0
TABLE
  2
LAYER
  5
2
330
0
100
AcDbSymbolTable
 70
     4
  0
LAYER
  5
10
330
2
100
AcDbSymbolTableRecord
100
AcDbLayerTableRecord
  2
0
 70
     0
 62
     7
  6
CONTINUOUS
  0
LAYER
  5
92
330
2
100
AcDbSymbolTableRecord
100
AcDbLayerTableRecord
  2
TILE_LABELS
 70
     0
 62
   120
  6
CONTINUOUS
  0
LAYER
  5
131
330
2
100
AcDbSymbolTableRecord
100
AcDbLayerTableRecord
  2
METRO3D_TILEGRID_LIMIT_LIN
 70
     0
 62
   133
  6
CONTINUOUS
  0
LAYER
  5
168
330
2
100
AcDbSymbolTableRecord
100
AcDbLayerTableRecord
  2
METRO3D_TILEGRID_POLY
 70
     0
 62
    59
  6
CONTINUOUS
  0
ENDTAB
  0
TABLE
  2
STYLE
  5
3
330
0
100
AcDbSymbolTable
 70
     1
  0
STYLE
  5
11
330
3
100
AcDbSymbolTableRecord
100
AcDbTextStyleTableRecord
  2
STANDARD
 70
     0
 40
0.0
 41
1.0
 50
0.0
 71
     0
 42
0.2
  3
txt
  4

  0
ENDTAB
  0
TABLE
  2
VIEW
  5
6
330
0
100
AcDbSymbolTable
 70
     0
  0
ENDTAB
  0
TABLE
  2
UCS
  5
7
330
0
100
AcDbSymbolTable
 70
     0
  0
ENDTAB
  0
TABLE
  2
APPID
  5
9
330
0
100
AcDbSymbolTable
 70
     2
  0
APPID
  5
12
330
9
100
AcDbSymbolTableRecord
100
AcDbRegAppTableRecord
  2
ACAD
 70
     0
  0
APPID
  5
128
330
9
100
AcDbSymbolTableRecord
100
AcDbRegAppTableRecord
  2
ACAD_MLEADERVER
 70
     0
  0
ENDTAB
  0
TABLE
  2
DIMSTYLE
  5
A
330
0
100
AcDbSymbolTable
 70
     1
  0
DIMSTYLE
105
27
330
A
100
AcDbSymbolTableRecord
100
AcDbDimStyleTableRecord
  2
STANDARD
 70
     0
  3

  4

  5

  6

  7

 40
1.0
 41
0.18
 42
0.0625
 43
0.38
 44
0.18
 45
0.0
 46
0.0
 47
0.0
 48
0.0
140
0.18
141
0.09
142
0.0
143
25.4
144
1.0
145
0.0
146
1.0
147
0.09
 71
     0
 72
     0
 73
     1
 74
     1
 75
     0
 76
     0
 77
     0
 78
     0
170
     0
171
     2
172
     0
173
     0
174
     0
175
     0
176
     0
177
     0
178
     0
270
     2
271
     4
272
     4
273
     2
274
     2
340
11
275
     0
280
     0
281
     0
282
     0
283
     1
284
     0
285
     0
286
     0
287
     3
288
     0
  0
ENDTAB
  0
TABLE
  2
BLOCK_RECORD
  5
1
330
0
100
AcDbSymbolTable
 70
     0
  0
BLOCK_RECORD
  5
1F
330
1
100
AcDbSymbolTableRecord
100
AcDbBlockTableRecord
  2
*MODEL_SPACE
  0
BLOCK_RECORD
  5
1B
330
1
100
AcDbSymbolTableRecord
100
AcDbBlockTableRecord
  2
*PAPER_SPACE
  0
ENDTAB
  0
ENDSEC
  0
SECTION
  2
BLOCKS
  0
BLOCK
  5
20
330
1F
100
AcDbEntity
  8
0
100
AcDbBlockBegin
  2
*MODEL_SPACE
 70
     0
 10
0.0
 20
0.0
 30
0.0
  3
*MODEL_SPACE
  1

  0
ENDBLK
  5
21
330
1F
100
AcDbEntity
  8
0
100
AcDbBlockEnd
  0
BLOCK
  5
1C
330
1B
100
AcDbEntity
 67
     1
  8
0
100
AcDbBlockBegin
  2
*PAPER_SPACE
 70
     0
 10
0.0
 20
0.0
 30
0.0
  3
*PAPER_SPACE
  1

  0
ENDBLK
  5
1D
330
1B
100
AcDbEntity
 67
     1
  8
0
100
AcDbBlockEnd
  0
ENDSEC
  0
SECTION
  2
ENTITIES
  0
TEXT
  5
93
330
1F
100
AcDbEntity
  8
TILE_LABELS
100
AcDbText
 10
753599.9999474734
 20
2910399.999995649
 30
0.0
 40
1000.0
  1
D-13
 41
1000.0
100
AcDbText
  0
TEXT
  5
94
330
1F
100
AcDbEntity
  8
TILE_LABELS
100
AcDbText
 10
758600.000118047
 20
2910399.999995649
 30
0.0
 40
1000.0
  1
E-13
 41
1000.0
100
AcDbText
  0
TEXT
  5
95
330
1F
100
AcDbEntity
  8
TILE_LABELS
100
AcDbText
 10
753599.9999474734
 20
2915400.000166222
 30
0.0
 40
1000.0
  1
D-12
 41
1000.0
100
AcDbText
  0
TEXT
  5
96
330
1F
100
AcDbEntity
  8
TILE_LABELS
100
AcDbText
 10
758600.000118047
 20
2915400.000166222
 30
0.0
 40
1000.0
  1
E-12
 41
1000.0
100
AcDbText
  0
TEXT
  5
97
330
1F
100
AcDbEntity
  8
TILE_LABELS
100
AcDbText
 10
763599.9999605566
 20
2915400.000166222
 30
0.0
 40
1000.0
  1
F-12
 41
1000.0
100
AcDbText
  0
TEXT
  5
98
330
1F
100
AcDbEntity
  8
TILE_LABELS
100
AcDbText
 10
743599.9999343902
 20
2920400.000008732
 30
0.0
 40
1000.0
  1
B-11
 41
1000.0
100
AcDbText
  0
TEXT
  5
99
330
1F
100
AcDbEntity
  8
TILE_LABELS
100
AcDbText
 10
748600.0001049638
 20
2920400.000008732
 30
0.0
 40
1000.0
  1
C-11
 41
1000.0
100
AcDbText
  0
TEXT
  5
9A
330
1F
100
AcDbEntity
  8
TILE_LABELS
100
AcDbText
 10
753599.9999474734
 20
2920400.000008732
 30
0.0
 40
1000.0
  1
D-11
 41
1000.0
100
AcDbText
  0
TEXT
  5
9B
330
1F
100
AcDbEntity
  8
TILE_LABELS
100
AcDbText
 10
758600.000118047
 20
2920400.000008732
 30
0.0
 40
1000.0
  1
E-11
 41
1000.0
100
AcDbText
  0
TEXT
  5
9C
330
1F
100
AcDbEntity
  8
TILE_LABELS
100
AcDbText
 10
763599.9999605566
 20
2920400.000008732
 30
0.0
 40
1000.0
  1
F-11
 41
1000.0
100
AcDbText
  0
TEXT
  5
9D
330
1F
100
AcDbEntity
  8
TILE_LABELS
100
AcDbText
 10
768600.0001311451
 20
2920400.000008732
 30
0.0
 40
1000.0
  1
G-11
 41
1000.0
100
AcDbText
  0
TEXT
  5
9E
330
1F
100
AcDbEntity
  8
TILE_LABELS
100
AcDbText
 10
773599.9999736398
 20
2920400.000008732
 30
0.0
 40
1000.0
  1
H-11
 41
1000.0
100
AcDbText
  0
TEXT
  5
9F
330
1F
100
AcDbEntity
  8
TILE_LABELS
100
AcDbText
 10
738600.0000918806
 20
2925400.000179306
 30
0.0
 40
1000.0
  1
A-10
 41
1000.0
100
AcDbText
  0
TEXT
  5
A0
330
1F
100
AcDbEntity
  8
TILE_LABELS
100
AcDbText
 10
743599.9999343902
 20
2925400.000179306
 30
0.0
 40
1000.0
  1
B-10
 41
1000.0
100
AcDbText
  0
TEXT
  5
A1
330
1F
100
AcDbEntity
  8
TILE_LABELS
100
AcDbText
 10
748600.0001049638
 20
2925400.000179306
 30
0.0
 40
1000.0
  1
C-10
 41
1000.0
100
AcDbText
  0
TEXT
  5
A2
330
1F
100
AcDbEntity
  8
TILE_LABELS
100
AcDbText
 10
753599.9999474734
 20
2925400.000179306
 30
0.0
 40
1000.0
  1
D-10
 41
1000.0
100
AcDbText
  0
TEXT
  5
A3
330
1F
100
AcDbEntity
  8
TILE_LABELS
100
AcDbText
 10
758600.000118047
 20
2925400.000179306
 30
0.0
 40
1000.0
  1
E-10
 41
1000.0
100
AcDbText
  0
TEXT
  5
A4
330
1F
100
AcDbEntity
  8
TILE_LABELS
100
AcDbText
 10
763599.9999605566
 20
2925400.000179306
 30
0.0
 40
1000.0
  1
F-10
 41
1000.0
100
AcDbText
  0
TEXT
  5
A5
330
1F
100
AcDbEntity
  8
TILE_LABELS
100
AcDbText
 10
768600.0001311451
 20
2925400.000179306
 30
0.0
 40
1000.0
  1
G-10
 41
1000.0
100
AcDbText
  0
TEXT
  5
A6
330
1F
100
AcDbEntity
  8
TILE_LABELS
100
AcDbText
 10
773599.9999736398
 20
2925400.000179306
 30
0.0
 40
1000.0
  1
H-10
 41
1000.0
100
AcDbText
  0
TEXT
  5
A7
330
1F
100
AcDbEntity
  8
TILE_LABELS
100
AcDbText
 10
778600.0001442283
 20
2925400.000179306
 30
0.0
 40
1000.0
  1
I-10
 41
1000.0
100
AcDbText
  0
TEXT
  5
A8
330
1F
100
AcDbEntity
  8
TILE_LABELS
100
AcDbText
 10
738600.0000918806
 20
2930400.000021815
 30
0.0
 40
1000.0
  1
A-9
 41
1000.0
100
AcDbText
  0
TEXT
  5
A9
330
1F
100
AcDbEntity
  8
TILE_LABELS
100
AcDbText
 10
743599.9999343902
 20
2930400.000021815
 30
0.0
 40
1000.0
  1
B-9
 41
1000.0
100
AcDbText
  0
TEXT
  5
AA
330
1F
100
AcDbEntity
  8
TILE_LABELS
100
AcDbText
 10
748600.0001049638
 20
2930400.000021815
 30
0.0
 40
1000.0
  1
C-9
 41
1000.0
100
AcDbText
  0
TEXT
  5
AB
330
1F
100
AcDbEntity
  8
TILE_LABELS
100
AcDbText
 10
753599.9999474734
 20
2930400.000021815
 30
0.0
 40
1000.0
  1
D-9
 41
1000.0
100
AcDbText
  0
TEXT
  5
AC
330
1F
100
AcDbEntity
  8
TILE_LABELS
100
AcDbText
 10
758600.000118047
 20
2930400.000021815
 30
0.0
 40
1000.0
  1
E-9
 41
1000.0
100
AcDbText
  0
TEXT
  5
AD
330
1F
100
AcDbEntity
  8
TILE_LABELS
100
AcDbText
 10
763599.9999605566
 20
2930400.000021815
 30
0.0
 40
1000.0
  1
F-9
 41
1000.0
100
AcDbText
  0
TEXT
  5
AE
330
1F
100
AcDbEntity
  8
TILE_LABELS
100
AcDbText
 10
768600.0001311451
 20
2930400.000021815
 30
0.0
 40
1000.0
  1
G-9
 41
1000.0
100
AcDbText
  0
TEXT
  5
AF
330
1F
100
AcDbEntity
  8
TILE_LABELS
100
AcDbText
 10
773599.9999736398
 20
2930400.000021815
 30
0.0
 40
1000.0
  1
H-9
 41
1000.0
100
AcDbText
  0
TEXT
  5
B0
330
1F
100
AcDbEntity
  8
TILE_LABELS
100
AcDbText
 10
778600.0001442283
 20
2930400.000021815
 30
0.0
 40
1000.0
  1
I-9
 41
1000.0
100
AcDbText
  0
TEXT
  5
B1
330
1F
100
AcDbEntity
  8
TILE_LABELS
100
AcDbText
 10
783599.9999867231
 20
2930400.000021815
 30
0.0
 40
1000.0
  1
J-9
 41
1000.0
100
AcDbText
  0
TEXT
  5
B2
330
1F
100
AcDbEntity
  8
TILE_LABELS
100
AcDbText
 10
743599.9999343902
 20
2935400.000192389
 30
0.0
 40
1000.0
  1
B-8
 41
1000.0
100
AcDbText
  0
TEXT
  5
B3
330
1F
100
AcDbEntity
  8
TILE_LABELS
100
AcDbText
 10
748600.0001049638
 20
2935400.000192389
 30
0.0
 40
1000.0
  1
C-8
 41
1000.0
100
AcDbText
  0
TEXT
  5
B4
330
1F
100
AcDbEntity
  8
TILE_LABELS
100
AcDbText
 10
753599.9999474734
 20
2935400.000192389
 30
0.0
 40
1000.0
  1
D-8
 41
1000.0
100
AcDbText
  0
TEXT
  5
B5
330
1F
100
AcDbEntity
  8
TILE_LABELS
100
AcDbText
 10
758600.000118047
 20
2935400.000192389
 30
0.0
 40
1000.0
  1
E-8
 41
1000.0
100
AcDbText
  0
TEXT
  5
B6
330
1F
100
AcDbEntity
  8
TILE_LABELS
100
AcDbText
 10
763599.9999605566
 20
2935400.000192389
 30
0.0
 40
1000.0
  1
F-8
 41
1000.0
100
AcDbText
  0
TEXT
  5
B7
330
1F
100
AcDbEntity
  8
TILE_LABELS
100
AcDbText
 10
768600.0001311451
 20
2935400.000192389
 30
0.0
 40
1000.0
  1
G-8
 41
1000.0
100
AcDbText
  0
TEXT
  5
B8
330
1F
100
AcDbEntity
  8
TILE_LABELS
100
AcDbText
 10
773599.9999736398
 20
2935400.000192389
 30
0.0
 40
1000.0
  1
H-8
 41
1000.0
100
AcDbText
  0
TEXT
  5
B9
330
1F
100
AcDbEntity
  8
TILE_LABELS
100
AcDbText
 10
778600.0001442283
 20
2935400.000192389
 30
0.0
 40
1000.0
  1
I-8
 41
1000.0
100
AcDbText
  0
TEXT
  5
BA
330
1F
100
AcDbEntity
  8
TILE_LABELS
100
AcDbText
 10
753599.9999474734
 20
2940400.000034899
 30
0.0
 40
1000.0
  1
D-7
 41
1000.0
100
AcDbText
  0
TEXT
  5
BB
330
1F
100
AcDbEntity
  8
TILE_LABELS
100
AcDbText
 10
758600.000118047
 20
2940400.000034899
 30
0.0
 40
1000.0
  1
E-7
 41
1000.0
100
AcDbText
  0
TEXT
  5
BC
330
1F
100
AcDbEntity
  8
TILE_LABELS
100
AcDbText
 10
763599.9999605566
 20
2940400.000034899
 30
0.0
 40
1000.0
  1
F-7
 41
1000.0
100
AcDbText
  0
TEXT
  5
BD
330
1F
100
AcDbEntity
  8
TILE_LABELS
100
AcDbText
 10
768600.0001311451
 20
2940400.000034899
 30
0.0
 40
1000.0
  1
G-7
 41
1000.0
100
AcDbText
  0
TEXT
  5
BE
330
1F
100
AcDbEntity
  8
TILE_LABELS
100
AcDbText
 10
773599.9999736398
 20
2940400.000034899
 30
0.0
 40
1000.0
  1
H-7
 41
1000.0
100
AcDbText
  0
TEXT
  5
BF
330
1F
100
AcDbEntity
  8
TILE_LABELS
100
AcDbText
 10
778600.0001442283
 20
2940400.000034899
 30
0.0
 40
1000.0
  1
I-7
 41
1000.0
100
AcDbText
  0
TEXT
  5
C0
330
1F
100
AcDbEntity
  8
TILE_LABELS
100
AcDbText
 10
783599.9999867231
 20
2940400.000034899
 30
0.0
 40
1000.0
  1
J-7
 41
1000.0
100
AcDbText
  0
TEXT
  5
C1
330
1F
100
AcDbEntity
  8
TILE_LABELS
100
AcDbText
 10
788600.0001573116
 20
2940400.000034899
 30
0.0
 40
1000.0
  1
K-7
 41
1000.0
100
AcDbText
  0
TEXT
  5
C2
330
1F
100
AcDbEntity
  8
TILE_LABELS
100
AcDbText
 10
793599.9999998063
 20
2940400.000034899
 30
0.0
 40
1000.0
  1
L-7
 41
1000.0
100
AcDbText
  0
TEXT
  5
C3
330
1F
100
AcDbEntity
  8
TILE_LABELS
100
AcDbText
 10
798600.0001703948
 20
2940400.000034899
 30
0.0
 40
1000.0
  1
M-7
 41
1000.0
100
AcDbText
  0
TEXT
  5
C4
330
1F
100
AcDbEntity
  8
TILE_LABELS
100
AcDbText
 10
803600.0000128895
 20
2940400.000034899
 30
0.0
 40
1000.0
  1
N-7
 41
1000.0
100
AcDbText
  0
TEXT
  5
C5
330
1F
100
AcDbEntity
  8
TILE_LABELS
100
AcDbText
 10
808600.000183478
 20
2940400.000034899
 30
0.0
 40
1000.0
  1
O-7
 41
1000.0
100
AcDbText
  0
TEXT
  5
C6
330
1F
100
AcDbEntity
  8
TILE_LABELS
100
AcDbText
 10
813600.0000259727
 20
2940400.000034899
 30
0.0
 40
1000.0
  1
P-7
 41
1000.0
100
AcDbText
  0
TEXT
  5
C7
330
1F
100
AcDbEntity
  8
TILE_LABELS
100
AcDbText
 10
743599.9999343902
 20
2945400.000205472
 30
0.0
 40
1000.0
  1
B-6
 41
1000.0
100
AcDbText
  0
TEXT
  5
C8
330
1F
100
AcDbEntity
  8
TILE_LABELS
100
AcDbText
 10
748600.0001049638
 20
2945400.000205472
 30
0.0
 40
1000.0
  1
C-6
 41
1000.0
100
AcDbText
  0
TEXT
  5
C9
330
1F
100
AcDbEntity
  8
TILE_LABELS
100
AcDbText
 10
753599.9999474734
 20
2945400.000205472
 30
0.0
 40
1000.0
  1
D-6
 41
1000.0
100
AcDbText
  0
TEXT
  5
CA
330
1F
100
AcDbEntity
  8
TILE_LABELS
100
AcDbText
 10
758600.000118047
 20
2945400.000205472
 30
0.0
 40
1000.0
  1
E-6
 41
1000.0
100
AcDbText
  0
TEXT
  5
CB
330
1F
100
AcDbEntity
  8
TILE_LABELS
100
AcDbText
 10
763599.9999605566
 20
2945400.000205472
 30
0.0
 40
1000.0
  1
F-6
 41
1000.0
100
AcDbText
  0
TEXT
  5
CC
330
1F
100
AcDbEntity
  8
TILE_LABELS
100
AcDbText
 10
768600.0001311451
 20
2945400.000205472
 30
0.0
 40
1000.0
  1
G-6
 41
1000.0
100
AcDbText
  0
TEXT
  5
CD
330
1F
100
AcDbEntity
  8
TILE_LABELS
100
AcDbText
 10
773599.9999736398
 20
2945400.000205472
 30
0.0
 40
1000.0
  1
H-6
 41
1000.0
100
AcDbText
  0
TEXT
  5
CE
330
1F
100
AcDbEntity
  8
TILE_LABELS
100
AcDbText
 10
778600.0001442283
 20
2945400.000205472
 30
0.0
 40
1000.0
  1
I-6
 41
1000.0
100
AcDbText
  0
TEXT
  5
CF
330
1F
100
AcDbEntity
  8
TILE_LABELS
100
AcDbText
 10
783599.9999867231
 20
2945400.000205472
 30
0.0
 40
1000.0
  1
J-6
 41
1000.0
100
AcDbText
  0
TEXT
  5
D0
330
1F
100
AcDbEntity
  8
TILE_LABELS
100
AcDbText
 10
788600.0001573116
 20
2945400.000205472
 30
0.0
 40
1000.0
  1
K-6
 41
1000.0
100
AcDbText
  0
TEXT
  5
D1
330
1F
100
AcDbEntity
  8
TILE_LABELS
100
AcDbText
 10
793599.9999998063
 20
2945400.000205472
 30
0.0
 40
1000.0
  1
L-6
 41
1000.0
100
AcDbText
  0
TEXT
  5
D2
330
1F
100
AcDbEntity
  8
TILE_LABELS
100
AcDbText
 10
798600.0001703948
 20
2945400.000205472
 30
0.0
 40
1000.0
  1
M-6
 41
1000.0
100
AcDbText
  0
TEXT
  5
D3
330
1F
100
AcDbEntity
  8
TILE_LABELS
100
AcDbText
 10
803600.0000128895
 20
2945400.000205472
 30
0.0
 40
1000.0
  1
N-6
 41
1000.0
100
AcDbText
  0
TEXT
  5
D4
330
1F
100
AcDbEntity
  8
TILE_LABELS
100
AcDbText
 10
808600.000183478
 20
2945400.000205472
 30
0.0
 40
1000.0
  1
O-6
 41
1000.0
100
AcDbText
  0
TEXT
  5
D5
330
1F
100
AcDbEntity
  8
TILE_LABELS
100
AcDbText
 10
813600.0000259727
 20
2945400.000205472
 30
0.0
 40
1000.0
  1
P-6
 41
1000.0
100
AcDbText
  0
TEXT
  5
D6
330
1F
100
AcDbEntity
  8
TILE_LABELS
100
AcDbText
 10
743599.9999343902
 20
2950400.000047982
 30
0.0
 40
1000.0
  1
B-5
 41
1000.0
100
AcDbText
  0
TEXT
  5
D7
330
1F
100
AcDbEntity
  8
TILE_LABELS
100
AcDbText
 10
748600.0001049638
 20
2950400.000047982
 30
0.0
 40
1000.0
  1
C-5
 41
1000.0
100
AcDbText
  0
TEXT
  5
D8
330
1F
100
AcDbEntity
  8
TILE_LABELS
100
AcDbText
 10
753599.9999474734
 20
2950400.000047982
 30
0.0
 40
1000.0
  1
D-5
 41
1000.0
100
AcDbText
  0
TEXT
  5
D9
330
1F
100
AcDbEntity
  8
TILE_LABELS
100
AcDbText
 10
758600.000118047
 20
2950400.000047982
 30
0.0
 40
1000.0
  1
E-5
 41
1000.0
100
AcDbText
  0
TEXT
  5
DA
330
1F
100
AcDbEntity
  8
TILE_LABELS
100
AcDbText
 10
763599.9999605566
 20
2950400.000047982
 30
0.0
 40
1000.0
  1
F-5
 41
1000.0
100
AcDbText
  0
TEXT
  5
DB
330
1F
100
AcDbEntity
  8
TILE_LABELS
100
AcDbText
 10
768600.0001311451
 20
2950400.000047982
 30
0.0
 40
1000.0
  1
G-5
 41
1000.0
100
AcDbText
  0
TEXT
  5
DC
330
1F
100
AcDbEntity
  8
TILE_LABELS
100
AcDbText
 10
773599.9999736398
 20
2950400.000047982
 30
0.0
 40
1000.0
  1
H-5
 41
1000.0
100
AcDbText
  0
TEXT
  5
DD
330
1F
100
AcDbEntity
  8
TILE_LABELS
100
AcDbText
 10
778600.0001442283
 20
2950400.000047982
 30
0.0
 40
1000.0
  1
I-5
 41
1000.0
100
AcDbText
  0
TEXT
  5
DE
330
1F
100
AcDbEntity
  8
TILE_LABELS
100
AcDbText
 10
783599.9999867231
 20
2950400.000047982
 30
0.0
 40
1000.0
  1
J-5
 41
1000.0
100
AcDbText
  0
TEXT
  5
DF
330
1F
100
AcDbEntity
  8
TILE_LABELS
100
AcDbText
 10
788600.0001573116
 20
2950400.000047982
 30
0.0
 40
1000.0
  1
K-5
 41
1000.0
100
AcDbText
  0
TEXT
  5
E0
330
1F
100
AcDbEntity
  8
TILE_LABELS
100
AcDbText
 10
803600.0000128895
 20
2950400.000047982
 30
0.0
 40
1000.0
  1
N-5
 41
1000.0
100
AcDbText
  0
TEXT
  5
E1
330
1F
100
AcDbEntity
  8
TILE_LABELS
100
AcDbText
 10
743599.9999343902
 20
2955400.000218555
 30
0.0
 40
1000.0
  1
B-4
 41
1000.0
100
AcDbText
  0
TEXT
  5
E2
330
1F
100
AcDbEntity
  8
TILE_LABELS
100
AcDbText
 10
748600.0001049638
 20
2955400.000218555
 30
0.0
 40
1000.0
  1
C-4
 41
1000.0
100
AcDbText
  0
TEXT
  5
E3
330
1F
100
AcDbEntity
  8
TILE_LABELS
100
AcDbText
 10
753599.9999474734
 20
2955400.000218555
 30
0.0
 40
1000.0
  1
D-4
 41
1000.0
100
AcDbText
  0
TEXT
  5
E4
330
1F
100
AcDbEntity
  8
TILE_LABELS
100
AcDbText
 10
758600.000118047
 20
2955400.000218555
 30
0.0
 40
1000.0
  1
E-4
 41
1000.0
100
AcDbText
  0
TEXT
  5
E5
330
1F
100
AcDbEntity
  8
TILE_LABELS
100
AcDbText
 10
763599.9999605566
 20
2955400.000218555
 30
0.0
 40
1000.0
  1
F-4
 41
1000.0
100
AcDbText
  0
TEXT
  5
E6
330
1F
100
AcDbEntity
  8
TILE_LABELS
100
AcDbText
 10
768600.0001311451
 20
2955400.000218555
 30
0.0
 40
1000.0
  1
G-4
 41
1000.0
100
AcDbText
  0
TEXT
  5
E7
330
1F
100
AcDbEntity
  8
TILE_LABELS
100
AcDbText
 10
773599.9999736398
 20
2955400.000218555
 30
0.0
 40
1000.0
  1
H-4
 41
1000.0
100
AcDbText
  0
TEXT
  5
E8
330
1F
100
AcDbEntity
  8
TILE_LABELS
100
AcDbText
 10
778600.0001442283
 20
2955400.000218555
 30
0.0
 40
1000.0
  1
I-4
 41
1000.0
100
AcDbText
  0
TEXT
  5
E9
330
1F
100
AcDbEntity
  8
TILE_LABELS
100
AcDbText
 10
783599.9999867231
 20
2955400.000218555
 30
0.0
 40
1000.0
  1
J-4
 41
1000.0
100
AcDbText
  0
TEXT
  5
EA
330
1F
100
AcDbEntity
  8
TILE_LABELS
100
AcDbText
 10
788600.0001573116
 20
2955400.000218555
 30
0.0
 40
1000.0
  1
K-4
 41
1000.0
100
AcDbText
  0
TEXT
  5
EB
330
1F
100
AcDbEntity
  8
TILE_LABELS
100
AcDbText
 10
793599.9999998063
 20
2955400.000218555
 30
0.0
 40
1000.0
  1
L-4
 41
1000.0
100
AcDbText
  0
TEXT
  5
EC
330
1F
100
AcDbEntity
  8
TILE_LABELS
100
AcDbText
 10
798600.0001703948
 20
2955400.000218555
 30
0.0
 40
1000.0
  1
M-4
 41
1000.0
100
AcDbText
  0
TEXT
  5
ED
330
1F
100
AcDbEntity
  8
TILE_LABELS
100
AcDbText
 10
803600.0000128895
 20
2955400.000218555
 30
0.0
 40
1000.0
  1
N-4
 41
1000.0
100
AcDbText
  0
TEXT
  5
EE
330
1F
100
AcDbEntity
  8
TILE_LABELS
100
AcDbText
 10
753599.9999474734
 20
2960400.000061065
 30
0.0
 40
1000.0
  1
D-3
 41
1000.0
100
AcDbText
  0
TEXT
  5
EF
330
1F
100
AcDbEntity
  8
TILE_LABELS
100
AcDbText
 10
758600.000118047
 20
2960400.000061065
 30
0.0
 40
1000.0
  1
E-3
 41
1000.0
100
AcDbText
  0
TEXT
  5
F0
330
1F
100
AcDbEntity
  8
TILE_LABELS
100
AcDbText
 10
768600.0001311451
 20
2960400.000061065
 30
0.0
 40
1000.0
  1
G-3
 41
1000.0
100
AcDbText
  0
TEXT
  5
F1
330
1F
100
AcDbEntity
  8
TILE_LABELS
100
AcDbText
 10
773599.9999736398
 20
2960400.000061065
 30
0.0
 40
1000.0
  1
H-3
 41
1000.0
100
AcDbText
  0
TEXT
  5
F2
330
1F
100
AcDbEntity
  8
TILE_LABELS
100
AcDbText
 10
778600.0001442283
 20
2960400.000061065
 30
0.0
 40
1000.0
  1
I-3
 41
1000.0
100
AcDbText
  0
TEXT
  5
F3
330
1F
100
AcDbEntity
  8
TILE_LABELS
100
AcDbText
 10
783599.9999867231
 20
2960400.000061065
 30
0.0
 40
1000.0
  1
J-3
 41
1000.0
100
AcDbText
  0
TEXT
  5
F4
330
1F
100
AcDbEntity
  8
TILE_LABELS
100
AcDbText
 10
788600.0001573116
 20
2960400.000061065
 30
0.0
 40
1000.0
  1
K-3
 41
1000.0
100
AcDbText
  0
TEXT
  5
F5
330
1F
100
AcDbEntity
  8
TILE_LABELS
100
AcDbText
 10
768600.0001311451
 20
2965400.000231639
 30
0.0
 40
1000.0
  1
G-2
 41
1000.0
100
AcDbText
  0
TEXT
  5
F6
330
1F
100
AcDbEntity
  8
TILE_LABELS
100
AcDbText
 10
773599.9999736398
 20
2965400.000231639
 30
0.0
 40
1000.0
  1
H-2
 41
1000.0
100
AcDbText
  0
TEXT
  5
F7
330
1F
100
AcDbEntity
  8
TILE_LABELS
100
AcDbText
 10
778600.0001442283
 20
2965400.000231639
 30
0.0
 40
1000.0
  1
I-2
 41
1000.0
100
AcDbText
  0
TEXT
  5
F8
330
1F
100
AcDbEntity
  8
TILE_LABELS
100
AcDbText
 10
783599.9999867231
 20
2965400.000231639
 30
0.0
 40
1000.0
  1
J-2
 41
1000.0
100
AcDbText
  0
TEXT
  5
F9
330
1F
100
AcDbEntity
  8
TILE_LABELS
100
AcDbText
 10
788600.0001573116
 20
2965400.000231639
 30
0.0
 40
1000.0
  1
K-2
 41
1000.0
100
AcDbText
  0
TEXT
  5
FA
330
1F
100
AcDbEntity
  8
TILE_LABELS
100
AcDbText
 10
793599.9999998063
 20
2965400.000231639
 30
0.0
 40
1000.0
  1
L-2
 41
1000.0
100
AcDbText
  0
TEXT
  5
FB
330
1F
100
AcDbEntity
  8
TILE_LABELS
100
AcDbText
 10
788600.0001573116
 20
2970400.000074148
 30
0.0
 40
1000.0
  1
K-1
 41
1000.0
100
AcDbText
  0
TEXT
  5
FC
330
1F
100
AcDbEntity
  8
TILE_LABELS
100
AcDbText
 10
793599.9999998063
 20
2970400.000074148
 30
0.0
 40
1000.0
  1
L-1
 41
1000.0
100
AcDbText
  0
LWPOLYLINE
  5
132
330
1F
100
AcDbEntity
  8
METRO3D_TILEGRID_LIMIT_LIN
100
AcDbPolyline
 90
       64
 70
     1
 43
0.0
 10
736099.9998425841
 20
2902899.999903843
 10
731100.0000000894
 20
2902899.999903843
 10
731100.0000000894
 20
2907900.000074416
 10
731100.0000000894
 20
2912899.999916926
 10
731100.0000000894
 20
2917900.0000875
 10
731100.0000000894
 20
2922899.999930009
 10
731100.0000000894
 20
2927900.000100583
 10
731100.0000000894
 20
2932899.999943092
 10
731100.0000000894
 20
2937900.000113666
 10
731100.0000000894
 20
2942899.999956176
 10
731100.0000000894
 20
2947900.000126749
 10
731100.0000000894
 20
2952899.999969259
 10
731100.0000000894
 20
2957900.000139832
 10
731100.0000000894
 20
2962899.999982342
 10
731100.0000000894
 20
2967900.000152916
 10
731100.0000000894
 20
2972899.999995425
 10
731100.0000000894
 20
2977899.99983792
 10
736099.9998425841
 20
2977899.99983792
 10
741100.0000131726
 20
2977899.99983792
 10
746099.9998556674
 20
2977899.99983792
 10
751100.0000262558
 20
2977899.99983792
 10
756099.9998687506
 20
2977899.99983792
 10
761100.0000393391
 20
2977899.99983792
 10
766099.9998818338
 20
2977899.99983792
 10
771100.0000524223
 20
2977899.99983792
 10
776099.999894917
 20
2977899.99983792
 10
781100.0000655055
 20
2977899.99983792
 10
786099.9999080002
 20
2977899.99983792
 10
791100.0000785887
 20
2977899.99983792
 10
796099.9999210835
 20
2977899.99983792
 10
801100.000091672
 20
2977899.99983792
 10
806099.9999341667
 20
2977899.99983792
 10
811100.0001047552
 20
2977899.99983792
 10
821099.9899472594
 20
2977899.99983792
 10
821099.9899472594
 20
2972899.999995425
 10
821099.9899472594
 20
2967900.000152916
 10
821099.9899472594
 20
2962899.999982342
 10
821099.9899472594
 20
2957900.000139832
 10
821099.9899472594
 20
2952899.999969259
 10
821099.9899472594
 20
2947900.000126749
 10
821099.9899472594
 20
2942899.999956176
 10
821099.9899472594
 20
2937900.000113666
 10
821099.9899472594
 20
2932899.999943092
 10
821099.9899472594
 20
2927900.000100583
 10
821099.9899472594
 20
2922899.999930009
 10
821099.9899472594
 20
2917900.0000875
 10
821099.9899472594
 20
2912899.999916926
 10
821099.9899472594
 20
2907900.000074416
 10
821099.9899472594
 20
2902899.999903843
 10
811100.0001047552
 20
2902899.999903843
 10
806099.9999341667
 20
2902899.999903843
 10
801100.000091672
 20
2902899.999903843
 10
796099.9999210835
 20
2902899.999903843
 10
791100.0000785887
 20
2902899.999903843
 10
786099.9999080002
 20
2902899.999903843
 10
781100.0000655055
 20
2902899.999903843
 10
776099.999894917
 20
2902899.999903843
 10
771100.0000524223
 20
2902899.999903843
 10
766099.9998818338
 20
2902899.999903843
 10
761100.0000393391
 20
2902899.999903843
 10
756099.9998687506
 20
2902899.999903843
 10
751100.0000262558
 20
2902899.999903843
 10
746099.9998556674
 20
2902899.999903843
 10
741100.0000131726
 20
2902899.999903843
  0
LWPOLYLINE
  5
169
330
1F
100
AcDbEntity
  8
METRO3D_TILEGRID_POLY
100
AcDbPolyline
 90
        4
 70
     1
 43
0.0
 10
751100.000026226
 20
2907900.000074387
 10
751100.000026226
 20
2912899.999916896
 10
756099.9998687208
 20
2912899.999916896
 10
756099.9998687208
 20
2907900.000074387
  0
LWPOLYLINE
  5
16A
330
1F
100
AcDbEntity
  8
METRO3D_TILEGRID_POLY
100
AcDbPolyline
 90
        4
 70
     1
 43
0.0
 10
756099.9998687208
 20
2907900.000074387
 10
756099.9998687208
 20
2912899.999916896
 10
761100.0000393093
 20
2912899.999916896
 10
761100.0000393093
 20
2907900.000074387
  0
LWPOLYLINE
  5
16B
330
1F
100
AcDbEntity
  8
METRO3D_TILEGRID_POLY
100
AcDbPolyline
 90
        4
 70
     1
 43
0.0
 10
751100.000026226
 20
2912899.999916896
 10
751100.000026226
 20
2917900.00008747
 10
756099.9998687208
 20
2917900.00008747
 10
756099.9998687208
 20
2912899.999916896
  0
LWPOLYLINE
  5
16C
330
1F
100
AcDbEntity
  8
METRO3D_TILEGRID_POLY
100
AcDbPolyline
 90
        4
 70
     1
 43
0.0
 10
756099.9998687208
 20
2912899.999916896
 10
756099.9998687208
 20
2917900.00008747
 10
761100.0000393093
 20
2917900.00008747
 10
761100.0000393093
 20
2912899.999916896
  0
LWPOLYLINE
  5
16D
330
1F
100
AcDbEntity
  8
METRO3D_TILEGRID_POLY
100
AcDbPolyline
 90
        4
 70
     1
 43
0.0
 10
761100.0000393093
 20
2912899.999916896
 10
761100.0000393093
 20
2917900.00008747
 10
766099.999881804
 20
2917900.00008747
 10
766099.999881804
 20
2912899.999916896
  0
LWPOLYLINE
  5
16E
330
1F
100
AcDbEntity
  8
METRO3D_TILEGRID_POLY
100
AcDbPolyline
 90
        4
 70
     1
 43
0.0
 10
741100.0000131428
 20
2917900.00008747
 10
741100.0000131428
 20
2922899.999929979
 10
746099.9998556376
 20
2922899.999929979
 10
746099.9998556376
 20
2917900.00008747
  0
LWPOLYLINE
  5
16F
330
1F
100
AcDbEntity
  8
METRO3D_TILEGRID_POLY
100
AcDbPolyline
 90
        4
 70
     1
 43
0.0
 10
746099.9998556376
 20
2917900.00008747
 10
746099.9998556376
 20
2922899.999929979
 10
751100.000026226
 20
2922899.999929979
 10
751100.000026226
 20
2917900.00008747
  0
LWPOLYLINE
  5
170
330
1F
100
AcDbEntity
  8
METRO3D_TILEGRID_POLY
100
AcDbPolyline
 90
        4
 70
     1
 43
0.0
 10
751100.000026226
 20
2917900.00008747
 10
751100.000026226
 20
2922899.999929979
 10
756099.9998687208
 20
2922899.999929979
 10
756099.9998687208
 20
2917900.00008747
  0
LWPOLYLINE
  5
171
330
1F
100
AcDbEntity
  8
METRO3D_TILEGRID_POLY
100
AcDbPolyline
 90
        4
 70
     1
 43
0.0
 10
756099.9998687208
 20
2917900.00008747
 10
756099.9998687208
 20
2922899.999929979
 10
761100.0000393093
 20
2922899.999929979
 10
761100.0000393093
 20
2917900.00008747
  0
LWPOLYLINE
  5
172
330
1F
100
AcDbEntity
  8
METRO3D_TILEGRID_POLY
100
AcDbPolyline
 90
        4
 70
     1
 43
0.0
 10
761100.0000393093
 20
2917900.00008747
 10
761100.0000393093
 20
2922899.999929979
 10
766099.999881804
 20
2922899.999929979
 10
766099.999881804
 20
2917900.00008747
  0
LWPOLYLINE
  5
173
330
1F
100
AcDbEntity
  8
METRO3D_TILEGRID_POLY
100
AcDbPolyline
 90
        4
 70
     1
 43
0.0
 10
766099.999881804
 20
2917900.00008747
 10
766099.999881804
 20
2922899.999929979
 10
771100.0000523925
 20
2922899.999929979
 10
771100.0000523925
 20
2917900.00008747
  0
LWPOLYLINE
  5
174
330
1F
100
AcDbEntity
  8
METRO3D_TILEGRID_POLY
100
AcDbPolyline
 90
        4
 70
     1
 43
0.0
 10
771100.0000523925
 20
2917900.00008747
 10
771100.0000523925
 20
2922899.999929979
 10
776099.9998948872
 20
2922899.999929979
 10
776099.9998948872
 20
2917900.00008747
  0
LWPOLYLINE
  5
175
330
1F
100
AcDbEntity
  8
METRO3D_TILEGRID_POLY
100
AcDbPolyline
 90
        4
 70
     1
 43
0.0
 10
736099.9998425543
 20
2922899.999929979
 10
736099.9998425543
 20
2927900.000100553
 10
741100.0000131428
 20
2927900.000100553
 10
741100.0000131428
 20
2922899.999929979
  0
LWPOLYLINE
  5
176
330
1F
100
AcDbEntity
  8
METRO3D_TILEGRID_POLY
100
AcDbPolyline
 90
        4
 70
     1
 43
0.0
 10
741100.0000131428
 20
2922899.999929979
 10
741100.0000131428
 20
2927900.000100553
 10
746099.9998556376
 20
2927900.000100553
 10
746099.9998556376
 20
2922899.999929979
  0
LWPOLYLINE
  5
177
330
1F
100
AcDbEntity
  8
METRO3D_TILEGRID_POLY
100
AcDbPolyline
 90
        4
 70
     1
 43
0.0
 10
746099.9998556376
 20
2922899.999929979
 10
746099.9998556376
 20
2927900.000100553
 10
751100.000026226
 20
2927900.000100553
 10
751100.000026226
 20
2922899.999929979
  0
LWPOLYLINE
  5
178
330
1F
100
AcDbEntity
  8
METRO3D_TILEGRID_POLY
100
AcDbPolyline
 90
        4
 70
     1
 43
0.0
 10
751100.000026226
 20
2922899.999929979
 10
751100.000026226
 20
2927900.000100553
 10
756099.9998687208
 20
2927900.000100553
 10
756099.9998687208
 20
2922899.999929979
  0
LWPOLYLINE
  5
179
330
1F
100
AcDbEntity
  8
METRO3D_TILEGRID_POLY
100
AcDbPolyline
 90
        4
 70
     1
 43
0.0
 10
756099.9998687208
 20
2922899.999929979
 10
756099.9998687208
 20
2927900.000100553
 10
761100.0000393093
 20
2927900.000100553
 10
761100.0000393093
 20
2922899.999929979
  0
LWPOLYLINE
  5
17A
330
1F
100
AcDbEntity
  8
METRO3D_TILEGRID_POLY
100
AcDbPolyline
 90
        4
 70
     1
 43
0.0
 10
761100.0000393093
 20
2922899.999929979
 10
761100.0000393093
 20
2927900.000100553
 10
766099.999881804
 20
2927900.000100553
 10
766099.999881804
 20
2922899.999929979
  0
LWPOLYLINE
  5
17B
330
1F
100
AcDbEntity
  8
METRO3D_TILEGRID_POLY
100
AcDbPolyline
 90
        4
 70
     1
 43
0.0
 10
766099.999881804
 20
2922899.999929979
 10
766099.999881804
 20
2927900.000100553
 10
771100.0000523925
 20
2927900.000100553
 10
771100.0000523925
 20
2922899.999929979
  0
LWPOLYLINE
  5
17C
330
1F
100
AcDbEntity
  8
METRO3D_TILEGRID_POLY
100
AcDbPolyline
 90
        4
 70
     1
 43
0.0
 10
771100.0000523925
 20
2922899.999929979
 10
771100.0000523925
 20
2927900.000100553
 10
776099.9998948872
 20
2927900.000100553
 10
776099.9998948872
 20
2922899.999929979
  0
LWPOLYLINE
  5
17D
330
1F
100
AcDbEntity
  8
METRO3D_TILEGRID_POLY
100
AcDbPolyline
 90
        4
 70
     1
 43
0.0
 10
776099.9998948872
 20
2922899.999929979
 10
776099.9998948872
 20
2927900.000100553
 10
781100.0000654757
 20
2927900.000100553
 10
781100.0000654757
 20
2922899.999929979
  0
LWPOLYLINE
  5
17E
330
1F
100
AcDbEntity
  8
METRO3D_TILEGRID_POLY
100
AcDbPolyline
 90
        4
 70
     1
 43
0.0
 10
736099.9998425543
 20
2927900.000100553
 10
736099.9998425543
 20
2932899.999943063
 10
741100.0000131428
 20
2932899.999943063
 10
741100.0000131428
 20
2927900.000100553
  0
LWPOLYLINE
  5
17F
330
1F
100
AcDbEntity
  8
METRO3D_TILEGRID_POLY
100
AcDbPolyline
 90
        4
 70
     1
 43
0.0
 10
741100.0000131428
 20
2927900.000100553
 10
741100.0000131428
 20
2932899.999943063
 10
746099.9998556376
 20
2932899.999943063
 10
746099.9998556376
 20
2927900.000100553
  0
LWPOLYLINE
  5
180
330
1F
100
AcDbEntity
  8
METRO3D_TILEGRID_POLY
100
AcDbPolyline
 90
        4
 70
     1
 43
0.0
 10
746099.9998556376
 20
2927900.000100553
 10
746099.9998556376
 20
2932899.999943063
 10
751100.000026226
 20
2932899.999943063
 10
751100.000026226
 20
2927900.000100553
  0
LWPOLYLINE
  5
181
330
1F
100
AcDbEntity
  8
METRO3D_TILEGRID_POLY
100
AcDbPolyline
 90
        4
 70
     1
 43
0.0
 10
751100.000026226
 20
2927900.000100553
 10
751100.000026226
 20
2932899.999943063
 10
756099.9998687208
 20
2932899.999943063
 10
756099.9998687208
 20
2927900.000100553
  0
LWPOLYLINE
  5
182
330
1F
100
AcDbEntity
  8
METRO3D_TILEGRID_POLY
100
AcDbPolyline
 90
        4
 70
     1
 43
0.0
 10
756099.9998687208
 20
2927900.000100553
 10
756099.9998687208
 20
2932899.999943063
 10
761100.0000393093
 20
2932899.999943063
 10
761100.0000393093
 20
2927900.000100553
  0
LWPOLYLINE
  5
183
330
1F
100
AcDbEntity
  8
METRO3D_TILEGRID_POLY
100
AcDbPolyline
 90
        4
 70
     1
 43
0.0
 10
761100.0000393093
 20
2927900.000100553
 10
761100.0000393093
 20
2932899.999943063
 10
766099.999881804
 20
2932899.999943063
 10
766099.999881804
 20
2927900.000100553
  0
LWPOLYLINE
  5
184
330
1F
100
AcDbEntity
  8
METRO3D_TILEGRID_POLY
100
AcDbPolyline
 90
        4
 70
     1
 43
0.0
 10
766099.999881804
 20
2927900.000100553
 10
766099.999881804
 20
2932899.999943063
 10
771100.0000523925
 20
2932899.999943063
 10
771100.0000523925
 20
2927900.000100553
  0
LWPOLYLINE
  5
185
330
1F
100
AcDbEntity
  8
METRO3D_TILEGRID_POLY
100
AcDbPolyline
 90
        4
 70
     1
 43
0.0
 10
771100.0000523925
 20
2927900.000100553
 10
771100.0000523925
 20
2932899.999943063
 10
776099.9998948872
 20
2932899.999943063
 10
776099.9998948872
 20
2927900.000100553
  0
LWPOLYLINE
  5
186
330
1F
100
AcDbEntity
  8
METRO3D_TILEGRID_POLY
100
AcDbPolyline
 90
        4
 70
     1
 43
0.0
 10
776099.9998948872
 20
2927900.000100553
 10
776099.9998948872
 20
2932899.999943063
 10
781100.0000654757
 20
2932899.999943063
 10
781100.0000654757
 20
2927900.000100553
  0
LWPOLYLINE
  5
187
330
1F
100
AcDbEntity
  8
METRO3D_TILEGRID_POLY
100
AcDbPolyline
 90
        4
 70
     1
 43
0.0
 10
781100.0000654757
 20
2927900.000100553
 10
781100.0000654757
 20
2932899.999943063
 10
786099.9999079704
 20
2932899.999943063
 10
786099.9999079704
 20
2927900.000100553
  0
LWPOLYLINE
  5
188
330
1F
100
AcDbEntity
  8
METRO3D_TILEGRID_POLY
100
AcDbPolyline
 90
        4
 70
     1
 43
0.0
 10
741100.0000131428
 20
2932899.999943063
 10
741100.0000131428
 20
2937900.000113636
 10
746099.9998556376
 20
2937900.000113636
 10
746099.9998556376
 20
2932899.999943063
  0
LWPOLYLINE
  5
189
330
1F
100
AcDbEntity
  8
METRO3D_TILEGRID_POLY
100
AcDbPolyline
 90
        4
 70
     1
 43
0.0
 10
746099.9998556376
 20
2932899.999943063
 10
746099.9998556376
 20
2937900.000113636
 10
751100.000026226
 20
2937900.000113636
 10
751100.000026226
 20
2932899.999943063
  0
LWPOLYLINE
  5
18A
330
1F
100
AcDbEntity
  8
METRO3D_TILEGRID_POLY
100
AcDbPolyline
 90
        4
 70
     1
 43
0.0
 10
751100.000026226
 20
2932899.999943063
 10
751100.000026226
 20
2937900.000113636
 10
756099.9998687208
 20
2937900.000113636
 10
756099.9998687208
 20
2932899.999943063
  0
LWPOLYLINE
  5
18B
330
1F
100
AcDbEntity
  8
METRO3D_TILEGRID_POLY
100
AcDbPolyline
 90
        4
 70
     1
 43
0.0
 10
756099.9998687208
 20
2932899.999943063
 10
756099.9998687208
 20
2937900.000113636
 10
761100.0000393093
 20
2937900.000113636
 10
761100.0000393093
 20
2932899.999943063
  0
LWPOLYLINE
  5
18C
330
1F
100
AcDbEntity
  8
METRO3D_TILEGRID_POLY
100
AcDbPolyline
 90
        4
 70
     1
 43
0.0
 10
761100.0000393093
 20
2932899.999943063
 10
761100.0000393093
 20
2937900.000113636
 10
766099.999881804
 20
2937900.000113636
 10
766099.999881804
 20
2932899.999943063
  0
LWPOLYLINE
  5
18D
330
1F
100
AcDbEntity
  8
METRO3D_TILEGRID_POLY
100
AcDbPolyline
 90
        4
 70
     1
 43
0.0
 10
766099.999881804
 20
2932899.999943063
 10
766099.999881804
 20
2937900.000113636
 10
771100.0000523925
 20
2937900.000113636
 10
771100.0000523925
 20
2932899.999943063
  0
LWPOLYLINE
  5
18E
330
1F
100
AcDbEntity
  8
METRO3D_TILEGRID_POLY
100
AcDbPolyline
 90
        4
 70
     1
 43
0.0
 10
771100.0000523925
 20
2932899.999943063
 10
771100.0000523925
 20
2937900.000113636
 10
776099.9998948872
 20
2937900.000113636
 10
776099.9998948872
 20
2932899.999943063
  0
LWPOLYLINE
  5
18F
330
1F
100
AcDbEntity
  8
METRO3D_TILEGRID_POLY
100
AcDbPolyline
 90
        4
 70
     1
 43
0.0
 10
776099.9998948872
 20
2932899.999943063
 10
776099.9998948872
 20
2937900.000113636
 10
781100.0000654757
 20
2937900.000113636
 10
781100.0000654757
 20
2932899.999943063
  0
LWPOLYLINE
  5
190
330
1F
100
AcDbEntity
  8
METRO3D_TILEGRID_POLY
100
AcDbPolyline
 90
        4
 70
     1
 43
0.0
 10
751100.000026226
 20
2937900.000113636
 10
751100.000026226
 20
2942899.999956146
 10
756099.9998687208
 20
2942899.999956146
 10
756099.9998687208
 20
2937900.000113636
  0
LWPOLYLINE
  5
191
330
1F
100
AcDbEntity
  8
METRO3D_TILEGRID_POLY
100
AcDbPolyline
 90
        4
 70
     1
 43
0.0
 10
756099.9998687208
 20
2937900.000113636
 10
756099.9998687208
 20
2942899.999956146
 10
761100.0000393093
 20
2942899.999956146
 10
761100.0000393093
 20
2937900.000113636
  0
LWPOLYLINE
  5
192
330
1F
100
AcDbEntity
  8
METRO3D_TILEGRID_POLY
100
AcDbPolyline
 90
        4
 70
     1
 43
0.0
 10
761100.0000393093
 20
2937900.000113636
 10
761100.0000393093
 20
2942899.999956146
 10
766099.999881804
 20
2942899.999956146
 10
766099.999881804
 20
2937900.000113636
  0
LWPOLYLINE
  5
193
330
1F
100
AcDbEntity
  8
METRO3D_TILEGRID_POLY
100
AcDbPolyline
 90
        4
 70
     1
 43
0.0
 10
766099.999881804
 20
2937900.000113636
 10
766099.999881804
 20
2942899.999956146
 10
771100.0000523925
 20
2942899.999956146
 10
771100.0000523925
 20
2937900.000113636
  0
LWPOLYLINE
  5
194
330
1F
100
AcDbEntity
  8
METRO3D_TILEGRID_POLY
100
AcDbPolyline
 90
        4
 70
     1
 43
0.0
 10
771100.0000523925
 20
2937900.000113636
 10
771100.0000523925
 20
2942899.999956146
 10
776099.9998948872
 20
2942899.999956146
 10
776099.9998948872
 20
2937900.000113636
  0
LWPOLYLINE
  5
195
330
1F
100
AcDbEntity
  8
METRO3D_TILEGRID_POLY
100
AcDbPolyline
 90
        4
 70
     1
 43
0.0
 10
776099.9998948872
 20
2937900.000113636
 10
776099.9998948872
 20
2942899.999956146
 10
781100.0000654757
 20
2942899.999956146
 10
781100.0000654757
 20
2937900.000113636
  0
LWPOLYLINE
  5
196
330
1F
100
AcDbEntity
  8
METRO3D_TILEGRID_POLY
100
AcDbPolyline
 90
        4
 70
     1
 43
0.0
 10
781100.0000654757
 20
2937900.000113636
 10
781100.0000654757
 20
2942899.999956146
 10
786099.9999079704
 20
2942899.999956146
 10
786099.9999079704
 20
2937900.000113636
  0
LWPOLYLINE
  5
197
330
1F
100
AcDbEntity
  8
METRO3D_TILEGRID_POLY
100
AcDbPolyline
 90
        4
 70
     1
 43
0.0
 10
786099.9999079704
 20
2937900.000113636
 10
786099.9999079704
 20
2942899.999956146
 10
791100.0000785589
 20
2942899.999956146
 10
791100.0000785589
 20
2937900.000113636
  0
LWPOLYLINE
  5
198
330
1F
100
AcDbEntity
  8
METRO3D_TILEGRID_POLY
100
AcDbPolyline
 90
        4
 70
     1
 43
0.0
 10
791100.0000785589
 20
2937900.000113636
 10
791100.0000785589
 20
2942899.999956146
 10
796099.9999210536
 20
2942899.999956146
 10
796099.9999210536
 20
2937900.000113636
  0
LWPOLYLINE
  5
199
330
1F
100
AcDbEntity
  8
METRO3D_TILEGRID_POLY
100
AcDbPolyline
 90
        4
 70
     1
 43
0.0
 10
796099.9999210536
 20
2937900.000113636
 10
796099.9999210536
 20
2942899.999956146
 10
801100.0000916421
 20
2942899.999956146
 10
801100.0000916421
 20
2937900.000113636
  0
LWPOLYLINE
  5
19A
330
1F
100
AcDbEntity
  8
METRO3D_TILEGRID_POLY
100
AcDbPolyline
 90
        4
 70
     1
 43
0.0
 10
801100.0000916421
 20
2937900.000113636
 10
801100.0000916421
 20
2942899.999956146
 10
806099.9999341369
 20
2942899.999956146
 10
806099.9999341369
 20
2937900.000113636
  0
LWPOLYLINE
  5
19B
330
1F
100
AcDbEntity
  8
METRO3D_TILEGRID_POLY
100
AcDbPolyline
 90
        4
 70
     1
 43
0.0
 10
806099.9999341369
 20
2937900.000113636
 10
806099.9999341369
 20
2942899.999956146
 10
811100.0001047254
 20
2942899.999956146
 10
811100.0001047254
 20
2937900.000113636
  0
LWPOLYLINE
  5
19C
330
1F
100
AcDbEntity
  8
METRO3D_TILEGRID_POLY
100
AcDbPolyline
 90
        4
 70
     1
 43
0.0
 10
811100.0001047254
 20
2937900.000113636
 10
811100.0001047254
 20
2942899.999956146
 10
816099.9999472201
 20
2942899.999956146
 10
816099.9999472201
 20
2937900.000113636
  0
LWPOLYLINE
  5
19D
330
1F
100
AcDbEntity
  8
METRO3D_TILEGRID_POLY
100
AcDbPolyline
 90
        4
 70
     1
 43
0.0
 10
741100.0000131428
 20
2942899.999956146
 10
741100.0000131428
 20
2947900.000126719
 10
746099.9998556376
 20
2947900.000126719
 10
746099.9998556376
 20
2942899.999956146
  0
LWPOLYLINE
  5
19E
330
1F
100
AcDbEntity
  8
METRO3D_TILEGRID_POLY
100
AcDbPolyline
 90
        4
 70
     1
 43
0.0
 10
746099.9998556376
 20
2942899.999956146
 10
746099.9998556376
 20
2947900.000126719
 10
751100.000026226
 20
2947900.000126719
 10
751100.000026226
 20
2942899.999956146
  0
LWPOLYLINE
  5
19F
330
1F
100
AcDbEntity
  8
METRO3D_TILEGRID_POLY
100
AcDbPolyline
 90
        4
 70
     1
 43
0.0
 10
751100.000026226
 20
2942899.999956146
 10
751100.000026226
 20
2947900.000126719
 10
756099.9998687208
 20
2947900.000126719
 10
756099.9998687208
 20
2942899.999956146
  0
LWPOLYLINE
  5
1A0
330
1F
100
AcDbEntity
  8
METRO3D_TILEGRID_POLY
100
AcDbPolyline
 90
        4
 70
     1
 43
0.0
 10
756099.9998687208
 20
2942899.999956146
 10
756099.9998687208
 20
2947900.000126719
 10
761100.0000393093
 20
2947900.000126719
 10
761100.0000393093
 20
2942899.999956146
  0
LWPOLYLINE
  5
1A1
330
1F
100
AcDbEntity
  8
METRO3D_TILEGRID_POLY
100
AcDbPolyline
 90
        4
 70
     1
 43
0.0
 10
761100.0000393093
 20
2942899.999956146
 10
761100.0000393093
 20
2947900.000126719
 10
766099.999881804
 20
2947900.000126719
 10
766099.999881804
 20
2942899.999956146
  0
LWPOLYLINE
  5
1A2
330
1F
100
AcDbEntity
  8
METRO3D_TILEGRID_POLY
100
AcDbPolyline
 90
        4
 70
     1
 43
0.0
 10
766099.999881804
 20
2942899.999956146
 10
766099.999881804
 20
2947900.000126719
 10
771100.0000523925
 20
2947900.000126719
 10
771100.0000523925
 20
2942899.999956146
  0
LWPOLYLINE
  5
1A3
330
1F
100
AcDbEntity
  8
METRO3D_TILEGRID_POLY
100
AcDbPolyline
 90
        4
 70
     1
 43
0.0
 10
771100.0000523925
 20
2942899.999956146
 10
771100.0000523925
 20
2947900.000126719
 10
776099.9998948872
 20
2947900.000126719
 10
776099.9998948872
 20
2942899.999956146
  0
LWPOLYLINE
  5
1A4
330
1F
100
AcDbEntity
  8
METRO3D_TILEGRID_POLY
100
AcDbPolyline
 90
        4
 70
     1
 43
0.0
 10
776099.9998948872
 20
2942899.999956146
 10
776099.9998948872
 20
2947900.000126719
 10
781100.0000654757
 20
2947900.000126719
 10
781100.0000654757
 20
2942899.999956146
  0
LWPOLYLINE
  5
1A5
330
1F
100
AcDbEntity
  8
METRO3D_TILEGRID_POLY
100
AcDbPolyline
 90
        4
 70
     1
 43
0.0
 10
781100.0000654757
 20
2942899.999956146
 10
781100.0000654757
 20
2947900.000126719
 10
786099.9999079704
 20
2947900.000126719
 10
786099.9999079704
 20
2942899.999956146
  0
LWPOLYLINE
  5
1A6
330
1F
100
AcDbEntity
  8
METRO3D_TILEGRID_POLY
100
AcDbPolyline
 90
        4
 70
     1
 43
0.0
 10
786099.9999079704
 20
2942899.999956146
 10
786099.9999079704
 20
2947900.000126719
 10
791100.0000785589
 20
2947900.000126719
 10
791100.0000785589
 20
2942899.999956146
  0
LWPOLYLINE
  5
1A7
330
1F
100
AcDbEntity
  8
METRO3D_TILEGRID_POLY
100
AcDbPolyline
 90
        4
 70
     1
 43
0.0
 10
791100.0000785589
 20
2942899.999956146
 10
791100.0000785589
 20
2947900.000126719
 10
796099.9999210536
 20
2947900.000126719
 10
796099.9999210536
 20
2942899.999956146
  0
LWPOLYLINE
  5
1A8
330
1F
100
AcDbEntity
  8
METRO3D_TILEGRID_POLY
100
AcDbPolyline
 90
        4
 70
     1
 43
0.0
 10
796099.9999210536
 20
2942899.999956146
 10
796099.9999210536
 20
2947900.000126719
 10
801100.0000916421
 20
2947900.000126719
 10
801100.0000916421
 20
2942899.999956146
  0
LWPOLYLINE
  5
1A9
330
1F
100
AcDbEntity
  8
METRO3D_TILEGRID_POLY
100
AcDbPolyline
 90
        4
 70
     1
 43
0.0
 10
801100.0000916421
 20
2942899.999956146
 10
801100.0000916421
 20
2947900.000126719
 10
806099.9999341369
 20
2947900.000126719
 10
806099.9999341369
 20
2942899.999956146
  0
LWPOLYLINE
  5
1AA
330
1F
100
AcDbEntity
  8
METRO3D_TILEGRID_POLY
100
AcDbPolyline
 90
        4
 70
     1
 43
0.0
 10
806099.9999341369
 20
2942899.999956146
 10
806099.9999341369
 20
2947900.000126719
 10
811100.0001047254
 20
2947900.000126719
 10
811100.0001047254
 20
2942899.999956146
  0
LWPOLYLINE
  5
1AB
330
1F
100
AcDbEntity
  8
METRO3D_TILEGRID_POLY
100
AcDbPolyline
 90
        4
 70
     1
 43
0.0
 10
811100.0001047254
 20
2942899.999956146
 10
811100.0001047254
 20
2947900.000126719
 10
816099.9999472201
 20
2947900.000126719
 10
816099.9999472201
 20
2942899.999956146
  0
LWPOLYLINE
  5
1AC
330
1F
100
AcDbEntity
  8
METRO3D_TILEGRID_POLY
100
AcDbPolyline
 90
        4
 70
     1
 43
0.0
 10
741100.0000131428
 20
2947900.000126719
 10
741100.0000131428
 20
2952899.999969229
 10
746099.9998556376
 20
2952899.999969229
 10
746099.9998556376
 20
2947900.000126719
  0
LWPOLYLINE
  5
1AD
330
1F
100
AcDbEntity
  8
METRO3D_TILEGRID_POLY
100
AcDbPolyline
 90
        4
 70
     1
 43
0.0
 10
746099.9998556376
 20
2947900.000126719
 10
746099.9998556376
 20
2952899.999969229
 10
751100.000026226
 20
2952899.999969229
 10
751100.000026226
 20
2947900.000126719
  0
LWPOLYLINE
  5
1AE
330
1F
100
AcDbEntity
  8
METRO3D_TILEGRID_POLY
100
AcDbPolyline
 90
        4
 70
     1
 43
0.0
 10
751100.000026226
 20
2947900.000126719
 10
751100.000026226
 20
2952899.999969229
 10
756099.9998687208
 20
2952899.999969229
 10
756099.9998687208
 20
2947900.000126719
  0
LWPOLYLINE
  5
1AF
330
1F
100
AcDbEntity
  8
METRO3D_TILEGRID_POLY
100
AcDbPolyline
 90
        4
 70
     1
 43
0.0
 10
756099.9998687208
 20
2947900.000126719
 10
756099.9998687208
 20
2952899.999969229
 10
761100.0000393093
 20
2952899.999969229
 10
761100.0000393093
 20
2947900.000126719
  0
LWPOLYLINE
  5
1B0
330
1F
100
AcDbEntity
  8
METRO3D_TILEGRID_POLY
100
AcDbPolyline
 90
        4
 70
     1
 43
0.0
 10
761100.0000393093
 20
2947900.000126719
 10
761100.0000393093
 20
2952899.999969229
 10
766099.999881804
 20
2952899.999969229
 10
766099.999881804
 20
2947900.000126719
  0
LWPOLYLINE
  5
1B1
330
1F
100
AcDbEntity
  8
METRO3D_TILEGRID_POLY
100
AcDbPolyline
 90
        4
 70
     1
 43
0.0
 10
766099.999881804
 20
2947900.000126719
 10
766099.999881804
 20
2952899.999969229
 10
771100.0000523925
 20
2952899.999969229
 10
771100.0000523925
 20
2947900.000126719
  0
LWPOLYLINE
  5
1B2
330
1F
100
AcDbEntity
  8
METRO3D_TILEGRID_POLY
100
AcDbPolyline
 90
        4
 70
     1
 43
0.0
 10
771100.0000523925
 20
2947900.000126719
 10
771100.0000523925
 20
2952899.999969229
 10
776099.9998948872
 20
2952899.999969229
 10
776099.9998948872
 20
2947900.000126719
  0
LWPOLYLINE
  5
1B3
330
1F
100
AcDbEntity
  8
METRO3D_TILEGRID_POLY
100
AcDbPolyline
 90
        4
 70
     1
 43
0.0
 10
776099.9998948872
 20
2947900.000126719
 10
776099.9998948872
 20
2952899.999969229
 10
781100.0000654757
 20
2952899.999969229
 10
781100.0000654757
 20
2947900.000126719
  0
LWPOLYLINE
  5
1B4
330
1F
100
AcDbEntity
  8
METRO3D_TILEGRID_POLY
100
AcDbPolyline
 90
        4
 70
     1
 43
0.0
 10
781100.0000654757
 20
2947900.000126719
 10
781100.0000654757
 20
2952899.999969229
 10
786099.9999079704
 20
2952899.999969229
 10
786099.9999079704
 20
2947900.000126719
  0
LWPOLYLINE
  5
1B5
330
1F
100
AcDbEntity
  8
METRO3D_TILEGRID_POLY
100
AcDbPolyline
 90
        4
 70
     1
 43
0.0
 10
786099.9999079704
 20
2947900.000126719
 10
786099.9999079704
 20
2952899.999969229
 10
791100.0000785589
 20
2952899.999969229
 10
791100.0000785589
 20
2947900.000126719
  0
LWPOLYLINE
  5
1B6
330
1F
100
AcDbEntity
  8
METRO3D_TILEGRID_POLY
100
AcDbPolyline
 90
        4
 70
     1
 43
0.0
 10
801100.0000916421
 20
2947900.000126719
 10
801100.0000916421
 20
2952899.999969229
 10
806099.9999341369
 20
2952899.999969229
 10
806099.9999341369
 20
2947900.000126719
  0
LWPOLYLINE
  5
1B7
330
1F
100
AcDbEntity
  8
METRO3D_TILEGRID_POLY
100
AcDbPolyline
 90
        4
 70
     1
 43
0.0
 10
741100.0000131428
 20
2952899.999969229
 10
741100.0000131428
 20
2957900.000139803
 10
746099.9998556376
 20
2957900.000139803
 10
746099.9998556376
 20
2952899.999969229
  0
LWPOLYLINE
  5
1B8
330
1F
100
AcDbEntity
  8
METRO3D_TILEGRID_POLY
100
AcDbPolyline
 90
        4
 70
     1
 43
0.0
 10
746099.9998556376
 20
2952899.999969229
 10
746099.9998556376
 20
2957900.000139803
 10
751100.000026226
 20
2957900.000139803
 10
751100.000026226
 20
2952899.999969229
  0
LWPOLYLINE
  5
1B9
330
1F
100
AcDbEntity
  8
METRO3D_TILEGRID_POLY
100
AcDbPolyline
 90
        4
 70
     1
 43
0.0
 10
751100.000026226
 20
2952899.999969229
 10
751100.000026226
 20
2957900.000139803
 10
756099.9998687208
 20
2957900.000139803
 10
756099.9998687208
 20
2952899.999969229
  0
LWPOLYLINE
  5
1BA
330
1F
100
AcDbEntity
  8
METRO3D_TILEGRID_POLY
100
AcDbPolyline
 90
        4
 70
     1
 43
0.0
 10
756099.9998687208
 20
2952899.999969229
 10
756099.9998687208
 20
2957900.000139803
 10
761100.0000393093
 20
2957900.000139803
 10
761100.0000393093
 20
2952899.999969229
  0
LWPOLYLINE
  5
1BB
330
1F
100
AcDbEntity
  8
METRO3D_TILEGRID_POLY
100
AcDbPolyline
 90
        4
 70
     1
 43
0.0
 10
761100.0000393093
 20
2952899.999969229
 10
761100.0000393093
 20
2957900.000139803
 10
766099.999881804
 20
2957900.000139803
 10
766099.999881804
 20
2952899.999969229
  0
LWPOLYLINE
  5
1BC
330
1F
100
AcDbEntity
  8
METRO3D_TILEGRID_POLY
100
AcDbPolyline
 90
        4
 70
     1
 43
0.0
 10
766099.999881804
 20
2952899.999969229
 10
766099.999881804
 20
2957900.000139803
 10
771100.0000523925
 20
2957900.000139803
 10
771100.0000523925
 20
2952899.999969229
  0
LWPOLYLINE
  5
1BD
330
1F
100
AcDbEntity
  8
METRO3D_TILEGRID_POLY
100
AcDbPolyline
 90
        4
 70
     1
 43
0.0
 10
771100.0000523925
 20
2952899.999969229
 10
771100.0000523925
 20
2957900.000139803
 10
776099.9998948872
 20
2957900.000139803
 10
776099.9998948872
 20
2952899.999969229
  0
LWPOLYLINE
  5
1BE
330
1F
100
AcDbEntity
  8
METRO3D_TILEGRID_POLY
100
AcDbPolyline
 90
        4
 70
     1
 43
0.0
 10
776099.9998948872
 20
2952899.999969229
 10
776099.9998948872
 20
2957900.000139803
 10
781100.0000654757
 20
2957900.000139803
 10
781100.0000654757
 20
2952899.999969229
  0
LWPOLYLINE
  5
1BF
330
1F
100
AcDbEntity
  8
METRO3D_TILEGRID_POLY
100
AcDbPolyline
 90
        4
 70
     1
 43
0.0
 10
781100.0000654757
 20
2952899.999969229
 10
781100.0000654757
 20
2957900.000139803
 10
786099.9999079704
 20
2957900.000139803
 10
786099.9999079704
 20
2952899.999969229
  0
LWPOLYLINE
  5
1C0
330
1F
100
AcDbEntity
  8
METRO3D_TILEGRID_POLY
100
AcDbPolyline
 90
        4
 70
     1
 43
0.0
 10
786099.9999079704
 20
2952899.999969229
 10
786099.9999079704
 20
2957900.000139803
 10
791100.0000785589
 20
2957900.000139803
 10
791100.0000785589
 20
2952899.999969229
  0
LWPOLYLINE
  5
1C1
330
1F
100
AcDbEntity
  8
METRO3D_TILEGRID_POLY
100
AcDbPolyline
 90
        4
 70
     1
 43
0.0
 10
791100.0000785589
 20
2952899.999969229
 10
791100.0000785589
 20
2957900.000139803
 10
796099.9999210536
 20
2957900.000139803
 10
796099.9999210536
 20
2952899.999969229
  0
LWPOLYLINE
  5
1C2
330
1F
100
AcDbEntity
  8
METRO3D_TILEGRID_POLY
100
AcDbPolyline
 90
        4
 70
     1
 43
0.0
 10
796099.9999210536
 20
2952899.999969229
 10
796099.9999210536
 20
2957900.000139803
 10
801100.0000916421
 20
2957900.000139803
 10
801100.0000916421
 20
2952899.999969229
  0
LWPOLYLINE
  5
1C3
330
1F
100
AcDbEntity
  8
METRO3D_TILEGRID_POLY
100
AcDbPolyline
 90
        4
 70
     1
 43
0.0
 10
801100.0000916421
 20
2952899.999969229
 10
801100.0000916421
 20
2957900.000139803
 10
806099.9999341369
 20
2957900.000139803
 10
806099.9999341369
 20
2952899.999969229
  0
LWPOLYLINE
  5
1C4
330
1F
100
AcDbEntity
  8
METRO3D_TILEGRID_POLY
100
AcDbPolyline
 90
        4
 70
     1
 43
0.0
 10
751100.000026226
 20
2957900.000139803
 10
751100.000026226
 20
2962899.999982312
 10
756099.9998687208
 20
2962899.999982312
 10
756099.9998687208
 20
2957900.000139803
  0
LWPOLYLINE
  5
1C5
330
1F
100
AcDbEntity
  8
METRO3D_TILEGRID_POLY
100
AcDbPolyline
 90
        4
 70
     1
 43
0.0
 10
756099.9998687208
 20
2957900.000139803
 10
756099.9998687208
 20
2962899.999982312
 10
761100.0000393093
 20
2962899.999982312
 10
761100.0000393093
 20
2957900.000139803
  0
LWPOLYLINE
  5
1C6
330
1F
100
AcDbEntity
  8
METRO3D_TILEGRID_POLY
100
AcDbPolyline
 90
        4
 70
     1
 43
0.0
 10
766099.999881804
 20
2957900.000139803
 10
766099.999881804
 20
2962899.999982312
 10
771100.0000523925
 20
2962899.999982312
 10
771100.0000523925
 20
2957900.000139803
  0
LWPOLYLINE
  5
1C7
330
1F
100
AcDbEntity
  8
METRO3D_TILEGRID_POLY
100
AcDbPolyline
 90
        4
 70
     1
 43
0.0
 10
771100.0000523925
 20
2957900.000139803
 10
771100.0000523925
 20
2962899.999982312
 10
776099.9998948872
 20
2962899.999982312
 10
776099.9998948872
 20
2957900.000139803
  0
LWPOLYLINE
  5
1C8
330
1F
100
AcDbEntity
  8
METRO3D_TILEGRID_POLY
100
AcDbPolyline
 90
        4
 70
     1
 43
0.0
 10
776099.9998948872
 20
2957900.000139803
 10
776099.9998948872
 20
2962899.999982312
 10
781100.0000654757
 20
2962899.999982312
 10
781100.0000654757
 20
2957900.000139803
  0
LWPOLYLINE
  5
1C9
330
1F
100
AcDbEntity
  8
METRO3D_TILEGRID_POLY
100
AcDbPolyline
 90
        4
 70
     1
 43
0.0
 10
781100.0000654757
 20
2957900.000139803
 10
781100.0000654757
 20
2962899.999982312
 10
786099.9999079704
 20
2962899.999982312
 10
786099.9999079704
 20
2957900.000139803
  0
LWPOLYLINE
  5
1CA
330
1F
100
AcDbEntity
  8
METRO3D_TILEGRID_POLY
100
AcDbPolyline
 90
        4
 70
     1
 43
0.0
 10
786099.9999079704
 20
2957900.000139803
 10
786099.9999079704
 20
2962899.999982312
 10
791100.0000785589
 20
2962899.999982312
 10
791100.0000785589
 20
2957900.000139803
  0
LWPOLYLINE
  5
1CB
330
1F
100
AcDbEntity
  8
METRO3D_TILEGRID_POLY
100
AcDbPolyline
 90
        4
 70
     1
 43
0.0
 10
766099.999881804
 20
2962899.999982312
 10
766099.999881804
 20
2967900.000152886
 10
771100.0000523925
 20
2967900.000152886
 10
771100.0000523925
 20
2962899.999982312
  0
LWPOLYLINE
  5
1CC
330
1F
100
AcDbEntity
  8
METRO3D_TILEGRID_POLY
100
AcDbPolyline
 90
        4
 70
     1
 43
0.0
 10
771100.0000523925
 20
2962899.999982312
 10
771100.0000523925
 20
2967900.000152886
 10
776099.9998948872
 20
2967900.000152886
 10
776099.9998948872
 20
2962899.999982312
  0
LWPOLYLINE
  5
1CD
330
1F
100
AcDbEntity
  8
METRO3D_TILEGRID_POLY
100
AcDbPolyline
 90
        4
 70
     1
 43
0.0
 10
776099.9998948872
 20
2962899.999982312
 10
776099.9998948872
 20
2967900.000152886
 10
781100.0000654757
 20
2967900.000152886
 10
781100.0000654757
 20
2962899.999982312
  0
LWPOLYLINE
  5
1CE
330
1F
100
AcDbEntity
  8
METRO3D_TILEGRID_POLY
100
AcDbPolyline
 90
        4
 70
     1
 43
0.0
 10
781100.0000654757
 20
2962899.999982312
 10
781100.0000654757
 20
2967900.000152886
 10
786099.9999079704
 20
2967900.000152886
 10
786099.9999079704
 20
2962899.999982312
  0
LWPOLYLINE
  5
1CF
330
1F
100
AcDbEntity
  8
METRO3D_TILEGRID_POLY
100
AcDbPolyline
 90
        4
 70
     1
 43
0.0
 10
786099.9999079704
 20
2962899.999982312
 10
786099.9999079704
 20
2967900.000152886
 10
791100.0000785589
 20
2967900.000152886
 10
791100.0000785589
 20
2962899.999982312
  0
LWPOLYLINE
  5
1D0
330
1F
100
AcDbEntity
  8
METRO3D_TILEGRID_POLY
100
AcDbPolyline
 90
        4
 70
     1
 43
0.0
 10
791100.0000785589
 20
2962899.999982312
 10
791100.0000785589
 20
2967900.000152886
 10
796099.9999210536
 20
2967900.000152886
 10
796099.9999210536
 20
2962899.999982312
  0
LWPOLYLINE
  5
1D1
330
1F
100
AcDbEntity
  8
METRO3D_TILEGRID_POLY
100
AcDbPolyline
 90
        4
 70
     1
 43
0.0
 10
786099.9999079704
 20
2967900.000152886
 10
786099.9999079704
 20
2972899.999995396
 10
791100.0000785589
 20
2972899.999995396
 10
791100.0000785589
 20
2967900.000152886
  0
LWPOLYLINE
  5
1D2
330
1F
100
AcDbEntity
  8
METRO3D_TILEGRID_POLY
100
AcDbPolyline
 90
        4
 70
     1
 43
0.0
 10
791100.0000785589
 20
2967900.000152886
 10
791100.0000785589
 20
2972899.999995396
 10
796099.9999210536
 20
2972899.999995396
 10
796099.9999210536
 20
2967900.000152886
  0
ENDSEC
  0
SECTION
  2
OBJECTS
  0
DICTIONARY
  5
C
330
0
100
AcDbDictionary
  3
ACAD_GROUP
350
D
  3
ACAD_LAYOUT
350
1A
  3
ACAD_MATERIAL
350
43
  3
ACAD_MLEADERSTYLE
350
5B
  3
ACAD_MLINESTYLE
350
17
  3
ACAD_PLOTSETTINGS
350
19
  3
ACAD_SCALELIST
350
47
  3
ACAD_VISUALSTYLE
350
2A
  3
ACDBHEADERROUNDTRIPXREC
350
1D4
  3
ACDBVARIABLEDICTIONARY
350
7F
  3
DWGPROPS
350
1F8
  3
ESRI_PRJ
350
FD
  0
DICTIONARY
  5
1F9
330
8
100
AcDbDictionary
280
     1
  3
ACAD_XREC_ROUNDTRIP
360
1FA
  0
DICTIONARY
  5
D
102
{ACAD_REACTORS
330
C
102
}
330
C
100
AcDbDictionary
  0
DICTIONARY
  5
1A
102
{ACAD_REACTORS
330
C
102
}
330
C
100
AcDbDictionary
  0
DICTIONARY
  5
43
102
{ACAD_REACTORS
330
C
102
}
330
C
100
AcDbDictionary
  3
BYBLOCK
350
45
  3
BYLAYER
350
44
  3
GLOBAL
350
46
  0
DICTIONARY
  5
5B
102
{ACAD_REACTORS
330
C
102
}
330
C
100
AcDbDictionary
  3
STANDARD
350
5C
  0
DICTIONARY
  5
17
102
{ACAD_REACTORS
330
C
102
}
330
C
100
AcDbDictionary
  3
STANDARD
350
18
  0
DICTIONARY
  5
19
102
{ACAD_REACTORS
330
C
102
}
330
C
100
AcDbDictionary
  0
DICTIONARY
  5
47
102
{ACAD_REACTORS
330
C
102
}
330
C
100
AcDbDictionary
  3
A0
350
48
  3
A1
350
49
  3
A2
350
4A
  3
A3
350
4B
  3
A4
350
4C
  3
A5
350
4D
  3
A6
350
4E
  3
A7
350
4F
  3
A8
350
50
  3
A9
350
51
  3
B1
350
52
  3
B2
350
53
  3
B3
350
54
  3
B4
350
55
  3
B5
350
56
  3
B6
350
57
  3
B7
350
58
  0
DICTIONARY
  5
2A
102
{ACAD_REACTORS
330
C
102
}
330
C
100
AcDbDictionary
  3
2DWIREFRAME
350
2F
  3
BASIC
350
32
  3
BRIGHTEN
350
36
  3
COLORCHANGE
350
3A
  3
CONCEPTUAL
350
34
  3
DIM
350
35
  3
EDGECOLOROFF
350
3D
  3
FACEPATTERN
350
39
  3
FLAT
350
2B
  3
FLATWITHEDGES
350
2C
  3
GOURAUD
350
2D
  3
GOURAUDWITHEDGES
350
2E
  3
HIDDEN
350
31
  3
JITTEROFF
350
3B
  3
LINEPATTERN
350
38
  3
OVERHANGOFF
350
3C
  3
REALISTIC
350
33
  3
SHADED
350
42
  3
SHADED_WITH_EDGE0
350
41
  3
SHADED_WITH_EDGES
350
12F
  3
SHADES_OF_GRA0
350
3E
  3
SHADES_OF_GRAY
350
12E
  3
SKETCHY
350
3F
  3
THICKEN
350
37
  3
WIREFRAME
350
30
  3
X-RAY
350
40
  0
DICTIONARY
  5
1D4
102
{ACAD_REACTORS
330
C
102
}
330
C
100
AcDbDictionary
  3
CEPSNID
350
1DE
  3
CEPSNTYPE
350
1DD
  3
DIMSTYLEDATA
350
1F4
  3
FINGERPRINTGUID
350
1DF
  3
HYPERLINKBASE
350
1D7
  3
INSUNITS
350
1DC
  3
LAYOUTDICT
350
1D9
  3
LWETCUNION
350
1DB
  3
PLOTSETDICT
350
1DA
  3
PSVPSCALE
350
1E1
  3
PUCSBASE
350
1E4
  3
PUCSORGBACK
350
1EA
  3
PUCSORGBOTTOM
350
1E6
  3
PUCSORGFRONT
350
1E9
  3
PUCSORGLEFT
350
1E7
  3
PUCSORGRIGHT
350
1E8
  3
PUCSORGTOP
350
1E5
  3
PUCSORTHOREF
350
1E2
  3
PUCSORTHOVIEW
350
1E3
  3
STYLESHEET
350
1D8
  3
TSTACKALIGN
350
1D5
  3
TSTACKSIZE
350
1D6
  3
UCSBASE
350
1ED
  3
UCSORGBACK
350
1F3
  3
UCSORGBOTTOM
350
1EF
  3
UCSORGFRONT
350
1F2
  3
UCSORGLEFT
350
1F0
  3
UCSORGRIGHT
350
1F1
  3
UCSORGTOP
350
1EE
  3
UCSORTHOREF
350
1EB
  3
UCSORTHOVIEW
350
1EC
  3
VERSIONGUID
350
1E0
  0
DICTIONARY
  5
7F
102
{ACAD_REACTORS
330
C
102
}
330
C
100
AcDbDictionary
  3
CANNOSCALE
350
1FB
  3
CMLEADERSTYLE
350
81
  3
CTABLESTYLE
350
1F5
  3
DIMASSOC
350
84
  3
HIDETEXT
350
85
  3
MSLTSCALE
350
8A
  0
XRECORD
  5
1F8
102
{ACAD_REACTORS
330
C
102
}
330
C
100
AcDbXrecord
  1
DWGPROPS COOKIE
  2

  3

  4

  6

  7

  8
pbcote
  9

300
=
301
=
302
=
303
=
304
=
305
=
306
=
307
=
308
=
309
=
 40
0.0
 41
2459399.541783252
 42
2459399.541786817
  1

 90
        0
  0
XRECORD
  5
FD
102
{ACAD_REACTORS
330
C
102
}
330
C
100
AcDbXrecord
  1
PROJCS["NAD_1983_StatePlane_Massachusetts_Mainland_FIPS_2001_Feet",GEOGCS["GCS_North_American_1983",DATUM["D_North_American_1983",SPHEROID["GRS_1980",6378137.0,298.257222101]],PRIMEM["Greenwich",0.0],UNIT["Degree",0.0174532925199433]],PROJECTION["Lambert_Conformal_Conic"],PARAMETER["False_Easting",656166.6666666665],PARAMETER["False_Northing",2460625.0],PARAMETER["Central_Meridian",-71.5],PARAMETER["Standard_Parallel_1",41.71666666666667],PARAMETER["Standard_Parallel_2",42.68333333333333],PARAMETER["Latitude_Of_Origin",41.0],UNIT["Foot_US",0.3048006096012192]],VERTCS["NAVD88_height_(ftUS)",VDATUM["North_American_Vertical_Datum_1988"],PARAMETER["Vertical_Shift",0.0],PARAMETER["Direction",1.0],UNIT["Foot_US",0.3048006096012192]]
  0
XRECORD
  5
1FA
102
{ACAD_REACTORS
330
1F9
102
}
330
1F9
100
AcDbXrecord
102
VTR_0.000_0.000_1.000_1.000_VISUALSTYLE
340
2F
102
VTR_0.000_0.000_1.000_1.000_GRIDDISPLAY
 70
     3
102
VTR_0.000_0.000_1.000_1.000_GRIDMAJOR
 70
     5
102
VTR_0.000_0.000_1.000_1.000_DEFAULTLIGHTING
280
     1
102
VTR_0.000_0.000_1.000_1.000_DEFAULTLIGHTINGTYPE
 70
     1
102
VTR_0.000_0.000_1.000_1.000_BRIGHTNESS
141
0.0
102
VTR_0.000_0.000_1.000_1.000_CONTRAST
142
0.0
  0
MATERIAL
  5
45
102
{ACAD_REACTORS
330
43
102
}
102
{ACAD_XDICTIONARY
360
1FC
102
}
330
43
100
AcDbMaterial
  1
BYBLOCK
  0
MATERIAL
  5
44
102
{ACAD_REACTORS
330
43
102
}
102
{ACAD_XDICTIONARY
360
1FE
102
}
330
43
100
AcDbMaterial
  1
BYLAYER
  0
MATERIAL
  5
46
102
{ACAD_REACTORS
330
43
102
}
102
{ACAD_XDICTIONARY
360
200
102
}
330
43
100
AcDbMaterial
  1
GLOBAL
  0
ACAD_PROXY_OBJECT
  5
5C
102
{ACAD_REACTORS
330
5B
102
}
330
5B
100
AcDbProxyObject
 90
      499
 91
      505
 93
      610
310
40901902A4063FBFFFFFE056BD1B81E855B9FC0AD7A3703D0AD73F4214DD185B99185C9900AD7A3703D0AC73F90141901A02B5E8DC0F42B1CFC02B5E8DC0F42B1CFE5764000000000000300FC0
340
14
340
0
340
11
340
0
 94
        0
1001
ACAD_MLEADERVER
1070
     2
  0
MLINESTYLE
  5
18
102
{ACAD_REACTORS
330
17
102
}
330
17
100
AcDbMlineStyle
  2
Standard
 70
     0
  3

 62
   256
 51
90.0
 52
90.0
 71
     2
 49
0.5
 62
   256
  6
BYLAYER
 49
-0.5
 62
   256
  6
BYLAYER
  0
ACAD_PROXY_OBJECT
  5
48
102
{ACAD_REACTORS
330
47
102
}
330
47
100
AcDbProxyObject
 90
      499
 91
      503
 93
       41
310
903313A31580
  0
ACAD_PROXY_OBJECT
  5
49
102
{ACAD_REACTORS
330
47
102
}
330
47
100
AcDbProxyObject
 90
      499
 91
      503
 93
      257
310
90E312F31323822203D2031272D3022000000000000200FC000000000000284000
  0
ACAD_PROXY_OBJECT
  5
4A
102
{ACAD_REACTORS
330
47
102
}
330
47
100
AcDbProxyObject
 90
      499
 91
      503
 93
      249
310
90D312F363422203D2031272D3022000000000000240FC000000000000284000
  0
ACAD_PROXY_OBJECT
  5
4B
102
{ACAD_REACTORS
330
47
102
}
330
47
100
AcDbProxyObject
 90
      499
 91
      503
 93
      249
310
90D312F333222203D2031272D3022000000000000280FC000000000000284000
  0
ACAD_PROXY_OBJECT
  5
4C
102
{ACAD_REACTORS
330
47
102
}
330
47
100
AcDbProxyObject
 90
      499
 91
      503
 93
      249
310
90D312F313622203D2031272D30220000000000002C0FC000000000000284000
  0
ACAD_PROXY_OBJECT
  5
4D
102
{ACAD_REACTORS
330
47
102
}
330
47
100
AcDbProxyObject
 90
      499
 91
      503
 93
      249
310
90D332F333222203D2031272D30220000000000002E0FC000000000000284000
  0
ACAD_PROXY_OBJECT
  5
4E
102
{ACAD_REACTORS
330
47
102
}
330
47
100
AcDbProxyObject
 90
      499
 91
      503
 93
      241
310
90C312F3822203D2031272D3022000000000000300FC000000000000284000
  0
ACAD_PROXY_OBJECT
  5
4F
102
{ACAD_REACTORS
330
47
102
}
330
47
100
AcDbProxyObject
 90
      499
 91
      503
 93
      249
310
90D332F313622203D2031272D3022000000000000320FC000000000000284000
  0
ACAD_PROXY_OBJECT
  5
50
102
{ACAD_REACTORS
330
47
102
}
330
47
100
AcDbProxyObject
 90
      499
 91
      503
 93
      241
310
90C312F3422203D2031272D3022000000000000340FC000000000000284000
  0
ACAD_PROXY_OBJECT
  5
51
102
{ACAD_REACTORS
330
47
102
}
330
47
100
AcDbProxyObject
 90
      499
 91
      503
 93
      241
310
90C332F3822203D2031272D3022000000000000360FC000000000000284000
  0
ACAD_PROXY_OBJECT
  5
52
102
{ACAD_REACTORS
330
47
102
}
330
47
100
AcDbProxyObject
 90
      499
 91
      503
 93
      241
310
90C312F3222203D2031272D3022000000000000380FC000000000000284000
  0
ACAD_PROXY_OBJECT
  5
53
102
{ACAD_REACTORS
330
47
102
}
330
47
100
AcDbProxyObject
 90
      499
 91
      503
 93
      241
310
90C332F3422203D2031272D30220000000000003A0FC000000000000284000
  0
ACAD_PROXY_OBJECT
  5
54
102
{ACAD_REACTORS
330
47
102
}
330
47
100
AcDbProxyObject
 90
      499
 91
      503
 93
      161
310
90A3122203D2031272D30224000000000000284000
  0
ACAD_PROXY_OBJECT
  5
55
102
{ACAD_REACTORS
330
47
102
}
330
47
100
AcDbProxyObject
 90
      499
 91
      503
 93
      257
310
90E312D312F3222203D2031272D30220000000000003E0FC000000000000284000
  0
ACAD_PROXY_OBJECT
  5
56
102
{ACAD_REACTORS
330
47
102
}
330
47
100
AcDbProxyObject
 90
      499
 91
      503
 93
      225
310
90A3322203D2031272D302200000000000002100000000000000284000
  0
ACAD_PROXY_OBJECT
  5
57
102
{ACAD_REACTORS
330
47
102
}
330
47
100
AcDbProxyObject
 90
      499
 91
      503
 93
      225
310
90A3622203D2031272D302200000000000006100000000000000284000
  0
ACAD_PROXY_OBJECT
  5
58
102
{ACAD_REACTORS
330
47
102
}
330
47
100
AcDbProxyObject
 90
      499
 91
      503
 93
      249
310
90D31272D3022203D2031272D30220000000000000A100000000000000284000
  0
ACAD_PROXY_OBJECT
  5
2F
102
{ACAD_REACTORS
330
2A
102
}
330
2A
100
AcDbProxyObject
 90
      499
 91
      501
 93
      436
310
42CC9915DA5C99599C985B595049028333333333333E33F0000000000000F90107901411070040501600405405064090741402480A0340
1001
ACAD
1000
AcDbSavedByObjectVersion
1070
     0
  0
ACAD_PROXY_OBJECT
  5
32
102
{ACAD_REACTORS
330
2A
102
}
330
2A
100
AcDbProxyObject
 90
      499
 91
      501
 93
      388
310
4150985CDA58D07406404333333333333E33F0000000000000F90107A41107004050150841D405064090741402480A0350
1001
ACAD
1000
AcDbSavedByObjectVersion
1070
     0
  0
ACAD_PROXY_OBJECT
  5
36
102
{ACAD_REACTORS
330
2A
102
}
330
2A
100
AcDbProxyObject
 90
      499
 91
      501
 93
      428
310
42109C9A59DA1D195B90C409028333333333333E33F0000000000000F9010790141107004050150841D405064090741402480A029950
1001
ACAD
1000
AcDbSavedByObjectVersion
1070
     0
  0
ACAD_PROXY_OBJECT
  5
3A
102
{ACAD_REACTORS
330
2A
102
}
330
2A
100
AcDbProxyObject
 90
      499
 91
      501
 93
      452
310
42D0DBDB1BDC90DA185B99D95104090240C333333333333E33F0000000000000F90108901411070040501508421405064090741402480A0350
1001
ACAD
1000
AcDbSavedByObjectVersion
1070
     0
  0
ACAD_PROXY_OBJECT
  5
34
102
{ACAD_REACTORS
330
2A
102
}
330
2A
100
AcDbProxyObject
 90
      499
 91
      501
 93
      500
310
4290DBDB98D95C1D1D585B10940D028333333333333E33F0000000000000F90107902409070040501000000000018199010841D405064090740C02480A0340
1001
ACAD
1000
AcDbSavedByObjectVersion
1070
     0
  0
ACAD_PROXY_OBJECT
  5
35
102
{ACAD_REACTORS
330
2A
102
}
330
2A
100
AcDbProxyObject
 90
      499
 91
      501
 93
      412
310
40D11A5B50B409028333333333333E33F0000000000000F9010790141107004050150841D405064090741402480A02677FFFFFD0
1001
ACAD
1000
AcDbSavedByObjectVersion
1070
     0
  0
ACAD_PROXY_OBJECT
  5
3D
102
{ACAD_REACTORS
330
2A
102
}
330
2A
100
AcDbProxyObject
 90
      499
 91
      501
 93
      452
310
43115919D950DBDB1BDC93D999916409028333333333333E33F0000000000000F9010790141107004050150841D405064090741402480A0350
1001
ACAD
1000
AcDbSavedByObjectVersion
1070
     0
  0
ACAD_PROXY_OBJECT
  5
39
102
{ACAD_REACTORS
330
2A
102
}
330
2A
100
AcDbProxyObject
 90
      499
 91
      501
 93
      444
310
42D19858D95C185D1D195C9B90F409028333333333333E33F0000000000000F9010790141107004050150841D405064090741402480A0350
1001
ACAD
1000
AcDbSavedByObjectVersion
1070
     0
  0
ACAD_PROXY_OBJECT
  5
2B
102
{ACAD_REACTORS
330
2A
102
}
330
2A
100
AcDbProxyObject
 90
      499
 91
      501
 93
      380
310
41119B185D240901404333333333333E33F0000000000000F9010740A907004050150841D405064090741402480A1B50
1001
ACAD
1000
AcDbSavedByObjectVersion
1070
     0
  0
ACAD_PROXY_OBJECT
  5
2C
102
{ACAD_REACTORS
330
2A
102
}
330
2A
100
AcDbProxyObject
 90
      499
 91
      501
 93
      468
310
43519B185D15DA5D1A115919D95CD0140901404333333333333E33F0000000000000F90107409019070040501600405405064090741402480A1B50
1001
ACAD
1000
AcDbSavedByObjectVersion
1070
     0
  0
ACAD_PROXY_OBJECT
  5
2D
102
{ACAD_REACTORS
330
2A
102
}
330
2A
100
AcDbProxyObject
 90
      499
 91
      501
 93
      404
310
41D1DBDD5C985D5910240902404333333333333E33F0000000000000F9010740A9070040501641D405064090741402480A1B50
1001
ACAD
1000
AcDbSavedByObjectVersion
1070
     0
  0
ACAD_PROXY_OBJECT
  5
2E
102
{ACAD_REACTORS
330
2A
102
}
330
2A
100
AcDbProxyObject
 90
      499
 91
      501
 93
      492
310
4411DBDD5C985D5915DA5D1A115919D95CD0340902404333333333333E33F0000000000000F90107409019070040501600405405064090741402480A1B50
1001
ACAD
1000
AcDbSavedByObjectVersion
1070
     0
  0
ACAD_PROXY_OBJECT
  5
31
102
{ACAD_REACTORS
330
2A
102
}
330
2A
100
AcDbProxyObject
 90
      499
 91
      501
 93
      476
310
41921A5919195B90640502408333333333333E33F0000000000000F901079024090700405020000000000001110200405405064090740C02480A0340
1001
ACAD
1000
AcDbSavedByObjectVersion
1070
     0
  0
ACAD_PROXY_OBJECT
  5
3B
102
{ACAD_REACTORS
330
2A
102
}
330
2A
100
AcDbProxyObject
 90
      499
 91
      501
 93
      428
310
42529A5D1D195C93D999914409028333333333333E33F0000000000000F9010790141107004050150A41D405064090741402480A0350
1001
ACAD
1000
AcDbSavedByObjectVersion
1070
     0
  0
ACAD_PROXY_OBJECT
  5
38
102
{ACAD_REACTORS
330
2A
102
}
330
2A
100
AcDbProxyObject
 90
      499
 91
      501
 93
      444
310
42D31A5B995C185D1D195C9B90E409028333333333333E33F0000000000000F9010790141107004050750841D405064090741402483A0350
1001
ACAD
1000
AcDbSavedByObjectVersion
1070
     0
  0
ACAD_PROXY_OBJECT
  5
3C
102
{ACAD_REACTORS
330
2A
102
}
330
2A
100
AcDbProxyObject
 90
      499
 91
      501
 93
      444
310
42D3DD995C9A185B99D3D999915409028333333333333E33F0000000000000F9010790141107004050150941D405064090741402480A0350
1001
ACAD
1000
AcDbSavedByObjectVersion
1070
     0
  0
ACAD_PROXY_OBJECT
  5
33
102
{ACAD_REACTORS
330
2A
102
}
330
2A
100
AcDbProxyObject
 90
      499
 91
      501
 93
      428
310
425499585B1A5CDD1A58D08409038333333333333E33F0000000000000F9010740A907004050150800405405064090740C02480A1B40
1001
ACAD
1000
AcDbSavedByObjectVersion
1070
     0
  0
ACAD_PROXY_OBJECT
  5
42
102
{ACAD_REACTORS
330
2A
102
}
330
2A
100
AcDbProxyObject
 90
      499
 91
      501
 93
      420
310
4194DA1859195911B40902404333333333333E33F0000000000000F9010740A41107004050150800405405064090840C02480A0B40
1001
ACAD
1000
AcDbSavedByObjectVersion
1070
     0
  0
ACAD_PROXY_OBJECT
  5
41
102
{ACAD_REACTORS
330
2A
102
}
330
2A
100
AcDbProxyObject
 90
      499
 91
      501
 93
      516
310
4454DA18591959081DDA5D1A08195919D95CD1A40902404333333333333E33F0000000000000F901074090142907004050250800405405064090740C02480A0B40
1001
ACAD
1000
AcDbSavedByObjectVersion
1070
     0
  0
ACAD_PROXY_OBJECT
  5
12F
102
{ACAD_REACTORS
330
2A
102
}
330
2A
100
AcDbProxyObject
 90
      499
 91
      501
 93
      516
310
4454DA18591959081DDA5D1A08195919D95CD1A40902404333333333333E33F0000000000000F901074090142907004050250800405405064090740C02480A0B40
1001
ACAD
1000
AcDbSavedByObjectVersion
1070
     0
  0
ACAD_PROXY_OBJECT
  5
3E
102
{ACAD_REACTORS
330
2A
102
}
330
2A
100
AcDbProxyObject
 90
      499
 91
      501
 93
      532
310
4394DA1859195CC81BD98811DC985E5174090240C333333333333E33F0000000000000F901079024090741D01000000000000111010841D405064090740C02480A0340
1001
ACAD
1000
AcDbSavedByObjectVersion
1070
     0
  0
ACAD_PROXY_OBJECT
  5
12E
102
{ACAD_REACTORS
330
2A
102
}
330
2A
100
AcDbProxyObject
 90
      499
 91
      501
 93
      532
310
4394DA1859195CC81BD98811DC985E5174090240C333333333333E33F0000000000000F901079024090741D01000000000000111010841D405064090740C02480A0340
1001
ACAD
1000
AcDbSavedByObjectVersion
1070
     0
  0
ACAD_PROXY_OBJECT
  5
3F
102
{ACAD_REACTORS
330
2A
102
}
330
2A
100
AcDbProxyObject
 90
      499
 91
      501
 93
      476
310
41D4DAD95D18DA1E51840502408333333333333E33F0000000000000F901079024090741D01000000000000111010B41D405064090741802480A0340
1001
ACAD
1000
AcDbSavedByObjectVersion
1070
     0
  0
ACAD_PROXY_OBJECT
  5
37
102
{ACAD_REACTORS
330
2A
102
}
330
2A
100
AcDbProxyObject
 90
      499
 91
      501
 93
      412
310
41D51A1A58DAD95B90D409028333333333333E33F0000000000000F9010790141107004050150C41D405064090741402480A0350
1001
ACAD
1000
AcDbSavedByObjectVersion
1070
     0
  0
ACAD_PROXY_OBJECT
  5
30
102
{ACAD_REACTORS
330
2A
102
}
330
2A
100
AcDbProxyObject
 90
      499
 91
      501
 93
      420
310
4255DA5C99599C985B595059028333333333333E33F0000000000000F90107901411070040501600405405064090740C02480A0340
1001
ACAD
1000
AcDbSavedByObjectVersion
1070
     0
  0
ACAD_PROXY_OBJECT
  5
40
102
{ACAD_REACTORS
330
2A
102
}
330
2A
100
AcDbProxyObject
 90
      499
 91
      501
 93
      404
310
41560B54985E51940902404000000000000E03F0000000000000F9010740501907004050150841D405064090740C02480A1B40
1001
ACAD
1000
AcDbSavedByObjectVersion
1070
     0
  0
XRECORD
  5
1DE
102
{ACAD_REACTORS
330
1D4
102
}
330
1D4
100
AcDbXrecord
340
0
  0
XRECORD
  5
1DD
102
{ACAD_REACTORS
330
1D4
102
}
330
1D4
100
AcDbXrecord
 90
        0
  0
XRECORD
  5
1F4
102
{ACAD_REACTORS
330
1D4
102
}
330
1D4
100
AcDbXrecord
1000
DSTYLE
1002
{
1070
   279
 70
     2
1070
   340
340
11
1002
}
  0
XRECORD
  5
1DF
102
{ACAD_REACTORS
330
1D4
102
}
330
1D4
100
AcDbXrecord
  1
{1194cc47-f368-4bd5-b04b-585e9530e645}
  0
XRECORD
  5
1D7
102
{ACAD_REACTORS
330
1D4
102
}
330
1D4
100
AcDbXrecord
  1

  0
XRECORD
  5
1DC
102
{ACAD_REACTORS
330
1D4
102
}
330
1D4
100
AcDbXrecord
 90
        1
  0
XRECORD
  5
1D9
102
{ACAD_REACTORS
330
1D4
102
}
330
1D4
100
AcDbXrecord
340
1A
  0
XRECORD
  5
1DB
102
{ACAD_REACTORS
330
1D4
102
}
330
1D4
100
AcDbXrecord
 90
    10781
  0
XRECORD
  5
1DA
102
{ACAD_REACTORS
330
1D4
102
}
330
1D4
100
AcDbXrecord
340
19
  0
XRECORD
  5
1E1
102
{ACAD_REACTORS
330
1D4
102
}
330
1D4
100
AcDbXrecord
 40
0.0
  0
XRECORD
  5
1E4
102
{ACAD_REACTORS
330
1D4
102
}
330
1D4
100
AcDbXrecord
340
0
  0
XRECORD
  5
1EA
102
{ACAD_REACTORS
330
1D4
102
}
330
1D4
100
AcDbXrecord
 10
0.0
 20
0.0
 30
0.0
  0
XRECORD
  5
1E6
102
{ACAD_REACTORS
330
1D4
102
}
330
1D4
100
AcDbXrecord
 10
0.0
 20
0.0
 30
0.0
  0
XRECORD
  5
1E9
102
{ACAD_REACTORS
330
1D4
102
}
330
1D4
100
AcDbXrecord
 10
0.0
 20
0.0
 30
0.0
  0
XRECORD
  5
1E7
102
{ACAD_REACTORS
330
1D4
102
}
330
1D4
100
AcDbXrecord
 10
0.0
 20
0.0
 30
0.0
  0
XRECORD
  5
1E8
102
{ACAD_REACTORS
330
1D4
102
}
330
1D4
100
AcDbXrecord
 10
0.0
 20
0.0
 30
0.0
  0
XRECORD
  5
1E5
102
{ACAD_REACTORS
330
1D4
102
}
330
1D4
100
AcDbXrecord
 10
0.0
 20
0.0
 30
0.0
  0
XRECORD
  5
1E2
102
{ACAD_REACTORS
330
1D4
102
}
330
1D4
100
AcDbXrecord
340
0
  0
XRECORD
  5
1E3
102
{ACAD_REACTORS
330
1D4
102
}
330
1D4
100
AcDbXrecord
 70
     0
  0
XRECORD
  5
1D8
102
{ACAD_REACTORS
330
1D4
102
}
330
1D4
100
AcDbXrecord
  1

  0
XRECORD
  5
1D5
102
{ACAD_REACTORS
330
1D4
102
}
330
1D4
100
AcDbXrecord
 90
        1
  0
XRECORD
  5
1D6
102
{ACAD_REACTORS
330
1D4
102
}
330
1D4
100
AcDbXrecord
 90
       70
  0
XRECORD
  5
1ED
102
{ACAD_REACTORS
330
1D4
102
}
330
1D4
100
AcDbXrecord
340
0
  0
XRECORD
  5
1F3
102
{ACAD_REACTORS
330
1D4
102
}
330
1D4
100
AcDbXrecord
 10
0.0
 20
0.0
 30
0.0
  0
XRECORD
  5
1EF
102
{ACAD_REACTORS
330
1D4
102
}
330
1D4
100
AcDbXrecord
 10
0.0
 20
0.0
 30
0.0
  0
XRECORD
  5
1F2
102
{ACAD_REACTORS
330
1D4
102
}
330
1D4
100
AcDbXrecord
 10
0.0
 20
0.0
 30
0.0
  0
XRECORD
  5
1F0
102
{ACAD_REACTORS
330
1D4
102
}
330
1D4
100
AcDbXrecord
 10
0.0
 20
0.0
 30
0.0
  0
XRECORD
  5
1F1
102
{ACAD_REACTORS
330
1D4
102
}
330
1D4
100
AcDbXrecord
 10
0.0
 20
0.0
 30
0.0
  0
XRECORD
  5
1EE
102
{ACAD_REACTORS
330
1D4
102
}
330
1D4
100
AcDbXrecord
 10
0.0
 20
0.0
 30
0.0
  0
XRECORD
  5
1EB
102
{ACAD_REACTORS
330
1D4
102
}
330
1D4
100
AcDbXrecord
340
0
  0
XRECORD
  5
1EC
102
{ACAD_REACTORS
330
1D4
102
}
330
1D4
100
AcDbXrecord
 70
     0
  0
XRECORD
  5
1E0
102
{ACAD_REACTORS
330
1D4
102
}
330
1D4
100
AcDbXrecord
  1
{FAEB1C32-E019-11D5-929B-00C0DF256EC4}
  0
DICTIONARYVAR
  5
1FB
102
{ACAD_REACTORS
330
7F
102
}
330
7F
100
DictionaryVariables
280
     0
  1
1:1
  0
DICTIONARYVAR
  5
81
102
{ACAD_REACTORS
330
7F
102
}
330
7F
100
DictionaryVariables
280
     0
  1
STANDARD
  0
DICTIONARYVAR
  5
1F5
102
{ACAD_REACTORS
330
7F
102
}
330
7F
100
DictionaryVariables
280
     0
  1
Standard
  0
DICTIONARYVAR
  5
84
102
{ACAD_REACTORS
330
7F
102
}
330
7F
100
DictionaryVariables
280
     0
  1
2
  0
DICTIONARYVAR
  5
85
102
{ACAD_REACTORS
330
7F
102
}
330
7F
100
DictionaryVariables
280
     0
  1
1
  0
DICTIONARYVAR
  5
8A
102
{ACAD_REACTORS
330
7F
102
}
330
7F
100
DictionaryVariables
280
     0
  1
1
  0
DICTIONARY
  5
1FC
330
45
100
AcDbDictionary
280
     1
  3
ACAD_XREC_ROUNDTRIP
360
1FD
  0
DICTIONARY
  5
1FE
330
44
100
AcDbDictionary
280
     1
  3
ACAD_XREC_ROUNDTRIP
360
1FF
  0
DICTIONARY
  5
200
330
46
100
AcDbDictionary
280
     1
  3
ACAD_XREC_ROUNDTRIP
360
201
  0
XRECORD
  5
1FD
102
{ACAD_REACTORS
330
1FC
102
}
330
1FC
100
AcDbXrecord
102
MATERIAL
148
0.0
149
0.0
149
0.0
 93
        0
 94
      127
282
     0
 72
     1
 77
     1
171
     1
175
     1
179
     1
273
     0
  0
XRECORD
  5
1FF
102
{ACAD_REACTORS
330
1FE
102
}
330
1FE
100
AcDbXrecord
102
MATERIAL
148
0.0
149
0.0
149
0.0
 93
        0
 94
      127
282
     0
 72
     1
 77
     1
171
     1
175
     1
179
     1
273
     0
  0
XRECORD
  5
201
102
{ACAD_REACTORS
330
200
102
}
330
200
100
AcDbXrecord
102
MATERIAL
148
0.0
149
0.0
149
0.0
 93
        0
 94
      127
282
     0
 72
     1
 77
     1
171
     1
175
     1
179
     1
273
     0
  0
ENDSEC
  0
EOF
